<svg xmlns="http://www.w3.org/2000/svg" viewBox="0 0 32.5791 32.1079"><title>github</title><path d="M16.2885,0a16.2911,16.2911,0,0,0-5.1479,31.7466c.8145.1494,1.1118-.3535,1.1118-.7852,0-.3867-.0141-1.4111-.022-2.7705-4.5312.9844-5.4873-2.1836-5.4873-2.1836a4.3136,4.3136,0,0,0-1.8086-2.3828c-1.479-1.0107.1119-.99.1119-.99A3.4217,3.4217,0,0,1,7.5415,24.313a3.4683,3.4683,0,0,0,4.7407,1.3535,3.4805,3.4805,0,0,1,1.0342-2.1777c-3.6172-.4111-7.42-1.8086-7.42-8.0508a6.2965,6.2965,0,0,1,1.6767-4.3711,5.859,5.859,0,0,1,.16-4.311s1.3677-.438,4.48,1.67a15.44,15.44,0,0,1,8.1562,0c3.11-2.1079,4.4751-1.67,4.4751-1.67a5.8508,5.8508,0,0,1,.1621,4.311A6.2858,6.2858,0,0,1,26.68,15.438c0,6.2578-3.8086,7.6348-7.4375,8.0381a3.8878,3.8878,0,0,1,1.1059,3.0166c0,2.1777-.02,3.9346-.02,4.4687,0,.4356.2934.9424,1.12.7833A16.292,16.292,0,0,0,16.2885,0Z" fill="#191717" fill-rule="evenodd"/></svg>