<svg xmlns="http://www.w3.org/2000/svg" xmlns:xlink="http://www.w3.org/1999/xlink" viewBox="0 0 492 491.9"><defs><radialGradient id="a" cx="31.4615" cy="424.179" r="711.335" gradientTransform="matrix(0.9986, -0.0523, -0.0445, -0.8488, -3.5957, 808.5541)" gradientUnits="userSpaceOnUse"><stop offset="0" stop-color="#fed576"/><stop offset="0.2634" stop-color="#f47133"/><stop offset="0.6091" stop-color="#bc3081"/><stop offset="1" stop-color="#4c63d2"/></radialGradient><radialGradient id="b" cx="129.1846" cy="308.8468" r="365.2801" gradientTransform="matrix(0.9986, -0.0523, -0.0445, -0.8488, 9.0168, 618.0473)" xlink:href="#a"/></defs><title>instagram</title><path d="M84.9,12.9A120.626,120.626,0,0,0,41.3,41.3,120.2733,120.2733,0,0,0,12.9,84.8C6.8,100.4,2.7,118.3,1.5,144.5S0,179.1,0,245.9s.3,75.2,1.5,101.4S6.9,391.4,12.9,407a120.626,120.626,0,0,0,28.4,43.6A120.626,120.626,0,0,0,84.9,479c15.6,6.1,33.5,10.2,59.7,11.4s34.6,1.5,101.4,1.5,75.2-.3,101.4-1.5,44.1-5.4,59.7-11.4a125.9543,125.9543,0,0,0,72-72c6.1-15.6,10.2-33.5,11.4-59.7s1.5-34.6,1.5-101.4-.3-75.2-1.5-101.4-5.4-44.1-11.4-59.7a121.2934,121.2934,0,0,0-28.3-43.5,120.626,120.626,0,0,0-43.6-28.4C391.6,6.8,373.7,2.7,347.5,1.5S312.9,0,246.1,0,170.9.3,144.7,1.5C118.4,2.6,100.5,6.8,84.9,12.9ZM345.4,45.7c24,1.1,37,5.1,45.7,8.5a76.6287,76.6287,0,0,1,28.3,18.4,76.6287,76.6287,0,0,1,18.4,28.3c3.4,8.7,7.4,21.7,8.5,45.7,1.2,25.9,1.4,33.7,1.4,99.4s-.3,73.5-1.4,99.4c-1.1,24-5.1,37-8.5,45.7a81.3851,81.3851,0,0,1-46.7,46.7c-8.7,3.4-21.7,7.4-45.7,8.5-25.9,1.2-33.7,1.4-99.4,1.4s-73.5-.3-99.4-1.4c-24-1.1-37-5.1-45.7-8.5a76.6287,76.6287,0,0,1-28.3-18.4,76.6287,76.6287,0,0,1-18.4-28.3c-3.4-8.7-7.4-21.7-8.5-45.7-1.2-25.9-1.4-33.7-1.4-99.4s.3-73.5,1.4-99.4c1.1-24,5.1-37,8.5-45.7A76.6287,76.6287,0,0,1,72.6,72.6a76.6287,76.6287,0,0,1,28.3-18.4c8.7-3.4,21.7-7.4,45.7-8.5,25.9-1.2,33.7-1.4,99.4-1.4S319.5,44.5,345.4,45.7Z" fill="url(#a)"/><path d="M119.7,246A126.3,126.3,0,1,0,246,119.7,126.3046,126.3046,0,0,0,119.7,246ZM328,246a82,82,0,1,1-82-82A81.9838,81.9838,0,0,1,328,246Z" fill="url(#b)"/><circle cx="377.4" cy="114.7" r="29.5" fill="#654c9f"/></svg>