<svg xmlns="http://www.w3.org/2000/svg" viewBox="0 0 144 144"><title>linkedin</title><path d="M133.3,0H10.6A10.4986,10.4986,0,0,0,0,10.4V133.6A10.4986,10.4986,0,0,0,10.6,144H133.3A10.585,10.585,0,0,0,144,133.6V10.4A10.585,10.585,0,0,0,133.3,0ZM42.7,122.7H21.4V54H42.8v68.7ZM32,44.6a12.35,12.35,0,0,1,.1-24.7A12.3505,12.3505,0,1,1,32,44.6Zm90.7,78.1H101.4V89.3c0-8-.2-18.2-11.1-18.2-11.1,0-12.8,8.7-12.8,17.6v34H56.1V54H76.6v9.4h.3c2.8-5.4,9.8-11.1,20.2-11.1,21.6,0,25.6,14.2,25.6,32.7Z" fill="#2867b2"/></svg>