<svg xmlns="http://www.w3.org/2000/svg" viewBox="0 0 249.9 203.2"><title>twitter</title><path d="M78.5,203.2c94.3,0,145.9-78.2,145.9-145.9,0-2.2,0-4.4-.1-6.6a106.1208,106.1208,0,0,0,25.6-26.6,104.2609,104.2609,0,0,1-29.5,8.1A51.4182,51.4182,0,0,0,243,3.8a100.8974,100.8974,0,0,1-32.6,12.4,51.3,51.3,0,0,0-88.7,35.1A57.4523,57.4523,0,0,0,123,63,145.8708,145.8708,0,0,1,17.3,9.4,51.4223,51.4223,0,0,0,33.2,77.9,52.3737,52.3737,0,0,1,10,71.5v.7a51.3793,51.3793,0,0,0,41.1,50.3,51.48,51.48,0,0,1-23.1.9A51.307,51.307,0,0,0,75.9,159a102.9851,102.9851,0,0,1-63.7,22A98.6785,98.6785,0,0,1,0,180.3a145.5159,145.5159,0,0,0,78.5,22.9" fill="#1da1f2"/></svg>