<svg xmlns="http://www.w3.org/2000/svg" viewBox="0 0 176 124"><title>youtube</title><path d="M172.3223,19.3628a22.1147,22.1147,0,0,0-15.56-15.6612C143.0368,0,88,0,88,0S32.9633,0,19.2379,3.7016a22.1148,22.1148,0,0,0-15.56,15.6612C0,33.1773,0,62,0,62s0,28.8227,3.6777,42.6372a22.1148,22.1148,0,0,0,15.56,15.6612C32.9633,124,88,124,88,124s55.0368,0,68.7621-3.7016a22.1147,22.1147,0,0,0,15.56-15.6612C176,90.8227,176,62,176,62S176,33.1773,172.3223,19.3628Z" fill="red"/><polygon points="70 88.169 116 62.001 70 35.831 70 88.169" fill="#fff"/></svg>