<svg xmlns="http://www.w3.org/2000/svg" viewBox="0 0 368.5381 412.8838"><title>oxfam-vertical</title><path d="M311.8359,127.5655A127.5684,127.5684,0,1,1,184.2656,0,127.57,127.57,0,0,1,311.8359,127.5655ZM133.459,98.9639h23.2793a1.3465,1.3465,0,0,0,1.3027-1.3086,26.5177,26.5177,0,0,1,52.4512,0,1.4382,1.4382,0,0,0,1.3808,1.3086h23.1934a1.3029,1.3029,0,0,0,1.3086-1.3047,52.2566,52.2566,0,0,0-104.2188,0A1.3016,1.3016,0,0,0,133.459,98.9639Zm75.84,48.4248a52.2379,52.2379,0,0,0,27.041-41.8955,1.3031,1.3031,0,0,0-1.3086-1.3H211.7539a1.3564,1.3564,0,0,0-1.3086,1.3,26.5114,26.5114,0,0,1-52.4434,0,1.3182,1.3182,0,0,0-1.3086-1.3H133.42a1.306,1.306,0,0,0-1.3047,1.3,52.23,52.23,0,0,0,27.0371,41.8955,52.2226,52.2226,0,0,0-27.1679,44.5254,1.3044,1.3044,0,0,0,1.3066,1.3057h23.1426a1.3078,1.3078,0,0,0,1.31-1.3057,26.5158,26.5158,0,0,1,52.9668,0,1.3066,1.3066,0,0,0,1.3047,1.3057h23.15a1.3041,1.3041,0,0,0,1.3047-1.3057A52.2222,52.2222,0,0,0,209.2988,147.3887Z" fill="#75c044"/><path d="M45.1357,382.3555c0,7.6748-7.8662,10.2715-12.48,10.2715S20.17,390.03,20.17,382.3555V340.5469c0-7.6758,7.873-10.2724,12.4863-10.2724s12.48,2.5966,12.48,10.2724Zm-12.48-72.3379C10.3564,310.0792,0,325.72,0,338.9922v44.9092c0,13.2861,10.3564,28.9219,32.6562,28.9824,22.2969-.06,32.6543-15.6963,32.6543-28.9824V338.9922C65.3105,325.72,54.9531,310.0792,32.6562,310.0176Z" fill="#75c044"/><polygon points="175.764 411.051 175.764 371.949 205.893 371.949 205.893 351.906 175.906 351.906 175.906 332.004 210.82 332.004 210.82 311.837 155.64 311.837 155.64 411.051 175.764 411.051" fill="#75c044"/><path d="M244.9873,342.8008l8.0586,31.2178H236.7773Zm17.6181,68.25h20.1114L256.416,311.837H232.8877l-25.8848,99.2138h20.209l4.6143-17.5742H258.082Z" fill="#75c044"/><polygon points="119.659 361.376 145.344 311.837 122.04 311.837 107.987 340.725 93.934 311.837 70.631 311.837 96.315 361.376 70.488 411.051 94.062 411.051 107.987 382.231 121.912 411.051 145.484 411.051 119.659 361.376" fill="#75c044"/><polygon points="347.593 311.837 329.837 350.006 311.839 311.837 291.18 311.837 291.18 411.054 310.895 411.054 310.895 354.614 323.565 381.001 336.15 381.001 348.818 354.698 348.818 411.054 368.538 411.054 368.538 311.837 347.593 311.837" fill="#75c044"/></svg>