<svg xmlns="http://www.w3.org/2000/svg" viewBox="0 0 60 60"><g id="icon"><polygon points="24 42 54 42 54 10 24 10 24 42"/><path d="M56,43V9a1,1,0,0,0-1-1H23a1,1,0,0,0-1,1V43a1,1,0,0,0,1,1H55A1,1,0,0,0,56,43Zm0,6V47a1,1,0,0,0-2,0H24a1,1,0,0,0-2,0v2a1,1,0,0,0,2,0H54a1,1,0,0,0,2,0ZM41,53a1,1,0,0,0,0-2H37a1,1,0,0,0,0,2ZM20,43a1,1,0,0,0-1-1V10a1,1,0,0,0,0-2H17a1,1,0,0,0,0,2V42a1,1,0,0,0,0,2h2A1,1,0,0,0,20,43ZM15,29V25a1,1,0,0,0-2,0v4a1,1,0,0,0,2,0ZM2,5V51.002c.039-.028.083-.049.122-.077.083-.059.171-.11.258-.164a4.8282,4.8282,0,0,1,.52-.282c.098-.047.196-.09.298-.13a4.9129,4.9129,0,0,1,.593-.184c.094-.024.186-.053.282-.071A4.905,4.905,0,0,1,8,51.002V5A3,3,0,0,0,2,5ZM59,4a1,1,0,0,1,1,1V59a1,1,0,0,1-1,1H5a5.0057,5.0057,0,0,1-5-5V5A5,5,0,0,1,9.899,4Z"/></g></svg>