<svg xmlns="http://www.w3.org/2000/svg" viewBox="0 0 423.7782 514.8713"><g id="icon"><path d="M282.8875,62.3125C225.8585,18.7565,151.3336,16.53,90.53,61.6315,39.4256,99.54,5.95,182.6126,53.7926,224.9145c48.854,43.212,71.32,18.14,109.53-16.808,40.595-37.127,74.992.628,122.706-9.775,49.031-3.578,49.047-53.254,48.005-61.525C328.83,95.5085,304.6056,78.9006,282.8875,62.3125Z" fill="none"/><path d="M416.3755,240.9906l-34.021-30.306c-12.536-16.462-7.265-36.861-10.0239-55.996-6.183-42.8721-27.873-84.879-62.957-111.537-76.333-58-182.157-59.34-250.995,7.001-57.008,54.941-72.077,135.1759-46.027,209.304,14.649,41.698,30.006,54.919,57.481,89.335,10.545,13.2089,2.528,79.686.379,93.957-3.795,25.2-5.245,21.9249-7.08,40.923-1.767,18.2949,3.639,23.494,7.28,26.327,4.428,3.444,76.032,5.396,124.924,4.75,18.908-.25,26.501,1.631,33.03-19.805,6.093-20.002,12.407-40.562,24.451-57.941,20.315-29.316,69.462-10.361,98.892-11.52,30.039-1.184,66.161-27.947,32.67-58.334,18.269-1.09,17.941-26.822,8.8561-34.547,29.151-19.76-7.4991-38.988,7.776-55.002C411.41,266.6976,436.0626,258.1116,416.3755,240.9906Zm-231.435-46.43,8.642-39.329h.116l7.949,36.1839A54.8949,54.8949,0,0,0,184.9405,194.5606Zm101.0881,3.77c-23.906,5.213-44.469-1.664-64.144-5.1541l-8.474-38.525.267-43.662,18.883,42.304c3.798,12.062,15.553,5.178,13.116-2.359l-12.982-31.957c-6.759-15.594-7.454-25.7639-21.51-25.7639l-17.545.0209-17.546-.0209c-14.056,0-14.751,10.17-21.507,25.764l-12.981,31.957c-2.439,7.537,9.314,14.422,13.117,2.359l18.879-42.304.266,43.662-12.062,54.8459c-37.294,34.211-59.81,58.0541-108.013,15.417C5.95,182.6125,39.4256,99.54,90.53,61.6315c60.804-45.102,135.329-42.875,192.357.682,21.719,16.588,45.9419,33.196,51.146,74.493C335.0756,145.0775,335.0605,194.7526,286.0286,198.3306Z"/><path d="M194.7776,58.1566c-9.095,0-13.469,7.374-13.469,16.474s4.374,16.4729,13.469,16.4729c9.1029,0,13.47-7.375,13.47-16.4729C208.2476,65.5306,203.8805,58.1566,194.7776,58.1566Z"/></g></svg>