<svg xmlns="http://www.w3.org/2000/svg" viewBox="0 0 100.0002 100.0004"><title>piggy-bank</title><path d="M64.584,0A14.57,14.57,0,0,0,51.426,8.4a14.4845,14.4845,0,0,0-8.895,25.448,48.6641,48.6641,0,0,0-19.082,6.675A14.4651,14.4651,0,0,0,14.584,37.5a2.0827,2.0827,0,0,0-2.084,2.084,14.441,14.441,0,0,0,2.506,8.09,27.6589,27.6589,0,0,0-5.7912,10.66H8.334A8.3409,8.3409,0,0,0,0,66.6664,13.27,13.27,0,0,0,6.2852,77.99l14.549,9.065v10.861A2.081,2.081,0,0,0,22.9162,100H31.25a2.0841,2.0841,0,0,0,1.863-1.152l2.467-4.932a55.4657,55.4657,0,0,0,28.84,0l2.467,4.932A2.0841,2.0841,0,0,0,68.75,100h8.334a2.081,2.081,0,0,0,2.082-2.084V86.8854c7.959-5.855,12.5-13.929,12.5-22.301a23.9929,23.9929,0,0,0-1.689-8.74,21.9941,21.9941,0,0,0,3.97-6.289,18.0168,18.0168,0,0,0,3.969.445,2.083,2.083,0,1,0,0-4.166,13.7359,13.7359,0,0,1-2.713-.27,27.621,27.621,0,0,0,.629-5.98,6.25,6.25,0,0,0-12.5,0c0,3.424,2.741,6.655,6.672,8.586a18.0493,18.0493,0,0,1-2.057,3.576c-5.081-8.413-14.976-14.831-27.047-17.291a14.5818,14.5818,0,0,0,4.289-5.35A14.5583,14.5583,0,0,0,64.5842,0Zm0,4.166A10.417,10.417,0,1,1,54.166,14.584,10.43,10.43,0,0,1,64.584,4.166Zm0,4.168A2.0813,2.0813,0,0,0,62.5,10.416V18.75a2.083,2.083,0,1,0,4.166,0V10.416A2.08,2.08,0,0,0,64.584,8.334ZM50.189,12.719A14.35,14.35,0,0,0,50,14.584a14.533,14.533,0,0,0,.344,3.086A2.0281,2.0281,0,0,0,50,18.75v8.334a2.083,2.083,0,0,0,4.166,0V24.758a14.5511,14.5511,0,0,0,6.564,3.826A10.372,10.372,0,1,1,50.189,12.719ZM89.584,37.5a2.0835,2.0835,0,0,1,2.082,2.084,23.606,23.606,0,0,1-.42,4.521c-2.315-1.316-3.746-3.132-3.746-4.521A2.0859,2.0859,0,0,1,89.584,37.5ZM50,41.709a50.536,50.536,0,0,1,15.232,2.145,2.0829,2.0829,0,0,1-.648,4.062,2.04,2.04,0,0,1-.65-.104c-7.894-2.591-19.974-2.591-27.868,0a2.0827,2.0827,0,1,1-1.298-3.958A50.536,50.536,0,0,1,50,41.709ZM20.834,54.166a4.167,4.167,0,1,1-4.168,4.168A4.1726,4.1726,0,0,1,20.834,54.166Z"/></svg>