<svg xmlns="http://www.w3.org/2000/svg" id="Layer_1" viewBox="-59.7 349.8 567.405 96.470157" width="810" height="181"><style id="style3">.fill-kaiju { fill: #2DC9D7; } .st0 { fill: #2DC9D7; } .st1 { fill: #FFFFFF; }</style><g id="g5" fill="#2dc9d7"><path class="fill-kaiju" d="M461.16 416.93c-3.9 4.4-9.6 6.8-16.6 6.8-14.2 0-25.8-11.5-25.8-25.5s11.6-25.4 25.8-25.4c14.2 0 23.7 11.4 23.7 25.4 0 1.5 0 3.5-.5 5h-39.5c2.6 6.5 8.7 11.5 16.2 11.5 3 0 6.1-1 8.1-2.5l8.6 4.7zm-2.4-22.7c-1.6-6.5-6.1-12.4-14.2-12.4s-14.6 5.4-16.2 12.4h30.4z" id="path7"/><path class="fill-kaiju" d="M190.06 373.53c-13.9 0-21.4 7.5-21.4 21.1v27.1h9.1v-27.1c0-7.2 4.1-12.1 12.2-12.1s12.2 4.9 12.2 12.1v27.1h9.1v-27.1c.1-13.6-7.4-21.1-21.2-21.1z" id="path9"/><path class="fill-kaiju" d="M388.26 373.23c-13.9 0-25.1 11.3-25.1 25.1v52.4h9v-33.1c4.4 3.7 10 5.9 16.1 5.9 13.9 0 25.1-11.3 25.1-25.1 0-13.9-11.3-25.2-25.1-25.2zm0 41.2c-8.9 0-16.1-7.2-16.1-16.1 0-8.9 7.2-16.1 16.1-16.1 8.9 0 16.1 7.2 16.1 16.1 0 8.9-7.2 16.1-16.1 16.1z" id="path11"/><path class="fill-kaiju" d="M142.06 423.73c13.9 0 21.4-7.5 21.4-21.1v-27.1h-9.1v27.1c0 7.2-4.1 12.1-12.2 12.1s-12.2-4.9-12.2-12.1v-27.1h-9.1v27.1c-.2 13.6 7.3 21.1 21.2 21.1z" id="path13"/><path class="fill-kaiju" d="M243.36 376.23h14.6l-27.5 22.5 27.9 23h-14.5l-18-14.8v14.8h-9.2v-72.8h9.2v41.7l17.5-14.4z" id="path15"/><path class="fill-kaiju" d="M296.66 416.93c-3.9 4.4-9.6 6.8-16.6 6.8-14.2 0-25.8-11.5-25.8-25.5s11.6-25.4 25.8-25.4c14.2 0 23.7 11.4 23.7 25.4 0 1.5 0 3.5-.5 5h-39.5c2.6 6.5 8.7 11.5 16.2 11.5 3 0 6.1-1 8.1-2.5l8.6 4.7zm-2.3-22.7c-1.6-6.5-6.1-12.4-14.2-12.4s-14.6 5.4-16.2 12.4h30.4z" id="path17"/><path class="fill-kaiju" d="M351.16 416.93c-3.9 4.4-9.6 6.8-16.6 6.8-14.2 0-25.8-11.5-25.8-25.5s11.6-25.4 25.8-25.4c14.2 0 23.7 11.4 23.7 25.4 0 1.5 0 3.5-.5 5h-39.5c2.6 6.5 8.7 11.5 16.2 11.5 3 0 6.1-1 8.1-2.5l8.6 4.7zm-2.4-22.7c-1.6-6.5-6.1-12.4-14.2-12.4s-14.6 5.4-16.2 12.4h30.4z" id="path19"/><path class="fill-kaiju" d="M106.76 373.53c-13.9 0-21.4 7.5-21.4 21.1v27.1h9.1v-27.1c0-7.2 4.1-12.1 12.2-12.1 1.6 0 3 .2 4.2.5l5.8-7.8c-2.7-1.1-6.1-1.7-9.9-1.7z" id="path21"/><path class="fill-kaiju" d="M495.76 373.53c-13.9 0-21.4 7.5-21.4 21.1v27.1h9.1v-27.1c0-7.2 4.1-12.1 12.2-12.1 1.6 0 3 .2 4.2.5l5.8-7.8c-2.7-1.1-6.1-1.7-9.9-1.7z" id="path23"/></g><g id="XMLID_38_" transform="translate(-58.29 338.132) scale(1.32798)"><circle id="XMLID_49_" class="st0" cx="45.6" cy="45.6" r="45.6" fill="#2dc9d7"/><g id="XMLID_40_"><path id="Tip_2_" class="st1" d="M27.3 24.6l-.8.8c-.3.3-.6.3-.9 0l-5-5.4c-.5-.5-.4-1.1 0-1.6.5-.5 1.1-.4 1.6 0l5.1 5.4c.3.3.3.6 0 .8z" fill="#fff"/><path id="Tip_1_" class="st1" d="M73.5 56l-1.3-.4c-.3-.1-.3-.1-.2-.4l1.9-7c.1-.6.8-.9 1.4-.8.6.1.9.8.8 1.4L74.2 56c-.1.2-.3 0-.7 0z" fill="#fff"/><path id="XMLID_44_" class="st1" d="M65.2 34.5c-1.4-5-5.4-8.9-10.6-9.6-6.4-1-13.1 2.1-17.8 6.3-.1.1-.4.3-.5.5-.5-.9-1.1-1.8-1.8-2.5-.9-1.3-2.9-3.4-3-3.5-.4-.5-1.1-.6-1.5-.8-1.4-.3-2.3-.8-2.8-1.1-.8-.5-1.8 1-1.6 1.5 0 .3.8.8 1.1 2.1.1.5.4 1.1.9 1.8 0 0 3.5 3.8 4.8 6.4 1.3 2.6 1.6 3.4 1.8 3.9 0 .1-1.3-1.5-2.8-2.6-5.8 6.6-10 14.5-11.3 23.1-1.3 8.8 3.5 11.1 7.1 11 2.9 0 8.9-3.1 12.1-10.8 3.1-7.5 2.6-16.1-.5-23.6 3-3 8.5-6.6 13.9-6.5 4 0 6 3.5 6.3 3.8 3.1 5.6-.5 10.6-.5 10.6-2 3-5.5 4.4-7.3 4.9-1.4.4-4 .3-4.6 0-.4-.1-.5-.3-.5-.6 0-.4.3-.6.6-.6.4 0 .6.3.6.6v.3c1 .3 3 .1 3.8 0-.6-1.5-2-2.3-3.8-2.3-2.4 0-4.3 1.9-4.3 4.3 0 1.8 1 3.3 2.5 3.9.8.3 3.1.6 6 .3 4.4-.6 7.6-2.6 10.6-6 3.5-4.1 4.5-9.6 3.1-14.8zM35.6 54.3c-2 8.8-7.6 11.9-9.1 11.4s-2-4.9 1-12.3c.5-1.1 3.5-8 7.4-12.3-.1.2 2.2 6.7.7 13.2z" fill="#fff"/><g id="XMLID_41_"><path id="XMLID_42_" class="st1" d="M74.3 58.9c-.4-1.6-.1-2.6-.1-2.9.1-.6-1.9-1.5-2.3-.7-.3.5-.8 1.3-1.6 1.9-.6.5-.9 1.1-.9 1.1-.3.3-2.3 6.6-8.6 6.9-7.4.3-8.9-8-9-8.7-1.6.3-4.8-.4-6.1-1 .4 4.6 2.6 10.1 6.5 12.7 4.5 3.1 11.5 3.1 16.3 0 2.8-1.9 4.6-4.3 5.8-7.4.1-.2.1-.4.2-.6v-.1c-.1 0 0-.6-.2-1.2z" fill="#fff"/></g></g></g></svg>
