<?xml version="1.0" encoding="utf-8"?>
<!-- Generator: Adobe Illustrator 16.0.0, SVG Export Plug-In . SVG Version: 6.00 Build 0)  -->
<!DOCTYPE svg PUBLIC "-//W3C//DTD SVG 1.1//EN" "http://www.w3.org/Graphics/SVG/1.1/DTD/svg11.dtd">
<svg version="1.1" id="Layer_1" xmlns="http://www.w3.org/2000/svg" xmlns:xlink="http://www.w3.org/1999/xlink" x="0px" y="0px"
	 width="942.593px" height="1000px" viewBox="0 0 942.593 1000" enable-background="new 0 0 942.593 1000" xml:space="preserve">
<g>
	<path d="M154.492,968.4c-44.609,0-78.072-33.461-78.072-79.929l0,0c0-42.752,31.6-76.207,72.496-76.207c3.713,0,7.434,0,11.153,0
		c22.302,3.721,37.168,11.154,52.042,26.021l1.857,1.854l-18.588,20.453l-3.713-3.721c-9.297-9.291-18.588-16.732-35.319-18.588
		c-1.856,0-3.72,0-5.577,0c-24.165,0-42.753,20.443-42.753,48.329l0,0c0,29.733,18.588,52.043,46.473,52.043h1.856
		c11.154,0,22.309-3.72,29.742-9.29l1.855-22.309l-35.318-1.856v-26.021l61.342,3.714l-3.715,59.482l-1.862,1.857
		C200.958,957.248,180.514,968.4,154.492,968.4L154.492,968.4z"/>
	<path d="M375.682,968.4H342.22l-1.856-1.863c-5.577-9.289-9.297-13.01-14.868-22.301c-27.885,0-40.896-1.857-68.773-3.722
		c-5.577,9.298-9.297,14.875-14.874,24.165v1.856h-31.601l3.721-5.569c20.445-35.318,40.896-70.639,63.197-104.093l1.856-1.857
		h1.864c9.291,1.857,13.011,1.857,22.301,3.715h1.857l1.862,1.863c18.589,31.599,40.89,65.054,65.054,100.372L375.682,968.4
		L375.682,968.4z M269.733,920.072c16.731,1.855,27.878,1.855,44.608,3.72c-9.297-13.011-13.01-22.309-22.309-37.176
		C282.744,897.771,279.023,905.204,269.733,920.072L269.733,920.072z"/>
	<path d="M412.851,968.4h-31.592V868.028h3.713c9.291,0,16.73,0,27.878,1.856h1.864l1.855,1.856
		c14.868,14.874,26.021,24.165,39.033,35.319l9.297,7.433c18.588-18.587,27.879-26.021,46.465-46.466l1.857-1.856h1.863
		c11.146,0,16.723-1.864,26.021-1.864h3.715v105.951h-31.6v-66.917c-16.725,16.73-39.033,37.174-46.467,42.752l-1.855,1.856
		l-1.863-1.856c-5.578-5.578-27.879-26.021-46.467-40.89L412.851,968.4L412.851,968.4z"/>
	<path d="M555.976,968.4V860.596h3.721c39.031-5.578,78.064-13.012,117.098-22.309l5.576-1.857v24.166h-3.719
		c-29.734,5.576-59.479,11.146-89.221,16.724v24.165c31.602-3.713,46.475-5.576,76.207-9.29h5.578v24.156h-3.715
		c-31.598,3.723-46.471,5.578-78.07,7.441v24.158c29.742,0,59.484-1.856,89.221-3.714h3.719V968.4h-3.719
		c-39.033,0-78.064,0-117.1,0H555.976L555.976,968.4z"/>
	<path d="M760.433,968.4L760.433,968.4c-1.854,0-5.576,0-7.432,0c-24.166-1.863-46.467-11.152-63.197-26.021l-3.715-1.863
		l18.588-20.442l3.713,1.855c14.877,13.012,29.742,18.587,46.477,18.587c16.725,0,27.877-5.575,27.877-16.724l0,0
		c0-9.298-5.576-14.874-37.176-20.45c-27.879-5.57-52.045-13.013-52.045-42.746c0-24.166,22.305-44.609,53.9-48.33
		c24.166-1.855,42.754,1.855,63.197,13.011l3.721,1.856l-20.445,26.022l-3.719-1.858c-14.867-9.29-29.744-13.01-44.607-11.154
		c-14.869,1.864-24.166,7.441-24.166,16.732c0,9.297,5.576,13.011,37.176,18.587c40.889,7.436,59.479,22.31,59.479,46.467l0,0
		c0,14.874-5.572,26.021-16.725,33.462C792.033,964.681,777.166,968.4,760.433,968.4L760.433,968.4z"/>
	<polygon points="858.951,325.276 851.517,325.276 845.941,325.276 840.363,325.276 840.363,330.853 840.363,979.549 
		52.255,979.549 52.255,330.853 52.255,325.276 46.686,325.276 41.108,325.276 35.531,325.276 35.531,334.57 35.531,994.422 
		35.531,1000 41.108,1000 853.373,1000 858.951,1000 858.951,994.422 858.951,332.713 	"/>
	<path d="M884.972,211.893l-68.773-27.878l-1.855-31.599l-63.199-29.742l-1.854-39.032c0,0-210.045-83.642-306.697-83.642
		c-87.362,0-286.244,78.064-299.256,81.781l-1.855,35.315l-61.341,26.025l-1.856,33.455l-78.07,31.599
		c0,0-24.166,395.91,440.522,600.369C903.56,622.674,884.972,211.893,884.972,211.893z M842.216,239.772
		c0,0-3.713,91.079-53.9,198.885c-46.469,102.231-143.121,239.78-343.867,323.422C234.414,661.706,137.761,526.021,95.007,429.365
		C48.542,323.419,50.399,241.634,50.399,239.774v-1.856l72.494-26.025l1.856-39.032l63.196-22.305l1.856-40.893h1.865
		c1.855,0,167.282-63.197,250.924-63.197c83.641,0,258.367,68.773,260.221,68.773h1.863l1.857,39.033l59.477,22.304l1.863,33.459
		l74.344,27.881V239.772z"/>
	<path d="M615.453,366.167c16.73-9.293,72.494-46.469,70.637-94.795c-3.721-63.197-74.352-105.947-74.352-105.947
		c-57.619-35.314-128.25-52.045-152.414-55.762v594.795c79.922-50.187,144.982-100.372,184.014-156.136
		c31.6-42.746,48.33-70.631,37.176-124.534C669.363,377.322,615.453,366.167,615.453,366.167z M507.646,171.003h1.863
		c5.578,1.857,120.816,35.315,122.674,96.652c0,1.86,5.578,65.057-122.674,87.362h-1.863V171.003z M572.707,557.62
		c-29.731,29.732-59.461,48.311-61.339,48.323l-0.001,0.001h-0.002l-1.855,3.719V447.954c1.855-1.86,55.764-52.046,91.076-48.326
		c33.453,3.716,33.453,50.186,33.453,50.186C634.039,483.27,613.595,518.587,572.707,557.62z"/>
	<path fill="#FFFFFF" d="M600.587,401.484c0.012,0.001,0.023,0.004,0.035,0.005c-0.012-0.001-0.024-0.004-0.037-0.005
		c-0.002,0-0.003,0-0.005,0C600.583,401.483,600.585,401.483,600.587,401.484z"/>
	<path d="M271.589,572.487c-66.912-57.62-131.971-237.917-137.549-321.56c13.019-5.577,39.041-11.154,52.051-11.154
		c0,0,18.586,144.982,89.218,243.495l16.724-35.315c0,0-52.043-182.158-39.031-267.66c16.73-5.574,39.031-11.151,53.906-13.011
		c0,0,9.291,262.082,70.631,360.595V118.957c14.867-7.434,35.313-11.151,52.043-13.011v602.232c0,0-63.197-44.607-117.097-191.454
		L271.589,572.487z"/>
	<path d="M870.105,955.391h33.455v5.577h-13.012v35.313h-5.576v-35.313h-13.01v-5.577H870.105z"/>
	<path d="M938.878,996.28v-24.165c0-1.856,0-5.578,0-9.291l0,0l-11.154,33.456h-5.576l-11.154-33.456l0,0c0,3.713,0,9.291,0,9.291
		v24.165h-5.576V955.39h7.436l11.154,33.455l0,0l11.152-33.455h7.434v40.891H938.878z"/>
</g>
</svg>
