<?xml version="1.0" encoding="utf-8"?>
<!-- Generator: Adobe Illustrator 22.1.0, SVG Export Plug-In . SVG Version: 6.00 Build 0)  -->
<svg version="1.1" id="Layer_1" xmlns="http://www.w3.org/2000/svg" xmlns:xlink="http://www.w3.org/1999/xlink" x="0px" y="0px"
	 viewBox="0 0 991.9 779.3" style="enable-background:new 0 0 991.9 779.3;" xml:space="preserve">
<title>Asset 1</title>
<g id="Layer_2_1_">
	<g id="svg2">
		<g id="g4">
			<path id="path6" d="M991.9,251.3v439.5c0,24.4-8.7,45.2-26,62.5c-17.3,17.3-38.2,26-62.5,26H88.6c-24.4,0-45.2-8.7-62.5-26
				C8.7,736,0,715.1,0,690.8V251.3c16.5,18.3,35.3,34.5,55.9,48.2c133.6,90.8,225.3,154.4,275.1,191c21,15.5,38.1,27.6,51.2,36.3
				c13.1,8.7,30.5,17.5,52.3,26.6c21.8,9,42.1,13.6,60.9,13.6h1.1c18.8,0,39.1-4.5,60.9-13.6c21.8-9,39.2-17.9,52.3-26.6
				c13.1-8.7,30.2-20.8,51.2-36.3c62.7-45.4,154.6-109.1,275.7-191C956.9,285.7,975.5,269.5,991.9,251.3z M991.9,88.6
				c0,29.2-9,57-27.1,83.6c-18.2,26.6-41,49.7-67.5,68.1c-138.7,96.3-225.1,156.3-259,179.9c-3.7,2.6-11.6,8.2-23.6,16.9
				c-12,8.7-22,15.7-29.9,21s-17.5,11.3-28.8,18c-10.1,6.1-20.7,11.1-31.8,15c-8.9,3.1-18.2,4.8-27.7,5h-1.1
				c-9.4-0.2-18.8-1.9-27.7-5c-11.1-3.9-21.8-8.9-31.8-15c-11.3-6.7-20.8-12.7-28.8-18c-7.9-5.3-17.9-12.3-29.9-21
				c-12-8.7-19.8-14.3-23.5-16.9c-33.6-23.6-81.9-57.3-145-101s-100.9-70-113.5-78.9c-22.9-15.5-44.5-36.8-64.8-63.9S0,124,0,100.7
				C0,72,7.7,48,23,28.7S60.2-0.1,88.6,0h814.8c24,0,44.8,8.7,62.3,26C983.1,43.3,991.9,64.2,991.9,88.6L991.9,88.6z"/>
		</g>
	</g>
</g>
</svg>
