<?xml version="1.0" encoding="utf-8"?>
<!-- Generator: Adobe Illustrator 22.1.0, SVG Export Plug-In . SVG Version: 6.00 Build 0)  -->
<svg version="1.1" id="Layer_1" xmlns="http://www.w3.org/2000/svg" xmlns:xlink="http://www.w3.org/1999/xlink" x="0px" y="0px"
	 viewBox="0 0 249.9 203.2" style="enable-background:new 0 0 249.9 203.2;" xml:space="preserve">
<title>Asset 1</title>
<g id="Layer_2_1_">
	<g id="Twitter_Blud">
		<path d="M78.5,203.2c94.3,0,145.9-78.2,145.9-145.9c0-2.2,0-4.4-0.1-6.6c10-7.3,18.7-16.3,25.6-26.6c-9.4,4.1-19.3,6.9-29.5,8.1
			c10.7-6.4,18.8-16.5,22.6-28.4c-10.1,6-21.1,10.2-32.6,12.4C191-4.5,158.6-5.5,137.9,13.9c-10.3,9.7-16.2,23.2-16.2,37.4
			c0,3.9,0.5,7.9,1.3,11.7C81.8,60.9,43.3,41.4,17.3,9.4C3.7,32.9,10.7,62.8,33.2,77.9c-8.1-0.3-16.1-2.5-23.2-6.4v0.7
			c0,24.4,17.2,45.4,41.1,50.3c-7.5,2-15.4,2.4-23.1,0.9c6.7,20.9,26,35.2,47.9,35.6c-18.2,14.3-40.6,22-63.7,22
			c-4.1,0-8.2-0.2-12.2-0.7C23.4,195.3,50.7,203.2,78.5,203.2"/>
	</g>
</g>
</svg>
