<svg xmlns="http://www.w3.org/2000/svg" viewBox="0 0 680.3476 255.1348"><title>Artboard 2</title><path d="M255.1347,127.5645A127.5674,127.5674,0,1,1,127.5664,0,127.5687,127.5687,0,0,1,255.1347,127.5645ZM76.76,98.9629h23.2774a1.347,1.347,0,0,0,1.3047-1.3086,26.5178,26.5178,0,0,1,52.4511,0,1.4383,1.4383,0,0,0,1.3809,1.3086h23.1934a1.304,1.304,0,0,0,1.3085-1.3047,52.2577,52.2577,0,0,0-104.2207,0A1.3033,1.3033,0,0,0,76.76,98.9629Zm75.84,48.4258a52.24,52.24,0,0,0,27.041-41.8965,1.3041,1.3041,0,0,0-1.3086-1.2988H155.0547a1.3553,1.3553,0,0,0-1.3086,1.2988,26.5113,26.5113,0,0,1-52.4434,0,1.3173,1.3173,0,0,0-1.3086-1.2988H76.7207a1.3058,1.3058,0,0,0-1.3047,1.2988,52.2264,52.2264,0,0,0,27.0371,41.8965,52.227,52.227,0,0,0-27.17,44.5254,1.3042,1.3042,0,0,0,1.3086,1.3047H99.7343a1.3071,1.3071,0,0,0,1.3106-1.3047,26.5157,26.5157,0,0,1,52.9668,0,1.3045,1.3045,0,0,0,1.3047,1.3047h23.15a1.3016,1.3016,0,0,0,1.3027-1.3047A52.215,52.215,0,0,0,152.6,147.3887Z" fill="#75c044"/><path d="M356.9453,141.3877c0,7.6748-7.8662,10.2715-12.4795,10.2715S331.98,149.0625,331.98,141.3877V99.5791c0-7.6758,7.873-10.2724,12.4863-10.2724s12.4795,2.5966,12.4795,10.2724ZM344.4658,69.05c-22.3.0615-32.6563,15.7022-32.6563,28.9746v44.9092c0,13.2861,10.3565,28.9219,32.6563,28.9824,22.2969-.06,32.6543-15.6963,32.6543-28.9824V98.0244C377.12,84.752,366.7627,69.1113,344.4658,69.05Z" fill="#75c044"/><polygon points="487.573 170.083 487.573 130.982 517.703 130.982 517.703 110.939 487.716 110.939 487.716 91.036 522.63 91.036 522.63 70.869 467.449 70.869 467.449 170.083 487.573 170.083" fill="#75c044"/><path d="M556.7968,101.833l8.0586,31.2178H548.5869Zm17.6182,68.25h20.1113L568.2255,70.8692H544.6972L518.8125,170.083h20.2089l4.6143-17.5742h26.2559Z" fill="#75c044"/><polygon points="431.469 120.408 457.153 70.869 433.85 70.869 419.797 99.757 405.744 70.869 382.44 70.869 408.125 120.408 382.298 170.083 405.872 170.083 419.797 141.264 433.722 170.083 457.294 170.083 431.469 120.408" fill="#75c044"/><polygon points="659.402 70.869 641.646 109.038 623.648 70.869 602.989 70.869 602.989 170.086 622.705 170.086 622.705 113.647 635.375 140.033 647.96 140.033 660.628 113.731 660.628 170.086 680.348 170.086 680.348 70.869 659.402 70.869" fill="#75c044"/></svg>