<svg id="Layer_1" data-name="Layer 1" xmlns="http://www.w3.org/2000/svg" viewBox="0 0 687.91 105"><defs><style>.cls-1{fill:#001e62;}.cls-2{fill:#3ec1d1;}</style></defs><title>Artboard 1 copy 2</title><path class="cls-1" d="M39.65,68.67c-4.71,0-7-3.62-5.79-7.81C36.3,52.19,52,39.32,62.66,39.32c7.8,0,7.2,7,2.64,12.92L62.77,55c-9.05,8.89-17.45,13.64-23.12,13.64ZM77.84,10.15c-13.64,0-28.66,8.35-38.08,16.24l.74,1.08c14.64-10.26,35-16.93,40.55-6.92,3,5.28-2.07,15.94-9.13,24.37,1.69-3.72.58-10.87-9.28-10.87C46.25,34.05,14,55.76,14,78c0,8.9,6.16,14.71,16.33,14.71,27.21,0,64.12-44.61,64.12-67,0-7.91-4.55-15.5-16.62-15.5Z"/><path class="cls-2" d="M149,64.59H123.25V78.87H111.34v-45H154.6q10.67,0,16.66,4a12.92,12.92,0,0,1,6,11.35,12.79,12.79,0,0,1-3.69,9.38q-3.7,3.72-10.46,5.15l15.52,15.08H163.35Zm-25.76-9.24h30.23a18.42,18.42,0,0,0,8-1.46,5.08,5.08,0,0,0,0-9.28,18.76,18.76,0,0,0-8-1.43H123.25Z"/><path class="cls-2" d="M195.73,77.88a20.69,20.69,0,0,1-9.19-7,18.06,18.06,0,0,1-3.23-10.7v-17h12v17a9.61,9.61,0,0,0,1.83,5.8,11.72,11.72,0,0,0,5.06,3.88,18.67,18.67,0,0,0,7.33,1.36,19.72,19.72,0,0,0,7.54-1.36A12,12,0,0,0,222.23,66a9.45,9.45,0,0,0,1.86-5.83v-17h12v17a18.06,18.06,0,0,1-3.23,10.7,20.65,20.65,0,0,1-9.18,7,40.56,40.56,0,0,1-27.93,0Z"/><path class="cls-2" d="M286.51,43.9a18.1,18.1,0,0,1,11.33,17.53V78.87h-12V63.35a12.41,12.41,0,0,0-1.71-6.51,11.48,11.48,0,0,0-4.72-4.41,14.81,14.81,0,0,0-6.86-1.55,21.41,21.41,0,0,0-8.19,1.49,13,13,0,0,0-5.8,4.47A11.85,11.85,0,0,0,256.44,64v14.9H244.52V43.18h11.36V51a18.66,18.66,0,0,1,7.63-6.79,25.19,25.19,0,0,1,11.55-2.52A29,29,0,0,1,286.51,43.9Z"/><path class="cls-2" d="M328.44,64.84l-9.06,6v8H307.46v-50h11.92V59.44L343,43.18H360.9L337.5,58.82l23.9,20.05H345Z"/><path class="cls-2" d="M377.66,77.94a22.33,22.33,0,0,1-10.12-6.83A15.78,15.78,0,0,1,364,61a15.61,15.61,0,0,1,3.47-9.93,23,23,0,0,1,9.56-6.89,35.93,35.93,0,0,1,13.65-2.48,36.3,36.3,0,0,1,13.6,2.42,21.33,21.33,0,0,1,9.46,7.08,18,18,0,0,1,3.45,11.05v2L376,64.22c.74,2.44,2.7,4.31,5.89,5.59a31.77,31.77,0,0,0,11.79,1.92,63.17,63.17,0,0,0,10.52-.8q4.69-.81,10.46-2.3v8.69q-5.58,1.43-10.42,2.23a67.09,67.09,0,0,1-11,.81A45.51,45.51,0,0,1,377.66,77.94Zm27-20.48A9,9,0,0,0,400,51.75a18.4,18.4,0,0,0-9.31-2.18A20.47,20.47,0,0,0,381,51.68a9.26,9.26,0,0,0-4.93,5.78Z"/><path class="cls-2" d="M437.36,77.94a22.33,22.33,0,0,1-10.12-6.83A15.84,15.84,0,0,1,423.74,61a15.61,15.61,0,0,1,3.47-9.93,23,23,0,0,1,9.56-6.89A39.11,39.11,0,0,1,464,44.11a21.33,21.33,0,0,1,9.46,7.08,18,18,0,0,1,3.45,11.05v2l-41.21-.06c.74,2.44,2.7,4.31,5.89,5.59a31.77,31.77,0,0,0,11.79,1.92,63.17,63.17,0,0,0,10.52-.8q4.69-.81,10.46-2.3v8.69Q468.8,78.75,464,79.55a67.09,67.09,0,0,1-11,.81A45.51,45.51,0,0,1,437.36,77.94Zm27-20.48a9.06,9.06,0,0,0-4.65-5.71,18.45,18.45,0,0,0-9.31-2.18,20.48,20.48,0,0,0-9.72,2.11,9.26,9.26,0,0,0-4.93,5.78Z"/><path class="cls-2" d="M528.08,44.11a21.53,21.53,0,0,1,9.15,6.8,17,17,0,0,1,0,20.2,21.35,21.35,0,0,1-9.15,6.83A34,34,0,0,1,515,80.36a33.35,33.35,0,0,1-10.43-1.61,20.12,20.12,0,0,1-7.69-4.29V93.15h-12v-50h11.85v4.53a19.87,19.87,0,0,1,7.67-4.37A32.78,32.78,0,0,1,515,41.69,34,34,0,0,1,528.08,44.11Zm-23.34,7.54a14.29,14.29,0,0,0-6,3.57A8,8,0,0,0,496.49,61a8.23,8.23,0,0,0,2.26,5.84,13.75,13.75,0,0,0,6,3.6,26.17,26.17,0,0,0,8,1.18,22.82,22.82,0,0,0,8.19-1.34,12,12,0,0,0,5.34-3.72,9.14,9.14,0,0,0,0-11,12,12,0,0,0-5.34-3.72,22.82,22.82,0,0,0-8.19-1.34A26,26,0,0,0,504.74,51.65Z"/><path class="cls-2" d="M560.5,77.94a22.33,22.33,0,0,1-10.12-6.83A15.78,15.78,0,0,1,546.88,61a15.61,15.61,0,0,1,3.47-9.93,23,23,0,0,1,9.56-6.89,35.93,35.93,0,0,1,13.65-2.48,36.3,36.3,0,0,1,13.6,2.42,21.33,21.33,0,0,1,9.46,7.08,18,18,0,0,1,3.45,11.05v2l-41.21-.06c.74,2.44,2.7,4.31,5.89,5.59a31.77,31.77,0,0,0,11.79,1.92,63.17,63.17,0,0,0,10.52-.8q4.7-.81,10.46-2.3v8.69q-5.58,1.43-10.42,2.23a67.09,67.09,0,0,1-11,.81A45.51,45.51,0,0,1,560.5,77.94Zm27-20.48a9,9,0,0,0-4.66-5.71,18.4,18.4,0,0,0-9.31-2.18,20.47,20.47,0,0,0-9.71,2.11,9.26,9.26,0,0,0-4.93,5.78Z"/><path class="cls-2" d="M608.57,43.18h11.79v8.88q2.49-4.59,9-7.45a38.43,38.43,0,0,1,15.3-2.92v9.93a39.17,39.17,0,0,0-11,1.37,23.46,23.46,0,0,0-9.38,4.72,10.17,10.17,0,0,0-3.78,8.06v13.1H608.57Z"/><path class="cls-2" d="M649.74,44a9.92,9.92,0,1,1,9.92,9.83A9.77,9.77,0,0,1,649.74,44Zm18,0a8.13,8.13,0,1,0-16.26,0,8.13,8.13,0,1,0,16.26,0Zm-11.52-5h3.44c2.28,0,3.75.94,3.75,2.95v0a2.59,2.59,0,0,1-2,2.64L664,48.74h-2.23l-2.37-3.8h-1v3.8h-2.14Zm3.39,4.51c1.12,0,1.7-.49,1.7-1.43v0c0-1-.63-1.39-1.7-1.39h-1.25v2.86Z"/></svg>