<?xml version="1.0" encoding="UTF-8"?>
<!DOCTYPE svg PUBLIC "-//W3C//DTD SVG 1.1//EN" "http://www.w3.org/Graphics/SVG/1.1/DTD/svg11.dtd">
<!-- Creator: CorelDRAW -->
<svg xmlns="http://www.w3.org/2000/svg" xml:space="preserve" width="68.1757mm" height="23.1723mm" style="shape-rendering:geometricPrecision; text-rendering:geometricPrecision; image-rendering:optimizeQuality; fill-rule:evenodd; clip-rule:evenodd"
viewBox="0 0 22.1376 7.52437"
 xmlns:xlink="http://www.w3.org/1999/xlink">
 <defs>
  <style type="text/css">
   <![CDATA[
    .fil0 {fill:#1F1A17}
    .fil1 {fill:#DE3B21}
   ]]>
  </style>
 </defs>
 <g id="Ebene_x0020_1">
  <metadata id="CorelCorpID_0Corel-Layer"/>
  <path class="fil0" d="M7.81784 3.7484l-6.49428e-005 0c-0.177034,-0.159532 -0.394268,-0.246783 -0.748888,-0.300458 -0.000616956,0 -0.000811785,0 -0.443007,-0.0655597 -0.170053,-0.0257498 -0.319778,-0.0872831 -0.41112,-0.168267 -0.086861,-0.0778664 -0.130827,-0.186581 -0.130827,-0.32374 0,-0.338287 0.259187,-0.556852 0.660403,-0.556852 0.353971,-3.24714e-005 0.60426,0.0883547 0.811882,0.286365 0.0188009,0.018119 0.0491292,0.0176644 0.067508,-0.000454599l0.376441 -0.370953c0.00935176,-0.00915693 0.0145472,-0.0221455 0.0142549,-0.0351016 -9.74142e-005,-0.0129886 -0.00565002,-0.0257498 -0.0151966,-0.0347119 -0.341209,-0.318804 -0.711546,-0.454599 -1.23849,-0.454599 -0.817954,0 -1.34649,0.466257 -1.34649,1.18803 0,0.333351 0.0977714,0.587505 0.298802,0.777008 0.179339,0.167585 0.44317,0.279676 0.762948,0.323512l0.457847 0.0655597c0.218727,0.0313349 0.308154,0.0651051 0.398879,0.150797 0.0901081,0.0805615 0.137646,0.208077 0.137646,0.368485 0,0.347022 -0.274578,0.546169 -0.753239,0.546169 -0.427453,-3.24714e-005 -0.705116,-0.103389 -0.958263,-0.356893 -0.0188659,-0.0187685 -0.0496163,-0.0187685 -0.0683523,-0.000194828l-0.392709 0.387481c-0.00915693,0.0089621 -0.0143848,0.0210415 -0.0143848,0.03403 -0.000162357,0.0129561 0.00487071,0.0250354 0.0138328,0.0342248 0.364297,0.369589 0.785678,0.527335 1.409,0.527335 0.877539,0 1.44455,-0.466711 1.44455,-1.18849 0,-0.354847 -0.115111,-0.642998 -0.332962,-0.832729z"/>
  <path class="fil0" d="M9.96768 4.6901c0,0.183691 -0.0335429,0.302698 -0.105597,0.37498 -0.127288,0.122385 -0.257531,0.144076 -0.483824,0.144076 -0.308803,0 -0.458886,-0.112773 -0.458886,-0.344327 3.24714e-005,-0.28906 0.243503,-0.349684 0.447813,-0.349684l0.594681 0 0.00581238 0 0 0.174956zm0.653097 -0.85088c0,-0.652383 -0.410796,-0.997391 -1.18813,-0.997391 -0.491,0 -0.769929,0.112546 -1.02938,0.415049 -0.0167552,0.019905 -0.0151317,0.0491942 0.00353938,0.0668586l0.365466 0.343677c0.00990377,0.00915693 0.0234443,0.0140926 0.0369849,0.0129561 0.013573,-0.00110403 0.0262369,-0.00782561 0.0343872,-0.0185412 0.146511,-0.188172 0.28432,-0.248374 0.567178,-0.248374 0.395566,0 0.556852,0.136055 0.556852,0.469406l0 0.147875 -0.682159 0c-0.618742,0 -1.00301,0.323772 -1.00301,0.844841 0,0.250127 0.0824124,0.473206 0.231911,0.628029 0.181223,0.18145 0.428005,0.266006 0.776456,0.266006 0.297243,0 0.493792,-0.0621827 0.678165,-0.214344l0.00961153 -0.00805291 0 0.140958c0,0.0268538 0.0218208,0.0483174 0.0485447,0.0483174l0.545357 0c0.0265291,0 0.04822,-0.0214636 0.04822,-0.0483174l0 -1.84895z"/>
  <path class="fil0" d="M12.11 5.17626c-0.439663,0 -0.529803,-0.349035 -0.529803,-0.873221 0,-0.520841 0.0901406,-0.867863 0.529803,-0.867863 0.436448,0 0.524186,0.33202 0.524186,0.867863 0,0.524186 -0.0890041,0.873221 -0.524186,0.873221zm0.852471 -2.07466c-0.165052,-0.165117 -0.424304,-0.259771 -0.710669,-0.259771 -0.293022,0 -0.494182,0.0727034 -0.672547,0.242983l-0.00983883 0.00961153 0 -0.171384c0,-0.0266265 -0.0216584,-0.0485447 -0.0485772,-0.0485447l-0.545422 0c-0.0266265,0 -0.0483499,0.0219182 -0.0483499,0.0485447l3.24714e-005 3.88335c0,0.0266265 0.0216909,0.0481226 0.0483174,0.0481226l0.5563 0c0.0266915,0 0.0484798,-0.0214961 0.0484798,-0.0481226l0 -1.28087 0.00996872 0.00938423c0.175475,0.162227 0.381084,0.234703 0.667027,0.234703 0.283053,0 0.540227,-0.0946541 0.705279,-0.259739 0.286268,-0.286625 0.325006,-0.771001 0.325006,-1.20683 0,-0.455087 -0.0396476,-0.915531 -0.325006,-1.20144z"/>
  <path class="fil0" d="M14.1819 2.92304c0,-0.0266265 -0.0216584,-0.0485447 -0.0483499,-0.0485447l-0.557177 0c-0.0269188,0 -0.0488045,0.0219182 -0.0488045,0.0485447l0 2.76513c0,0.0268538 0.0218857,0.0483174 0.0488045,0.0483174l0.557177 0c0.0266915,0 0.0483174,-0.0214636 0.0483174,-0.0483174l3.24714e-005 -2.76513z"/>
  <path class="fil0" d="M14.1982 1.90191c0,-0.0266265 -0.0216584,-0.0483174 -0.0486746,-0.0483174l-0.58994 0c-0.0264642,0 -0.0484798,0.0216909 -0.0484798,0.0483174l0 0.475901c0,0.0266265 0.0220156,0.0483174 0.0484798,0.0483174l0.58994 0c0.0270162,0 0.0486746,-0.0216909 0.0486746,-0.0483174l0 -0.475901z"/>
  <path class="fil0" d="M15.0512 4.03074l0 -0.00600721c0.00675405,-0.134042 0.0219831,-0.204959 0.0644882,-0.302958 0.0841983,-0.200024 0.273312,-0.319486 0.505969,-0.319486 0.229573,0 0.416738,0.119495 0.500936,0.319486 0.0446806,0.102934 0.0620853,0.179437 0.0694238,0.302731l0.000357185 0.00623451 -1.14117 0zm1.79158 0.190412c0,-0.837892 -0.479148,-1.37932 -1.22112,-1.37932 -0.753044,0 -1.22089,0.560002 -1.22089,1.46121 0,0.945502 0.458886,1.46657 1.29191,1.46657 0.520776,0 0.795679,-0.170475 1.07061,-0.445215 0.00928682,-0.0094167 0.0144173,-0.022178 0.0144173,-0.0349067 -0.000454599,-0.0132159 -0.00594226,-0.0257498 -0.0154564,-0.0346794l-0.354653 -0.332702c-0.0192231,-0.018119 -0.0484473,-0.0176644 -0.0672483,0.00110403 -0.17869,0.17856 -0.326337,0.269383 -0.636667,0.269383 -0.394982,0 -0.632445,-0.244737 -0.651701,-0.671411l-0.000194828 -0.00603968 1.74267 0c0.0267889,0 0.0483174,-0.0219507 0.0483174,-0.0485447l0 -0.245451z"/>
  <path class="fil0" d="M19.4223 3.92089c0,-0.36579 -0.0904978,-0.617249 -0.293152,-0.814383 -0.178917,-0.17317 -0.426349,-0.264674 -0.715247,-0.264674 -0.257271,0 -0.491779,0.0825423 -0.678392,0.238502l-0.00938423 0.0082802 0 -0.165572c0,-0.0266265 -0.0218857,-0.0485447 -0.0485772,-0.0485447l-0.545357 0c-0.0269188,0 -0.0483499,0.0219182 -0.0483499,0.0485447l0 2.76513c0,0.0268538 0.0213986,0.0483174 0.0483174,0.0483174l0.5563 0c0.0265616,0 0.0484473,-0.0214636 0.0484473,-0.0483174l0 -1.6854c0,-0.355269 0.195997,-0.5676 0.524283,-0.5676 0.322701,0 0.50782,0.20694 0.50782,0.5676l0 1.6854c0,0.0268538 0.0216584,0.0483174 0.0485772,0.0483174l0.55604 0c0.0266915,0 0.0486746,-0.0214636 0.0486746,-0.0483174l0 -1.76729z"/>
  <path class="fil0" d="M20.9983 5.21364c0,-0.0263992 -0.0217558,-0.0483174 -0.0483499,-0.0483174l-0.229216 0c-0.172975,0 -0.256946,-0.0894912 -0.256946,-0.273409l3.24714e-005 -1.44602 0.486129 0c0.0265941,0 0.0483499,-0.0216909 0.0483499,-0.0483174l0 -0.425538c0,-0.0266265 -0.0217558,-0.0483174 -0.0483499,-0.0483174l-0.486129 0 0 -0.79136c0,-0.0268214 -0.0217883,-0.0485447 -0.0468887,-0.048772 3.24714e-005,0 -0.556365,0.151024 -0.557956,0.151252 -0.0268214,0 -0.0487071,0.0216909 -0.0487071,0.0483174l3.24714e-005 0.640563 -0.267499 0c-0.0267889,0 -0.0484473,0.0216909 -0.0484473,0.0483174l0 0.425538c0,0.0266265 0.0216259,0.0483174 0.0484473,0.0483174l0.267499 0 0 1.47332c0,0.406737 0.249575,0.817272 0.806882,0.817272l0.332767 0c0.0265941,0 0.0483499,-0.0214636 0.0483499,-0.0483174l0 -0.474537z"/>
  <path class="fil1" d="M1.77135 6.23321c0,-0.360692 0.319324,-0.625139 0.66667,-0.625139l0.722553 0.0002273c0.288086,0 0.521361,-0.233112 0.521361,-0.521296l0 -0.727586c0,-0.288378 -0.233274,-0.519737 -0.521361,-0.519737l-0.771358 -0.000454599c-0.36066,0 -0.625561,-0.319259 -0.625561,-0.666475l0.000487071 -0.786652c0,-0.36066 0.319518,-0.62712 0.666832,-0.62712l0.7296 0.00220805c0.288086,0 0.521361,-0.22954 0.521361,-0.517269l0 -0.722651c0,-0.288216 -0.233274,-0.521231 -0.521361,-0.521231l-0.722553 -3.24714e-005c-0.287664,0 -0.521523,0.233047 -0.521523,0.521263l3.24714e-005 0.730054c0,0.346989 -0.266493,0.666508 -0.626925,0.666508l-0.767786 0c-0.287859,0 -0.521815,0.231553 -0.521815,0.519705l0 0.727586c0,0.288184 0.233956,0.521523 0.521815,0.521523l0.73473 0c0.347119,0 0.666605,0.266265 0.666605,0.626925l0.000454599 0.784639c0,0.347444 -0.266363,0.665599 -0.627023,0.661118l-0.774767 0c-0.287859,0 -0.521815,0.23269 -0.521815,0.520646l0 0.722651c0,0.288378 0.233956,0.52175 0.521815,0.52175l0.727457 0c0.288184,0 0.521848,-0.233372 0.521848,-0.52175l0.0002273 -0.76941z"/>
  <path class="fil0" d="M21.715 2.33463l-0.072606 0 0 0.121281 0.072606 0c0.039193,0 0.0644882,-0.0279903 0.0644882,-0.0606566 3.24714e-005,-0.0328935 -0.0252952,-0.0606241 -0.0644882,-0.0606241zm0.0622152 0.380792l-0.0851075 -0.180768 -0.0497137 0 0 0.180768 -0.104493 0 0 -0.466939 0.190867 0c0.0946216,0 0.155213,0.0691316 0.155213,0.146771 0,0.0642284 -0.0413686,0.105402 -0.0863739,0.123716l0.0985182 0.196452 -0.11891 0zm-0.078938 -0.573867c-0.189243,0 -0.334942,0.145634 -0.334942,0.34095 0,0.195348 0.145699,0.340755 0.334942,0.340755 0.189243,0 0.334942,-0.145407 0.334942,-0.340755 3.24714e-005,-0.195315 -0.145699,-0.34095 -0.334942,-0.34095zm0 0.780158c-0.242366,0 -0.439176,-0.196679 -0.439176,-0.439208 0,-0.242529 0.196777,-0.439176 0.439176,-0.439176 0.242529,0 0.439305,0.196647 0.439305,0.439176 0,0.242529 -0.196809,0.439208 -0.439305,0.439208z"/>
 </g>
</svg>
