<?xml version="1.0" encoding="utf-8"?>
<!-- Generator: Adobe Illustrator 22.1.0, SVG Export Plug-In . SVG Version: 6.00 Build 0)  -->
<svg version="1.1" id="Layer_1" xmlns="http://www.w3.org/2000/svg" xmlns:xlink="http://www.w3.org/1999/xlink" x="0px" y="0px"
	 viewBox="0 0 2426.5 323.7" style="enable-background:new 0 0 2426.5 323.7;" xml:space="preserve">
<g>
	<path d="M498.8,241.8l-3.5-3.2c-17.3,18.5-24.9,23.5-37.9,23.5c-9.7,0-21.1-6.2-36.7-20.8v-44.3l78.1-59.6l-53.4-52.8
		c-23.2,18.5-27,21.7-43.7,34.9c-9.4,7-14.7,10.3-20.5,12.9c0.9,6.5,2,15.8,2,22.3v99.2c-9.1,8.5-17.9,12.3-24.4,12.3
		c-8.8,0-15.3-5.3-15.3-14.7V118.8c-5.3-16.7-15.6-27.6-35.8-34.6l-49.3,39.9V30.8c0-13.5,7.6-25.8,14.7-29.1V0
		c-20,0-34,13.2-40.2,28.2l-8.5-17.9l-3.2,0.6v238.6c-19.7,10.3-40.8,21.7-64,21.7c-4.4,0-8.2,0-12.6-0.6V66.6
		c10.3,1.2,16.7,1.8,22.9,1.8c9.1,0,15-1.8,19.4-3.8l26.7-54.3l-4.4-0.9c-10.3,20.5-15.8,23.8-37.8,23.8c-10.3,0-33.2-2.6-56.1-5.6
		c-21.7-2.6-43.7-5.3-55.2-5.3C26.4,22.3,7,45.5,7,69.5c0,9.7,3.2,19.4,9.7,28.2l3.8-2.9c-4.4-5.3-7-12.3-7-18.2
		c0-10,7.6-18.5,28.2-18.5c8.2,0,37,2.6,64,4.7C74.8,78,49.3,94.5,19.4,117.1C6.5,134.4,0,156.7,0,179.6
		C0,238,44.3,301.4,142.6,301.4c28.8-16.1,71-40.5,71-40.5l39,35.2l27-26.7l-21.1-22V134.1c9.4-12.6,19.7-17.9,27.6-17.9
		c9.4,0,17.9,6.5,20.2,18.2v136.2c3.2,11.4,16.7,22.3,30.2,26.1l48.4-36.4l55.7,38.4L498.8,241.8L498.8,241.8z M464.5,154.6
		l-43.7,35.2v-76l1.5-1.5L464.5,154.6z M139.4,270c-27.3-3.2-50.5-13.5-67.8-29.4c33.4-24.3,41.1-38.4,41.1-65.4v-110l1.2-1.2
		c10.9,1.2,16.7,1.8,25.5,2.3L139.4,270L139.4,270L139.4,270z M77.5,201.6c0,16.4-2.6,26.1-11.4,33.7c-20-20.5-30.8-49.9-30.8-83
		c0-18.2,3.2-32.6,9.7-42.3c10.9-9.7,23.8-18.8,32.6-23.8L77.5,201.6L77.5,201.6L77.5,201.6z M987.1,117.1l-62.2-34
		c-19.1,19.1-43.4,34-71,49.3c3.8,11.4,2.6,26.1,2.6,44.3c0,45.2,0.6,69.5-7.6,81.6l69,42.3c18.8-19.7,39.3-34.9,67.2-49.9
		c-2.3-7-2.9-14.1-2.9-20.5v-77.2C982.1,130.3,984.5,122.1,987.1,117.1L987.1,117.1z M832.2,164.3l-48.4-32
		c18.5-11.4,24.4-14.7,31.1-19.7c11.2-7.9,14.4-12.9,14.4-17.9c0-3.5-1.5-10.6-10.3-23.8c-10.9-16.1-21.1-32-42.8-62.2
		c-30.2,20.5-47,32.9-78.9,57.8c-13.2,10.6-22.9,26.7-22.9,47.2c0,7,0.6,43.4,0.6,67.2c0,18.5-3.2,28.2-22.9,44.6
		c-47,0-75.1,30.2-75.1,60.8c0,12.9,4.1,26.4,14.1,37.3l3.2-3.2c-6.2-6.4-10.9-16.7-10.9-28.8c0-16.1,11.7-34,49.3-34
		c41.1,0,79.5,28.2,101.8,41.7c32-27,52.2-38.4,93.3-51.9v-69C827.8,173.4,829.2,168.7,832.2,164.3L832.2,164.3z M718.9,27.3
		l-1.2-3.5c-22.9,0-35.2-2.6-47.2-4.7c-11.4-1.8-21.1-3.8-34.6-3.8c-35.8,0-59,18.5-59,48.1c0,12.6,2.6,19.7,10.9,28.8l3.2-3.2
		c-4.4-5.3-6.8-10.9-6.8-16.7c0-12.9,10.9-24.4,34.9-24.4c17.9,0,34,3.2,48.1,6.5C637,76.6,618.5,92.7,618.5,140
		c-4.4-1.8-10.3-2.6-18.5-2.6c-22.9,0-34.6,15-34.6,29.6c0,6.4,1.5,13.5,5.9,18.5l3.8-2c-1.7-3.1-2.6-6.5-2.6-10
		c0-9.7,7.6-17.3,21.7-17.3c12.3,0,21.7,5.6,25.8,13.2c0,32.9-6.5,49.9-23.8,49.9v3.5c26.1,0,57.5-18.8,57.5-49.3v-60.7
		C653.8,62.8,683.1,39.6,718.9,27.3L718.9,27.3z M943.1,271.7l-2,1.5l-42.8-25.8V110l44.9,25.5V271.7L943.1,271.7z M789.9,111.8
		c0,11.7-10.9,17.9-47.2,40.5v-34.6c0-17.3,1.2-27,1.5-34h-7.3c0.9,7.6,1.5,16.7,1.5,34v138.2c-22.6-13.5-50.5-27.6-79.5-29.6
		c27.6-15.8,55.2-37,55.2-67.8V90.7c0-21.7,8.8-34.9,31.4-54.3c13.8,20.1,26.9,40.8,39,61.9C787.6,103.6,789.9,109.2,789.9,111.8
		L789.9,111.8z M783.8,179.6l-0.9,78.1c-8.2,4.4-13.8,7-21.1,12.3c-6.2-3.8-12-7.6-19.1-11.7V157.3L783.8,179.6L783.8,179.6z
		 M1577.5,260.3l-3.8-4.4l-18.5,15.8c-9.1,0-15.6-6.4-15.6-17c0-9.1,0.6-116.5,0.9-135c-7-14.1-16.1-24.9-36.7-32l-49.3,36.4
		c0-15-8.8-28.8-25.5-37.3l-28.8,24.4l15.3,16.1c0,0-0.6,95.4-0.6,111.2s-11.5,27-11.5,27l44.9,33.2l24.1-29.4l-17.9-16.1V134.1
		c8.5-11.5,17.9-16.4,25.8-16.4c9.4,0,17,6.5,19.1,15.8c0.6,7,0.6,18.2,0.6,30.2c0,18.5,0,83.6-0.6,108.9
		c3.2,11.4,20,27.3,30.8,27.3L1577.5,260.3L1577.5,260.3z M1380.6,252.7c-1.8-6.7-2.7-13.6-2.6-20.5V118.3l-59-33.2
		c-19.1,19.1-40.8,32.6-68.4,47.8c1.8,5.3,2.6,14.1,2.6,20v96c-8.5,9.4-17.3,14.7-25,14.7c-7.6,0-15-3.2-23.2-12
		c0-7.3,0.6-89.8,0.6-140.3h42.3V101l-42.3-1.8c0,0,0.3-39.6,0.9-47.5h-4.7l-59.3,62.2c-25.2-3.8-44.3-12.9-71.9-32
		c-21.7,22.3-36.4,32.6-62.5,44.9c1.2,13.2,1.8,20.2,1.8,33.2c0,15.3,0,20.3-1.2,33.2l34.6,24.3l-32.6,34
		c-14.1,14.7-19.4,26.7-19.4,38.7c0,10.9,4.4,19.4,10.9,27.6l3.8-2.3c-4.4-6.5-7-14.1-7-21.1c0-11.1,5.9-21.1,22.6-21.1
		c17,0,35.2,10.9,53.7,25.5c20.5-19.1,35.8-31.4,58.7-42.9v-55.2c0-6.5,0.6-9.4,2.1-13.5l-34.6-23.5l44.3-48.1h20.8
		c0,49.3-0.6,112.7-0.6,119.7c0,8.8-1.8,19.4-7.6,28.2l49.3,36.4l42.2-38.4l61.3,39.9C1335.1,279.4,1354.2,264.7,1380.6,252.7
		L1380.6,252.7z M1338.4,272.6l-2,1.8l-43.4-26.7V112.4l45.5,27V272.6z M1114.5,141.1l-45.5,49.3l-20-14.7V110
		C1069.6,124.1,1081.6,131.8,1114.5,141.1z M1096.6,271.7c-15.6-14.1-37.3-26.1-71.9-26.1l53.1-56.3l18.2,16.1L1096.6,271.7z
		 M2126.3,115l-65.1-33.7c-20,18.5-39.6,32-65.7,45.2c1.8,4.7,3.2,24.9,3.2,37.3l0.3,89.5c-6.2,6.4-12,9.7-17.9,9.7
		c-6.2,0-12.6-2.6-20.8-8.5V37.6c0-12.6,7.6-27.3,17.3-27.3V8.8c-20,0-37.8,9.1-43.1,24.4c-5-8.2-12.6-15.3-24.1-15.3l-0.3,2.3
		c6.5,0,12.9,18.2,12.9,35.5v174.3c0,16.7-2.3,25.2-8.8,34.6l43.4,31.4l40.8-35.2l62.8,37.8c23.8-22.3,37.8-35.2,64.6-51.1
		c-1.8-7.9-2.4-23.8-2.4-30.2v-76.9C2123.3,127.4,2123.9,120.3,2126.3,115L2126.3,115z M1893,30.8l-4.7-4.1l-17.9,18.8
		c0,0-46.1-15-83.6-36.7c-51.3,39-90.4,66.6-140.8,102.4c-12,17.9-18.5,41.1-18.5,66.6c0,69.6,64,123.5,144.7,123.5
		c52.5-22,90.1-53.1,117.7-90.4c1.8-7.6,2.3-18.5,2.3-24.4c0-50.5-34.3-78.6-70.7-87.4L1893,30.8L1893,30.8z M2086.1,267.3l-3.2,2
		l-46.1-29.1V110.6l48.7,23.8L2086.1,267.3z M1835.5,77.5l-57.8,51.6V49.3C1798.2,57.5,1816.7,67.2,1835.5,77.5z M1856.6,206
		c0,15.8-1.5,26.7-5.9,39.6c-15.6,15.9-39,25-65.4,25h-7.7V131.2c4.5-0.6,9-0.9,13.5-0.9C1830.2,130.3,1856.6,165.5,1856.6,206
		L1856.6,206z M1772.1,270c-28.8-2.1-50.8-11.7-68.4-26.4c26.7-18.5,43.4-27.9,43.4-56V47.2l8.2-6.5c5.9,2,10.9,4.4,16.7,6.5
		L1772.1,270L1772.1,270L1772.1,270z M1713.7,207.8c0,14.7-4.4,23.8-14.1,31.4c-22.3-21.7-33.2-51.9-33.2-82.5
		c0-45.5,15.9-62.8,37.3-78.6c3.5-2.6,6.8-4.7,10-7V207.8L1713.7,207.8z M2426.5,241.8l-3.2-3.2c-16.7,16.7-26.4,23.8-36.4,23.8
		c-9.7,0-18.8-5.9-38.5-21.1v-44.3l76.6-61.3c-17.9-15.3-54.9-51.9-54.9-51.9c-20.5,18.5-32.6,28.8-61.3,48.7
		c1.2,5.9,2.4,14.1,2.4,20.5v86.3c0,5.9-0.6,10.3-2.9,17.3l60.2,42.3L2426.5,241.8L2426.5,241.8z M2279.4,252.1
		c-2.6-24.4-2-90.4-2-121.5c0-20-17.3-34.6-39-43.7l-44.3,37.3V42.8c0-13.5,7.9-28.2,17.9-28.2V12c-21.1,0-44.6,16.7-48.4,27.6
		c-4.7-8.2-16.1-12.9-27-12.9l-0.6,4.1c10.8,0,21.1,18.5,21.1,51.1c0,65.7-0.6,128.5-0.6,155.5c0,8.8-1.2,14.7-5.8,21.7l66.6,40.8
		C2242.8,276.1,2252.4,269.1,2279.4,252.1z M2390.1,154.1l-41.7,34v-77.5L2390.1,154.1z M2241.6,199c0,23.8-1.2,70.4-1.2,72.2
		l-1.4,1.5l-44.9-28.2V134.1c7-10.9,16.7-16.4,25.2-16.4c10.6,0,17.9,7.6,21.7,17.9C2241,140,2241.6,168.7,2241.6,199L2241.6,199z"
		/>
</g>
</svg>
