<svg xmlns="http://www.w3.org/2000/svg" viewBox="0 0 991.9 779.35"><defs><style>.cls-1{fill:#fff;}</style></defs><title>Asset 1</title><g id="Layer_2" data-name="Layer 2"><g id="svg2"><g id="g4"><path id="path6" class="cls-1" d="M991.9,251.3V690.78q0,36.53-26,62.55t-62.55,26H88.56q-36.53,0-62.55-26T0,690.78V251.3a293.54,293.54,0,0,0,55.9,48.16q200.37,136.16,275.1,191,31.55,23.25,51.2,36.26t52.31,26.57q32.66,13.56,60.89,13.56h1.11q28.23,0,60.89-13.56t52.31-26.57q19.65-13,51.2-36.26,94.1-68.08,275.65-191A305.31,305.31,0,0,0,991.9,251.3Zm0-162.73q0,43.73-27.12,83.58a263.17,263.17,0,0,1-67.53,68.08q-208.12,144.47-259,179.89Q632.67,424,614.68,437t-29.89,21q-11.9,8-28.78,18A167.67,167.67,0,0,1,524.18,491a88,88,0,0,1-27.68,5h-1.11a88,88,0,0,1-27.68-5A167.67,167.67,0,0,1,435.89,476q-16.88-10-28.78-18t-29.89-21q-18-13-23.52-16.88-50.37-35.42-145-101T95.2,240.22Q60.89,217,30.44,176.29T0,100.74q0-43.17,23-72T88.56,0H903.33q36,0,62.27,26T991.9,88.56Z"/></g></g></g></svg>