<svg xmlns="http://www.w3.org/2000/svg" viewBox="0 0 2500 280"><title>citizens-bank</title><path d="M10.9306,276.8245c-8.4337-5.091-12.0928-17.6595-8.273-27.8416.7955-2.2273,13.3624-15.9094,27.8416-30.2279L56.75,192.5044H35.9084c-23.546,0-28.1581-1.4319-32.2962-10.1821-4.7728-10.18-2.2257-22.7505,6.2047-29.2718,4.1364-3.3425,6.0456-3.5,35.16-3.5,30.5461,0,30.5461,0,35.4781,4.1364,2.7046,2.2273,6.6819,7.7956,9.0683,12.25,5.4093,11.1366,15.5913,21.3187,25.2961,25.7733,8.9093,3.9774,14,8.9093,16.5442,15.5913.9562,2.5439,1.7516,15.59,1.7516,29.4309,0,20.6822-.4772,25.9324-2.8637,30.5461-5.5683,11.2957-18.7747,15.75-31.3416,10.5-8.5911-3.6592-10.3411-8.9094-10.3411-32.2962V225.1188L62.7954,250.8921c-14.3185,14-27.5234,26.41-29.4325,27.3642C27.7946,281.12,16.817,280.3245,10.9306,276.8245Zm141.7532.7954a22.3013,22.3013,0,0,1-8.432-7.4774c-2.8637-4.7728-3.1819-7.9547-3.1819-33.8871,0-34.0462.7954-36.1145,15.5912-43.5919A62.21,62.21,0,0,0,184.1845,165.14c7.4774-14.9533,9.5457-15.5912,44.0692-15.5912,32.1371,0,35.4781.7954,40.7282,9.8638,3.5,5.7274,3.6607,16.864.3182,23.2278-4.6122,8.9109-7.4775,9.8639-31.0235,9.8639H216.7989l27.2067,27.5233c28.9536,29.4325,30.7037,32.1371,27.5218,43.91a20.5074,20.5074,0,0,1-18.6141,15.5913c-4.1364.4773-9.2275.1591-11.2957-.6364-1.9091-.7955-15.4322-13.0457-29.7507-27.3642l-26.2506-26.0916V244.051c0,21.4778-1.9091,27.8415-9.8638,32.7735C169.7069,280.4837,160.0021,280.8018,152.6838,277.62Zm527.3983-10.5c-18.2959-2.7046-29.2734-12.7276-32.9326-30.228-1.1137-4.7728-1.75-29.9113-1.75-61.8877V120.9118H613.5806V84.32h30.2279V56.4786c0-15.2731.4773-27.8416.9546-27.8416s10.3411-2.5455,21.955-5.5683S688.6731,17.5,689.7868,17.5c1.2728,0,1.7517,9.5457,1.7517,33.41V84.32h44.5464v36.5917H691.2187l.6348,46.6147c.6364,50.1148,1.2743,54.0922,9.5457,58.5468,3.6607,1.9092,18.614,2.2273,28.637.6364l6.0471-1.1137v38.1827l-4.2955.9562c-18.9323,3.9757-35.7963,4.7712-51.7057,2.3848Zm413.1685,0c-35.7963-5.25-58.7059-25.6142-65.8652-58.7059-3.5-15.9094-3.9773-39.2963-1.1137-55.6831,5.4093-30.7052,21.16-52.66,46.4557-64.7514,11.4548-5.4092,13.523-5.8865,30.5461-6.5229,11.2957-.4773,21.6369,0,27.2052,1.2728,26.5688,5.7274,45.8192,26.2506,51.8664,55.2058,2.3864,10.9759,3.1819,34.84,1.43,41.5237l-.9545,3.5H1071.4546l.9546,7.6366c2.8636,19.5686,10.182,30.2279,25.4551,37.069,14.4792,6.3638,47.7283,3.9774,68.8879-5.0894l6.682-2.8653.7955,4.2955c.4772,2.3864,1.5909,10.6593,2.7046,18.2959,2.3864,16.5458,3.3409,15.4322-15.5913,20.0475-23.0687,5.8849-48.5238,7.6349-68.0924,4.7712Zm44.3874-124.2528c-2.3864-16.7049-14-26.7279-30.7052-26.7279-13.8413,0-24.0232,7-30.228,20.6823-6.0455,13.3639-7.6365,12.7276,29.2735,12.7276h32.6142l-.9545-6.682Zm298.62,124.2528c-7.4775-.7955-13.5231-1.5909-13.6821-1.9091-.1607-.1607.159-9.0684.4772-19.8868.6348-17.3413.9546-19.5687,3.341-18.6141,7.1592,2.8637,33.728,5.8865,41.6828,4.9319,15.273-1.9075,24.9778-10.5,23.0687-20.5216-1.591-8.432-7.3183-12.8882-25.9324-20.205-9.3866-3.6591-20.3641-8.5911-24.0249-10.8184-26.5672-15.2747-30.0673-54.73-6.9986-78.7534,6.8411-7.1592,24.3415-15.9094,37.2266-18.614,8.1154-1.9092,56.1619-1.591,57.4347.159.159.3182.159,9.0684-.1607,19.5687l-.6348,18.7731-4.9335-.9545c-27.0461-5.5683-44.2283-4.1365-51.2268,3.9773-7.6382,9.2275-3.9774,19.5687,9.0667,25.7733,4.6138,2.2274,15.4322,7,24.0249,10.6594,17.0231,7.3183,26.7279,15.2731,32.1371,26.2506,2.5455,5.091,3.1819,9.7047,3.1819,22.2732,0,14.6367-.3182,16.5458-4.6138,24.3415-8.5911,15.5912-24.1824,26.5687-44.2282,31.3416C1478.4184,268.0743,1452.9633,269.0289,1436.2584,267.12Zm434.169-.4773c-18.614-4.1364-29.2735-13.523-34.2054-30.0672-8.4336-28.6371,6.2032-56.9559,36.2737-70.1623,12.0911-5.4076,33.0917-10.18,50.1147-11.4532l14.6367-1.1137v-8.9109c0-11.1366-3.8184-18.9307-11.1367-23.2278-4.7728-2.7046-8.2728-3.1819-23.8641-3.1819-19.57.1591-30.5461,2.3864-44.8646,9.5457-4.2955,2.2273-7.6366,3.6592-7.7957,3.5-.9545-3.8183-3.9774-38.8191-3.1819-39.6146,1.7516-1.75,22.91-7.4774,35.1614-9.3866,6.9987-1.1136,21.7943-1.4318,35.7963-1.1136,21.6368.6364,24.8187,1.1136,35.0008,5.25,17.8169,7.3184,27.8415,19.4095,31.0234,37.7054.7955,4.6138,1.75,38.3418,1.9075,74.9335l.4789,66.3424H1942.02V239.9145l-7.32,8.1154c-8.59,9.5457-22.7506,17.0216-36.4311,19.25-11.9321,1.9075-16.7049,1.9075-27.8415-.638Zm42.3191-37.3872c13.682-6.2031,24.5006-23.0687,24.5006-38.4993,0-6.2046,0-6.3638-5.091-5.5683-2.8638.4773-9.3866,1.2728-14.6366,1.75-21.16,2.3864-34.2053,9.7047-37.7053,21.4777-1.591,5.0911-1.43,7,1.1135,12.25,5.4093,10.8168,18.7733,14.476,31.8189,8.59ZM402.144,265.6879c-41.3646-8.5911-68.4107-34.5236-78.1154-74.9336-6.2047-25.6158-5.729-61.57.9545-88.1383,1.2728-5.25,5.5684-16.2277,9.5457-24.3415,12.5685-25.9324,35.319-45.0238,65.07-54.41,15.7487-4.932,53.7739-6.2047,77.1608-2.5455,9.0668,1.4318,16.7049,2.8637,17.0215,3.1818.4789.4773-4.1364,42.7965-4.7728,43.4328-.1591.1591-7.1592-1.2727-15.4306-3.0228-22.2732-4.6137-49.7965-3.6591-62.365,2.2274-18.9323,8.75-30.7053,24.9778-36.2736,50.1147-9.2275,41.5237,3.1819,83.0474,29.2718,98.3205,16.7049,9.7047,46.1374,11.1366,72.5487,3.5,7.4759-2.2273,13.6822-3.9773,13.6822-3.8182.1591.1607,1.4318,9.5456,2.8636,20.8429,2.2274,16.705,2.3865,20.8414.6364,21.7944-1.1137.7955-8.432,2.8653-16.3867,4.9335-11.4548,2.7046-19.8868,3.5-41.3646,3.8167-14.7958.3182-30.2279-.1591-34.0462-.9546Zm133.48-90.6839V84.32h47.7283V265.6879H535.6243Zm241.8237,0V84.32h47.7283V265.6879H777.448Zm87.502,73.6607c0-18.9306-.7955-16.5442,13.8395-37.8645,4.2956-6.0456,16.07-23.2278,26.0916-38.1826,10.1821-14.7958,21.4777-31.3417,25.1369-36.5918L936.7,126.48l-35.0008-.4772-35.1583-.3182V84.32H993.8165v35.0008L982.201,136.344c-17.1822,25.1369-38.66,56.7967-48.3631,71.1153-4.6138,6.841-8.432,12.7275-8.432,13.0441,0,.3182,15.7487.6364,35.0008.6364h35.0008v44.5465H864.95Zm357.9626-73.6607V84.32h45.0238l-1.1137,13.6821-.9545,13.5231,8.5894-9.2275a66.9827,66.9827,0,0,1,19.5687-14.7958c10.6593-5.5683,10.9775-5.5683,31.5023-5.5683,20.2034,0,20.8413.1591,29.4325,4.9319a47.5068,47.5068,0,0,1,21.7943,26.5688c2.2274,7.1592,2.7046,17.8186,3.3426,80.3427l.6348,71.9107h-48.0449V202.05c0-69.2061-.1607-70.9561-8.75-77.6381-5.2518-4.1365-17.1839-4.7728-25.1386-1.2728-6.2031,2.7046-16.3867,12.4094-19.7261,18.9323-8.5912,16.7049-8.9109,19.5686-9.7064,73.1835l-.6348,50.433h-45.8192ZM1639.74,143.5033V21.16l10.8185-.9546c21-2.0682,88.4565-1.2727,101.025,1.1137,22.2733,4.2955,40.7282,16.5458,47.8874,31.8189,7,14.7958,7,36.4326,0,51.0693-3.9773,8.5911-16.0685,21.16-25.137,26.41-4.4547,2.5455-6.8411,4.6137-5.25,4.6137,5.5683,0,17.9778,7.1593,25.2945,14.6367,17.0231,17.5,20.0475,50.1148,6.6819,74.4563-5.5683,10.182-19.8868,23.8642-30.7053,29.2734-18.9323,9.7047-28.16,10.9759-81.6156,11.7714l-49.0012.6363V143.5033Zm98.9552,77.32c19.8868-9.2275,25.7732-33.0917,12.25-49.4784-7.3184-8.9109-18.7733-12.5685-43.1146-13.5231l-20.3642-.7954v33.5689c0,25.296.4774,33.7281,2.0683,34.366.9545.4773,10.5.6348,21,.4773,16.8655-.32,20.2049-.9561,28.16-4.6153Zm-8.1123-102.9342c9.2276-2.8637,19.7278-13.2048,22.1142-21.6368,2.3864-8.5911,1.112-18.455-3.3425-25.6142-5.8864-9.7048-26.41-14.7958-50.1148-12.5685l-11.7715,1.1136V121.23l18.7733-.7955c10.18-.3181,21.16-1.5909,24.3415-2.5455Zm300.53,57.115V84.32h45.0238l-.956,14.4776-1.1121,14.6367,4.6123-6.3638c6.0456-8.2729,14.6366-15.2731,25.6157-20.6823,8.1138-4.1364,10.18-4.2955,29.4325-4.4546,17.34,0,21.6368.4773,27.0461,3.1819a50.4414,50.4414,0,0,1,23.2277,25.4551c3.8183,9.5457,3.8183,9.8638,4.2955,82.4109l.4773,72.7062H2140.888v-63.956c0-59.9786-.3181-64.5923-3.1818-70.9561-1.9091-4.1365-4.6138-7.3184-7.1593-8.2729-6.6819-2.5455-17.9793-1.9092-24.5006,1.5909-8.4321,4.2956-18.4549,16.0686-22.7506,26.887-3.5,8.5895-3.6592,11.1366-4.138,61.8862l-.4773,52.8194h-47.5676Zm203.641-42.16V0h46.1374l.3166,78.5927.4789,78.7518,6.68-9.8639c5.8865-8.432,18.614-26.7279,38.9782-55.524l5.2517-7.4774,29.1144-.1591h29.2719l-5.4077,7c-2.8638,3.9773-11.4547,15.1139-19.0913,25.1369-30.5461,39.7736-37.8646,49.6375-37.8646,50.75,0,.6363,3.1819,5.5683,6.9986,11.1366,3.9774,5.5683,11.7731,17.0231,17.5,25.296,5.7289,8.2729,14.4791,20.8414,19.41,27.8415s11.2956,16.3868,14.3185,21.0005c2.8638,4.4547,6.0457,8.5895,7,9.2275,5.25,3.1819-.6364,3.9774-28.16,3.6592l-29.5931-.4773-27.2051-43.1146-27.2051-43.2737-.4789,43.59-.3137,43.5951h-46.1374ZM2444.6,137.14a37.5085,37.5085,0,0,1-13.3624-11.2957c-4.138-5.8865-4.7728-8.432-5.2517-19.0914-.7955-14.9549,2.3864-22.4323,12.8881-31.0234a36.4875,36.4875,0,0,1,41.6827-3.341c12.8866,7.4774,18.2959,17.0231,18.2959,32.6144-.0016,28.3188-28.9569,45.3419-54.2528,32.1371Zm26.5687-2.7046c4.4548-1.2728,9.7048-4.1365,11.7731-6.3638l3.6592-3.9774h-5.7289c-4.9319,0-6.68-1.1136-12.4094-7.9547-3.6593-4.2955-7.9548-7.9547-9.7048-7.9547-2.3864,0-2.8638,1.2727-2.8638,7.9547,0,7.4774-.3181,7.9547-3.9773,7.9547h-3.9774V84.32h11.9321c10.6577,0,12.567.4773,15.9095,3.9774,5.0894,4.9319,5.0894,9.3865-.1606,14.4776l-3.9774,4.1364,6.8411,7.6366c3.8183,4.1364,7.32,7.6365,7.7957,7.7956,3.0228.4773,6.6819-9.2275,6.6819-17.8186,0-7.6365-.7955-10.3411-4.6138-15.9094-8.9092-12.5685-20.6823-17.5-33.7279-14-17.1823,4.6138-27.681,22.1142-22.7506,38.1827,2.7045,9.2275,11.932,18.7732,20.5232,21.4778,9.5488,3.0228,9.3882,3.0228,18.7763.1591Zm-2.8637-34.5235c4.9318-4.932,1.2728-9.2275-7.7957-9.2275-4.2955,0-4.6122.4773-4.6122,5.5683,0,5.25.3165,5.5683,5.25,5.5683C2464.0088,101.8205,2467.1907,101.025,2468.3045,99.9114ZM8.2259,134.7531c-9.2274-9.2275-9.3865-24.0233-.6363-32.9326l4.9335-4.7728H56.4316L30.34,70.9562C16.0216,56.6376,3.6122,42.9555,2.6576,40.5691c-3.8182-10.182-.1591-22.75,8.273-27.8415,5.8849-3.5,17.0215-4.2956,22.4323-1.2728,1.9091.9546,14.9549,13.2049,28.9552,27.0461l25.4551,25.296.7955-21.16c.9545-24.0232,2.5455-28.4779,12.25-31.66,12.7275-4.1364,25.2944.9546,30.0672,12.4094,2.7046,6.3638,3.0228,52.0239.4773,58.865q-3.58,9.5455-15.2731,14.7958c-9.5456,4.1364-21.4777,15.9094-26.41,26.0915-2.3865,4.6137-6.5245,10.5-9.2291,12.7275L75.52,140.0032H13.4761Zm185.8225,2.0682c-3.1819-1.9091-7-6.682-9.8639-12.4094a62.218,62.218,0,0,0-27.5234-27.5233C141.8653,89.4111,141.07,87.3429,141.07,53.2967c0-25.9325.3182-29.1143,3.1819-33.8872,5.8865-9.5456,21.317-12.8866,31.5007-6.6819,7.9547,4.9319,9.8638,11.2957,9.8638,32.9325V64.4333l27.0461-27.0461,27.0461-27.0461h10.18c9.2291,0,10.82.4773,15.2747,4.7729a29.02,29.02,0,0,1,6.5229,10.8184c3.0228,11.1366.3182,15.4322-28.4763,44.5465L216.7989,97.0477h44.0692l5.25,5.7274c9.5456,10.0229,7.32,27.8415-4.1365,34.6826-3.6592,2.0682-9.5457,2.5455-33.728,2.5455-26.0915,0-29.5916-.3182-34.2053-3.1819ZM543.42,65.5469C526.2377,54.41,527.1923,28.9552,545.1716,19.41c5.8849-3.1819,8.75-3.6591,16.3867-3.0228,15.7487,1.4319,24.9778,11.1366,24.9778,26.5688,0,15.91-9.7063,25.7733-26.0915,26.7279-8.5943.4773-10.5018,0-17.0246-4.1365Zm245.96,2.2274c-11.2958-4.932-18.6141-19.8868-15.2731-31.1826,5.25-17.8185,23.8642-25.6142,40.8872-17.3413,18.7732,8.9093,19.0914,37.3872.6365,47.092C807.835,70.4789,796.8559,71.1152,789.38,67.7743Z" fill="#00a777"/></svg>