<svg xmlns="http://www.w3.org/2000/svg" xmlns:xlink="http://www.w3.org/1999/xlink" viewBox="0 0 503.16 65.97"><defs><clipPath id="a"><path d="M23.06,36.47a14.66,14.66,0,0,0,12-5.75l6.35,6.51Q33.8,45.69,23.54,45.7T6.64,39.25A21.72,21.72,0,0,1,0,23,21.91,21.91,0,0,1,6.77,6.57,22.84,22.84,0,0,1,23.32,0a23.53,23.53,0,0,1,18.3,8.28l-6.17,7A14.47,14.47,0,0,0,23.76,9.42a13.69,13.69,0,0,0-9.56,3.63,12.62,12.62,0,0,0-4,9.8A13.33,13.33,0,0,0,14,32.74a12.39,12.39,0,0,0,9.08,3.73" fill="#1b242f" clip-rule="evenodd"/></clipPath><clipPath id="b"><rect x="48.91" y="1.01" width="9.91" height="44.18" fill="#1b242f"/></clipPath><clipPath id="c"><polyline points="87.92 9.54 87.92 45.19 78.01 45.19 78.01 9.54 65.43 9.54 65.43 1.01 100.5 1.01 100.5 9.54 87.92 9.54" fill="#1b242f" clip-rule="evenodd"/></clipPath><clipPath id="d"><polyline points="129.61 45.19 119.7 45.19 119.7 27.75 104.32 1.01 115.06 1.01 124.66 17.44 134.25 1.01 144.99 1.01 129.61 27.75 129.61 45.19" fill="#1b242f" clip-rule="evenodd"/></clipPath></defs><path d="M23.06,36.47a14.66,14.66,0,0,0,12-5.75l6.35,6.51Q33.8,45.69,23.54,45.7T6.64,39.25A21.72,21.72,0,0,1,0,23,21.91,21.91,0,0,1,6.77,6.57,22.84,22.84,0,0,1,23.32,0a23.53,23.53,0,0,1,18.3,8.28l-6.17,7A14.47,14.47,0,0,0,23.76,9.42a13.69,13.69,0,0,0-9.56,3.63,12.62,12.62,0,0,0-4,9.8A13.33,13.33,0,0,0,14,32.74a12.39,12.39,0,0,0,9.08,3.73" fill="#1b242f" fill-rule="evenodd"/><g clip-path="url(#a)"><rect x="-160.96" y="-665.63" width="832.66" height="1207.82" fill="#1b242f"/></g><rect x="48.91" y="1.01" width="9.91" height="44.18" fill="#1b242f"/><g clip-path="url(#b)"><rect x="-160.96" y="-665.63" width="832.66" height="1207.82" fill="#1b242f"/></g><polyline points="87.92 9.54 87.92 45.19 78.01 45.19 78.01 9.54 65.43 9.54 65.43 1.01 100.5 1.01 100.5 9.54 87.92 9.54" fill="#1b242f" fill-rule="evenodd"/><g clip-path="url(#c)"><rect x="-160.96" y="-665.63" width="832.66" height="1207.82" fill="#1b242f"/></g><polyline points="129.61 45.19 119.7 45.19 119.7 27.75 104.32 1.01 115.06 1.01 124.66 17.44 134.25 1.01 144.99 1.01 129.61 27.75 129.61 45.19" fill="#1b242f" fill-rule="evenodd"/><g clip-path="url(#d)"><rect x="-160.96" y="-665.63" width="832.66" height="1207.82" fill="#1b242f"/></g><path d="M185.59,21.25a5.59,5.59,0,0,0-1.08-3.65,3.72,3.72,0,0,0-3.06-1.32,5.14,5.14,0,0,0-3.66,1.56,10.41,10.41,0,0,0-2.5,4.23,18,18,0,0,0-.88,5.7,5.64,5.64,0,0,0,1.08,3.71,4,4,0,0,0,3.21,1.28,5.07,5.07,0,0,0,3.56-1.48,9.71,9.71,0,0,0,2.45-4.15A18.6,18.6,0,0,0,185.59,21.25Zm5.19.22a19.49,19.49,0,0,1-1.6,8A12.82,12.82,0,0,1,184.79,35,11,11,0,0,1,178.35,37a9,9,0,0,1-6.68-2.5,9.16,9.16,0,0,1-2.48-6.79,19.74,19.74,0,0,1,1.57-8,13.19,13.19,0,0,1,4.39-5.64,11,11,0,0,1,6.54-2,8.77,8.77,0,0,1,6.68,2.53A9.55,9.55,0,0,1,190.78,21.47Z" fill="#1b242f" fill-rule="evenodd"/><path d="M190.14,47.29a9.22,9.22,0,0,1-3.27-.5V42.64a8.62,8.62,0,0,0,2.5.44q2.94,0,3.88-4.47L198,16.32h-3.93l.46-2.31,4.26-1.66.46-2c.64-2.87,1.62-4.92,3-6.13a8,8,0,0,1,5.62-1.83,11.37,11.37,0,0,1,4.63.94l-1.34,3.84a8.47,8.47,0,0,0-3-.61,3.22,3.22,0,0,0-2.43.94,6.46,6.46,0,0,0-1.39,3.07l-.39,1.88h5l-.81,3.88h-5l-4.89,23a11.77,11.77,0,0,1-2.88,6.07,7.14,7.14,0,0,1-5.21,1.94" fill="#1b242f" fill-rule="evenodd"/><path d="M244.5,36.85h6.8a15,15,0,0,0,6.38-1.05q2.13-1,2.13-4.1c0-2.05-.75-3.39-2.25-4.05a19.54,19.54,0,0,0-7.22-1H244.5Zm0-18h4.7a16,16,0,0,0,6.13-.89c1.33-.59,2-1.86,2-3.82s-.61-3.26-1.84-3.89-3.31-1-6.23-1H244.5ZM254,45.19H234.59V1h17.28a24.94,24.94,0,0,1,7.78,1.08A11.21,11.21,0,0,1,264.58,5a11.41,11.41,0,0,1,3,7.71q0,5.19-3.37,7.71a13,13,0,0,1-1.58,1.11c-.3.15-.83.39-1.59.73a11.63,11.63,0,0,1,6.57,3.7,10.25,10.25,0,0,1,2.45,7,11.82,11.82,0,0,1-3.18,8.15Q263.19,45.19,254,45.19Z" fill="#1b242f" fill-rule="evenodd"/><path d="M312.1,22.85a14.41,14.41,0,0,0-3.81-10.08,12.61,12.61,0,0,0-18.74,0,14.38,14.38,0,0,0-3.82,10.08,14.27,14.27,0,0,0,3.82,10,12.67,12.67,0,0,0,18.74,0A14.31,14.31,0,0,0,312.1,22.85Zm3.37,16.24a24.3,24.3,0,0,1-33.17,0,21.75,21.75,0,0,1-6.73-16.27A21.77,21.77,0,0,1,282.3,6.54a24.3,24.3,0,0,1,33.17,0,21.77,21.77,0,0,1,6.73,16.28A21.75,21.75,0,0,1,315.47,39.09Z" fill="#1b242f" fill-rule="evenodd"/><path d="M340.59,9.83a3.81,3.81,0,0,0-1.43,3.1A3.49,3.49,0,0,0,340.91,16c1.16.76,3.85,1.65,8.07,2.69a22.83,22.83,0,0,1,9.82,4.64q3.49,3.11,3.49,9A11.91,11.91,0,0,1,357.81,42q-4.47,3.69-11.79,3.7-10.54,0-19-7.78l5.91-7.2Q340.11,37,346.22,37a7,7,0,0,0,4.28-1.17,3.73,3.73,0,0,0,1.56-3.16,3.69,3.69,0,0,0-1.65-3.16c-1.1-.78-3.28-1.56-6.55-2.37q-7.75-1.83-11.34-4.77t-3.59-9.23a11.42,11.42,0,0,1,4.55-9.7A18.34,18.34,0,0,1,344.82,0a27.42,27.42,0,0,1,8.89,1.52,23.81,23.81,0,0,1,7.75,4.29l-5,7.21A19.57,19.57,0,0,0,344.5,8.66a6,6,0,0,0-3.91,1.17" fill="#1b242f" fill-rule="evenodd"/><polyline points="389.78 9.54 389.78 45.19 379.87 45.19 379.87 9.54 367.29 9.54 367.29 1.01 402.36 1.01 402.36 9.54 389.78 9.54" fill="#1b242f" fill-rule="evenodd"/><path d="M442.44,22.85a14.41,14.41,0,0,0-3.81-10.08,12.61,12.61,0,0,0-18.74,0,14.42,14.42,0,0,0-3.82,10.08,14.31,14.31,0,0,0,3.82,10,12.67,12.67,0,0,0,18.74,0A14.31,14.31,0,0,0,442.44,22.85Zm3.37,16.24a24.3,24.3,0,0,1-33.17,0,21.75,21.75,0,0,1-6.73-16.27,21.77,21.77,0,0,1,6.73-16.28,24.3,24.3,0,0,1,33.17,0,21.78,21.78,0,0,1,6.74,16.28A21.76,21.76,0,0,1,445.81,39.09Z" fill="#1b242f" fill-rule="evenodd"/><polyline points="492.14 1.01 502.05 1.01 502.05 45.19 492.14 45.19 470.98 17.51 470.98 45.19 461.07 45.19 461.07 1.01 470.34 1.01 492.14 29.45 492.14 1.01" fill="#1b242f" fill-rule="evenodd"/><rect x="234.86" y="56.04" width="268.3" height="9.93" fill="#e8453c"/></svg>