<svg xmlns="http://www.w3.org/2000/svg" viewBox="0 0 98 83.42"><title>component</title><polygon points="0 57.11 47.05 83.42 47.05 57.11 0 30.8 0 57.11"/><polygon points="50.95 57.11 50.95 83.42 98 57.11 98 30.8 50.95 57.11"/><path d="M85.82,23.16a4.6,4.6,0,0,0,.62-2.27c0-4.06-5.7-7.35-12.74-7.35a21.1871,21.1871,0,0,0-4.48.47L60.55,9.23A4.49,4.49,0,0,0,61,7.35C61,3.29,55.3,0,48.26,0S35.5,3.29,35.5,7.35a4.67,4.67,0,0,0,.77,2.51h0c1.73,2.85,6.46,4.85,11.96,4.85s10.19-2,12-4.84A4.68,4.68,0,0,1,61,12.38c0,4.06-5.73,7.33-12.77,7.33S35.5,16.44,35.5,12.38a4.6792,4.6792,0,0,1,.76-2.5l-7.92,4.41a20.69,20.69,0,0,0-5.58-.74c-7,0-12.74,3.29-12.74,7.35a4.68,4.68,0,0,0,.77,2.51c.1.16.21.31.33.47,2,2.57,6.45,4.37,11.64,4.37,5.5,0,10.19-2,12-4.84a4.68,4.68,0,0,1,.77,2.51c0,4.06-5.7,7.35-12.74,7.35S10,29.97,10,25.91a4.431,4.431,0,0,1,.31-1.61L3.26,28.24,48.94,53.65,95,28.24Zm-37.59,23c-7,0-12.74-3.29-12.74-7.35a4.67,4.67,0,0,1,.77-2.51c1.78,2.82,6.47,4.84,12,4.84s10.19-2,12-4.84A4.68,4.68,0,0,1,61,38.76c0,4.06-5.73,7.35-12.77,7.35Zm25.48-12.9c-7,0-12.74-3.29-12.74-7.35a4.68,4.68,0,0,1,.77-2.51c1.78,2.82,6.47,4.84,12,4.84s10.19-2,12-4.84a4.6793,4.6793,0,0,1,.76,2.51C86.45,29.97,80.74,33.26,73.71,33.26Z"/></svg>