<svg xmlns="http://www.w3.org/2000/svg" viewBox="0 0 98.0038 95.3313"><title>copyediting</title><path d="M11.8938,94.101a4.2,4.2,0,0,1-5.94,0l0,0-3-3-1.72-1.72a4.2038,4.2038,0,0,1,5.94-5.95l1.74,1.74,7.29-7.29a4.2,4.2,0,0,1,5.94,5.94l-7.29,7.29Zm21.46-37.56a4,4,0,0,0,0,8h14.7a4,4,0,0,0,0-8Zm40.3-21.42a4,4,0,0,0-4-4h-36.3a4,4,0,0,0,0,8h36.29a4,4,0,0,0,4.02-3.98v-.01Zm20.35-29.47h-60.65a4,4,0,0,0,0,8h60.65a4,4,0,0,0,0-8Zm-34.5,53.25,38.24-38.25v44.56l-16,16a10.0685,10.0685,0,0,1-4.33,2.55l-21.23,6.08a4.2986,4.2986,0,0,1-1.56.14h-21.23a4,4,0,0,1,0-8h18.17l5.39-18.75A10.07,10.07,0,0,1,59.5038,58.901Zm1.35,16.83,4.1,4.1,10.51-3a2.8406,2.8406,0,0,0,1.22-.72l1.09-1.09a63.8667,63.8667,0,0,1-12.08-12.13l-1.19,1.19a2.76,2.76,0,0,0-.79,1.73Zm-40.65-49.08a4.15,4.15,0,0,0-5.86,0l-2.65,2.65-2.69-2.65a4.15,4.15,0,0,0-5.86,5.86l2.65,2.65-2.61,2.61a4.15,4.15,0,0,0,5.82,5.88l2.65-2.65,2.69,2.65a4.15,4.15,0,0,0,5.86-5.86l-2.65-2.65,2.65-2.65A4.15,4.15,0,0,0,20.2038,26.651Zm0,25.43a4.15,4.15,0,0,0-5.86,0l-2.65,2.57-2.69-2.6a4.15,4.15,0,0,0-5.86,5.86l2.65,2.65-2.61,2.64a4.15,4.15,0,1,0,5.82,5.87l2.65-2.65,2.65,2.65a4.15,4.15,0,1,0,5.86-5.86l-2.65-2.65,2.65-2.65a4.15,4.15,0,0,0,.04-5.86Zm0-50.87a4.15,4.15,0,0,0-5.86,0l-2.65,2.62-2.69-2.64a4.15,4.15,0,0,0-5.82,5.86l2.65,2.6-2.65,2.69a4.15,4.15,0,0,0,5.82,5.86l2.65-2.65,2.65,2.65a4.15,4.15,0,0,0,5.86-5.86l-2.61-2.69,2.65-2.6a4.14,4.14,0,0,0,.0051-5.8548l-.0051-.0052Z"/></svg>