<svg xmlns="http://www.w3.org/2000/svg" viewBox="0 0 334.63 379.706"><title>html-icon--monochrome</title><path d="M111.976,154.694h55.338v-42.92H108.145ZM0,0,30.47,341.74l136.762,37.966,136.891-37.948L334.63,0ZM278.008,319.999,167.314,350.686V307.192l-.067.02L81.389,283.377l-6.004-67.298H117.46l3.116,34.914,46.68,12.607.059-.019V196.608H73.646L62.34,69.859H167.314V27.945H304.08Z" fill="#231f20"/><path d="M218.906,196.608H167.314v66.974l46.728-12.613ZM167.314,27.945V69.859H272.289l-3.754,41.915H167.314v42.92H264.72L253.221,283.377l-85.907,23.815v43.494l110.694-30.687L304.079,27.944H167.314Z" fill="#231f20" opacity="0.8" style="isolation:isolate"/><g opacity="0.2"><polygon points="167.314 69.859 62.339 69.859 73.645 196.608 167.314 196.608 167.314 154.694 111.976 154.694 108.145 111.774 167.314 111.774 167.314 69.859" fill="#231f20"/><polygon points="167.314 263.581 167.255 263.6 120.576 250.993 117.46 216.079 75.384 216.079 81.388 283.376 167.247 307.211 167.314 307.192 167.314 263.581" fill="#231f20"/></g></svg>