<svg xmlns="http://www.w3.org/2000/svg" viewBox="0 0 334.63 471.376"><title>html--monochrome</title><path d="M30.701,0H51.999V21.045H71.484V0H92.787V63.727H71.484V42.388H51.999V63.726H30.701Z" fill="#231f20"/><path d="M120.796,21.132H102.042V0h58.812V21.133H142.095V63.727h-21.3V21.132Z" fill="#231f20"/><path d="M170.193,0h22.21l13.661,22.392L219.712,0h22.219V63.727H220.719V32.141L206.064,54.799h-.366L191.033,32.141V63.726h-20.84Z" fill="#231f20"/><path d="M252.533,0h21.308V42.664h29.955V63.726H252.533Z" fill="#231f20"/><path d="M111.976,246.364h55.338v-42.92H108.145ZM0,91.67,30.47,433.41l136.762,37.966,136.891-37.948L334.63,91.67ZM278.008,411.669,167.314,442.356V398.862l-.067.02L81.389,375.047l-6.004-67.298H117.46l3.116,34.914,46.68,12.607.059-.019V288.278H73.646L62.34,161.529H167.314V119.615H304.08Z" fill="#231f20"/><path d="M218.906,288.278H167.314v66.974l46.728-12.613ZM167.314,119.615v41.914H272.289l-3.754,41.915H167.314v42.92H264.72L253.221,375.047l-85.907,23.815v43.494l110.694-30.687,26.071-292.055H167.314Z" fill="#231f20" opacity="0.8" style="isolation:isolate"/><g opacity="0.2"><polygon points="167.314 161.529 62.339 161.529 73.645 288.278 167.314 288.278 167.314 246.364 111.976 246.364 108.145 203.444 167.314 203.444 167.314 161.529" fill="#231f20"/><polygon points="167.314 355.251 167.255 355.27 120.576 342.663 117.46 307.749 75.384 307.749 81.388 375.046 167.247 398.881 167.314 398.862 167.314 355.251" fill="#231f20"/></g></svg>