<?xml version="1.0" encoding="UTF-8" standalone="no"?>
<svg
   xmlns:dc="http://purl.org/dc/elements/1.1/"
   xmlns:cc="http://creativecommons.org/ns#"
   xmlns:rdf="http://www.w3.org/1999/02/22-rdf-syntax-ns#"
   xmlns:svg="http://www.w3.org/2000/svg"
   xmlns="http://www.w3.org/2000/svg"
   height="512"
   width="362.73401"
   id="svg995"
   version="1.1"
   viewBox="0 0 362.73401 512">
  <metadata
     id="metadata1001">
    <rdf:RDF>
      <cc:Work
         rdf:about="">
        <dc:format>image/svg+xml</dc:format>
        <dc:type
           rdf:resource="http://purl.org/dc/dcmitype/StillImage" />
        <dc:title>HTML5 Logo</dc:title>
      </cc:Work>
    </rdf:RDF>
  </metadata>
  <defs
     id="defs999" />
  <title
     id="title973">HTML5 Logo</title>
  <polygon
     transform="translate(-74.633)"
     style="fill:#e44d26"
     id="polygon975"
     points="437.367,100.62 404.321,470.819 255.778,512 107.644,470.877 74.633,100.62 " />
  <polygon
     transform="translate(-74.633)"
     style="fill:#f16529"
     id="polygon977"
     points="404.27,130.894 256,130.894 256,480.523 376.03,447.246 " />
  <polygon
     transform="translate(-74.633)"
     style="fill:#ebebeb"
     id="polygon979"
     points="191.76,221.716 256,221.716 256,176.305 255.843,176.305 142.132,176.305 143.219,188.488 154.38,313.627 256,313.627 256,268.217 195.91,268.217 " />
  <polygon
     transform="translate(-74.633)"
     style="fill:#ebebeb"
     id="polygon981"
     points="205.227,372.55 201.994,336.333 177.419,336.333 156.409,336.333 162.771,407.634 255.791,433.457 256,433.399 256,386.153 255.801,386.206 " />
  <path
     id="path983"
     d="m 33.749,0 h 23.077 v 22.8 h 21.11 V 0 h 23.078 V 69.044 H 77.937 v -23.12 h -21.11 v 23.12 H 33.75 V 0 Z" />
  <path
     id="path985"
     d="M 131.361,22.896 H 111.045 V 0 h 63.72 V 22.896 H 154.44 V 69.044 H 131.362 V 22.896 Z" />
  <path
     id="path987"
     d="m 184.878,0 h 24.063 L 223.743,24.26 238.53,0 h 24.072 V 69.044 H 239.62 V 34.822 l -15.877,24.549 h -0.397 L 207.458,34.822 v 34.222 h -22.58 z" />
  <path
     id="path989"
     d="m 274.087,0 h 23.084 v 46.222 h 32.453 v 22.822 h -55.537 z" />
  <polygon
     transform="translate(-74.633)"
     style="fill:#ffffff"
     id="polygon991"
     points="311.761,313.627 306.49,372.521 255.843,386.191 255.843,433.435 348.937,407.634 349.62,399.962 360.291,280.411 361.399,268.217 349.162,268.217 255.843,268.217 255.843,313.627 " />
  <polygon
     transform="translate(-74.633)"
     style="fill:#ffffff"
     id="polygon993"
     points="255.843,221.605 255.843,221.716 365.385,221.716 365.385,221.716 365.531,221.716 366.442,211.509 368.511,188.488 369.597,176.305 255.843,176.305 255.843,204.509 " />
</svg>
