<svg xmlns="http://www.w3.org/2000/svg" viewBox="0 0 63.9997 50.271"><title>information-architecture</title><path d="M45.6508,26.094a.958.958,0,0,0,0-1.916h-5.268V8.792A1.2586,1.2586,0,0,1,41.64,7.535h4.011a.958.958,0,0,0,0-1.916H41.64a3.1774,3.1774,0,0,0-3.173,3.173V24.178h-4.836a.958.958,0,0,0,0,1.916h4.836V41.48a3.1774,3.1774,0,0,0,3.173,3.173h4.011a.958.958,0,0,0,0-1.916H41.64a1.2586,1.2586,0,0,1-1.257-1.257V26.094Z"/><path d="M29.9458,14.332v3.025a3.3936,3.3936,0,0,0-.767-.09H2.3468a3.35,3.35,0,0,0-.762.09V16.183a2.349,2.349,0,0,1,2.348-2.348h13.699a3.7333,3.7333,0,0,0,2.465-.926,3.7333,3.7333,0,0,1,2.465-.926h5.035A2.3507,2.3507,0,0,1,29.9458,14.332Z"/><path d="M28.32,38.288H3.2088a2.35,2.35,0,0,1-2.346-2.217L.0038,20.804A2.3493,2.3493,0,0,1,2.35,18.322h26.829a2.349,2.349,0,0,1,2.346,2.481l-.859,15.267A2.3505,2.3505,0,0,1,28.32,38.288Z"/><path d="M63.2078,1.175V2.688a1.6924,1.6924,0,0,0-.383-.045H49.4088a1.6684,1.6684,0,0,0-.381.045V2.1A1.1745,1.1745,0,0,1,50.2018.926h6.849a1.8644,1.8644,0,0,0,1.232-.463A1.8644,1.8644,0,0,1,59.5148,0h2.518A1.1762,1.1762,0,0,1,63.2078,1.175Z"/><path d="M62.3958,13.153H49.84a1.1746,1.1746,0,0,1-1.173-1.109l-.43-7.634A1.1746,1.1746,0,0,1,49.41,3.169h13.415a1.1746,1.1746,0,0,1,1.173,1.241l-.43,7.634A1.1736,1.1736,0,0,1,62.3958,13.153Z"/><path d="M63.2078,19.734v1.513a1.6924,1.6924,0,0,0-.383-.045H49.4088a1.6684,1.6684,0,0,0-.381.045V20.66a1.1745,1.1745,0,0,1,1.174-1.174h6.849a1.8644,1.8644,0,0,0,1.232-.463,1.8644,1.8644,0,0,1,1.232-.463h2.518A1.1747,1.1747,0,0,1,63.2078,19.734Z"/><path d="M62.3958,31.712H49.84a1.1753,1.1753,0,0,1-1.173-1.109l-.43-7.634a1.1746,1.1746,0,0,1,1.173-1.241h13.415a1.1746,1.1746,0,0,1,1.173,1.241l-.43,7.634A1.1736,1.1736,0,0,1,62.3958,31.712Z"/><path d="M63.2078,38.293v1.513a1.6924,1.6924,0,0,0-.383-.045H49.4088a1.6684,1.6684,0,0,0-.381.045v-.587a1.1745,1.1745,0,0,1,1.174-1.174h6.849a1.8644,1.8644,0,0,0,1.232-.463,1.8644,1.8644,0,0,1,1.232-.463h2.518A1.1747,1.1747,0,0,1,63.2078,38.293Z"/><path d="M62.3958,50.271H49.84a1.1753,1.1753,0,0,1-1.173-1.109l-.43-7.634a1.1746,1.1746,0,0,1,1.173-1.241h13.415a1.1746,1.1746,0,0,1,1.173,1.241l-.43,7.634A1.1736,1.1736,0,0,1,62.3958,50.271Z"/></svg>