<?xml version="1.0" encoding="utf-8"?>
<!-- Generator: Adobe Illustrator 22.1.0, SVG Export Plug-In . SVG Version: 6.00 Build 0)  -->
<svg version="1.1" id="Layer_1" xmlns="http://www.w3.org/2000/svg" xmlns:xlink="http://www.w3.org/1999/xlink" x="0px" y="0px"
	 viewBox="0 0 98.3 79.4" style="enable-background:new 0 0 98.3 79.4;" xml:space="preserve">
<title>Artboard 12</title>
<path d="M4.2,79.4h78c2.4,0.1,4.5-1.8,4.6-4.2s-1.8-4.5-4.2-4.6c-0.1,0-0.3,0-0.4,0h-3.4V47.2c-3.8,2.3-8.8,1.1-11.2-2.7
	c-0.6-1-1-2.1-1.1-3.2h-3.3c-6.8,0-12.3-5.5-12.3-12.3V7.7c0-1.6,0.3-3.2,1-4.7l-0.4-0.2l-6.2-2.4c-1.3-0.5-2.6-0.5-3.9,0L10.2,12.4
	c-1.6,0.8-2.6,2.5-2.5,4.3v53.7H4.2c-2.4,0.1-4.3,2.2-4.2,4.6C0.1,77.4,1.9,79.3,4.2,79.4z M14.7,21.8l25-9.8v7.4l-25,8.5L14.7,21.8
	z M14.7,34.1l25-7.2v7.5l-25,5.9L14.7,34.1z M14.7,46.6l25-4.6v7.5l-25,3.3L14.7,46.6z M14.7,59l25-2v7.5l-25,0.7L14.7,59z
	 M91.5,0.8H63.2c-3.8,0-6.9,3.1-6.9,6.9c0,0,0,0,0,0V29c0,3.8,3.1,6.9,6.9,6.9h8.7v4.4c0,1.5,1.2,2.7,2.7,2.7c0.7,0,1.4-0.3,1.9-0.8
	l6.3-6.3h8.7c3.8,0,6.9-3.1,6.9-6.9V7.7C98.4,3.9,95.3,0.8,91.5,0.8C91.5,0.8,91.5,0.8,91.5,0.8z M85.7,28.1c0,0.6-0.5,1.2-1.2,1.2
	l0,0H70.2c-0.6,0-1.2-0.5-1.2-1.2v0v-2.8c0-3.3,2-6.3,5.1-7.6c-2.6-1.8-3.2-5.3-1.5-7.9s5.3-3.2,7.9-1.5c2.6,1.8,3.2,5.3,1.5,7.9
	c-0.4,0.6-0.9,1.1-1.5,1.5c3.1,1.3,5.1,4.3,5.1,7.7L85.7,28.1z"/>
</svg>
