<svg xmlns="http://www.w3.org/2000/svg" xmlns:xlink="http://www.w3.org/1999/xlink" viewBox="0 0 442.3712 270.9275"><defs><linearGradient id="a" x1="115.8905" y1="115.786" x2="210.0944" y2="115.786" gradientUnits="userSpaceOnUse"><stop offset="0.0053"/><stop offset="0.1922" stop-color="#171717"/><stop offset="0.5414" stop-color="#3c3c3c"/><stop offset="0.8231" stop-color="#545454"/><stop offset="1" stop-color="#5c5c5c"/></linearGradient><clipPath id="b"><path d="M165.5349,62.8516a5.0749,5.0749,0,0,0-5.0748,0L118.43,87.1061a5.0738,5.0738,0,0,0-2.5392,4.3968v48.5465a5.08,5.08,0,0,0,2.5375,4.3967l42.03,24.2741a5.0793,5.0793,0,0,0,5.0782,0l42.0205-24.2741a5.08,5.08,0,0,0,2.5373-4.3967V91.5012a5.0735,5.0735,0,0,0-2.539-4.3951Z" fill="none" clip-rule="evenodd"/></clipPath><linearGradient id="c" x1="115.2392" y1="115.717" x2="212.417" y2="115.717" gradientUnits="userSpaceOnUse"><stop offset="0" stop-color="#5c5c5c"/><stop offset="0.1769" stop-color="#545454"/><stop offset="0.4586" stop-color="#3c3c3c"/><stop offset="0.8078" stop-color="#171717"/><stop offset="0.9947"/></linearGradient></defs><title>nodejs--monochrome</title><path d="M218.6474,270.9275a8.3734,8.3734,0,0,1-4.19-1.1213l-13.3386-7.8917c-1.99-1.1145-1.0184-1.5092-.3617-1.7382a26.594,26.594,0,0,0,6.0308-2.7433,1.0246,1.0246,0,0,1,.9919.0761l10.247,6.0838a1.3165,1.3165,0,0,0,1.2375,0l39.95-23.0583a1.26,1.26,0,0,0,.6105-1.0813V193.35a1.2892,1.2892,0,0,0-.62-1.1013L219.271,169.21a1.2512,1.2512,0,0,0-1.2307,0l-39.9231,23.0451a1.2836,1.2836,0,0,0-.6335,1.0945v46.1034a1.2243,1.2243,0,0,0,.63,1.068l10.9437,6.323c5.9377,2.9688,9.5734-.5276,9.5734-4.0406V197.2842a1.15,1.15,0,0,1,1.1611-1.1509h5.0657a1.153,1.153,0,0,1,1.1577,1.1509v45.5195c0,7.9249-4.3157,12.47-11.8293,12.47-2.3089,0-4.1269,0-9.2021-2.5011l-10.476-6.0308a8.438,8.438,0,0,1-4.19-7.2881V193.35a8.4185,8.4185,0,0,1,4.19-7.2812l39.95-23.0849a8.7538,8.7538,0,0,1,8.396,0L262.8,186.0687a8.4329,8.4329,0,0,1,4.1962,7.2812v46.1034a8.4566,8.4566,0,0,1-4.1962,7.2881l-39.9466,23.0648A8.38,8.38,0,0,1,218.6474,270.9275Z"/><path d="M230.9875,239.1646c-17.4817,0-21.1442-8.0244-21.1442-14.755a1.1484,1.1484,0,0,1,1.1546-1.1512h5.165a1.1572,1.1572,0,0,1,1.1478.9786c.78,5.2577,3.1047,7.9117,13.6768,7.9117,8.4162,0,11.9988-1.904,11.9988-6.3691,0-2.5742-1.0153-4.4849-14.095-5.7656-10.93-1.0812-17.6913-3.4964-17.6913-12.2406,0-8.0608,6.7938-12.8677,18.1856-12.8677,12.7977,0,19.13,4.4417,19.9332,13.9723a1.1551,1.1551,0,0,1-1.1509,1.2572h-5.185a1.1507,1.1507,0,0,1-1.1213-.9022c-1.2439-5.5332-4.2692-7.3012-12.476-7.3012-9.1889,0-10.2572,3.2012-10.2572,5.5994,0,2.906,1.2605,3.7518,13.6673,5.3939,12.277,1.6223,18.1088,3.921,18.1088,12.5494C250.9045,234.179,243.6464,239.1646,230.9875,239.1646Z"/><path d="M288.5929,190.8137a7.6994,7.6994,0,1,1-7.6994-7.701A7.72,7.72,0,0,1,288.5929,190.8137Zm-14.1548-.0214a6.457,6.457,0,1,0,6.4354-6.4357A6.4593,6.4593,0,0,0,274.4381,190.7923Zm3.5627-4.2977h2.9756c1.0184,0,3.0154,0,3.0154,2.2824a1.9843,1.9843,0,0,1-1.6322,2.1179c1.1842.0816,1.264.856,1.4264,1.9556a8.5072,8.5072,0,0,0,.448,2.2807h-1.8312c-.0432-.4063-.3285-2.6075-.3285-2.7284-.1192-.49-.2854-.733-.8954-.733h-1.5062v3.4614h-1.6719Zm1.6321,3.7886h1.3435a1.1614,1.1614,0,0,0,1.3037-1.2209c0-1.1828-.8162-1.1828-1.2639-1.1828h-1.3833Z"/><path d="M94.937,90.55a5.1082,5.1082,0,0,0-2.5579-4.4452L50.0245,61.73a4.9929,4.9929,0,0,0-2.332-.6736h-.4378a5.064,5.064,0,0,0-2.3388.6736L2.5609,86.105A5.1323,5.1323,0,0,0,0,90.55l.0931,65.6351A2.5137,2.5137,0,0,0,1.37,158.3946a2.46,2.46,0,0,0,2.5409,0L29.0827,143.981a5.1541,5.1541,0,0,0,2.5609-4.4383V108.878a5.0969,5.0969,0,0,1,2.5541-4.4285L44.9159,98.276a5.09,5.09,0,0,1,2.5643-.6868,5.0093,5.0093,0,0,1,2.5443.6868L60.7392,104.45a5.1,5.1,0,0,1,2.5576,4.4285v30.6647a5.1658,5.1658,0,0,0,2.5643,4.4383l25.1647,14.4136a2.49,2.49,0,0,0,2.5575,0,2.5562,2.5562,0,0,0,1.2708-2.2093Z" fill-rule="evenodd"/><path d="M298.7347.3236A2.5583,2.5583,0,0,0,294.93,2.5577v65a1.79,1.79,0,0,1-2.6853,1.5507l-10.6084-6.112a5.1172,5.1172,0,0,0-5.112.0017L234.1522,87.4515a5.1148,5.1148,0,0,0-2.5592,4.43v48.9164a5.12,5.12,0,0,0,2.5578,4.4319l42.37,24.4715a5.1194,5.1194,0,0,0,5.1184,0L324.0152,145.23a5.12,5.12,0,0,0,2.5579-4.4319V18.8624a5.1167,5.1167,0,0,0-2.6241-4.4686Zm-3.9313,124.4025a1.2757,1.2757,0,0,1-.64,1.1064l-14.5478,8.3859a1.2813,1.2813,0,0,1-1.2769,0L263.79,125.8325a1.2754,1.2754,0,0,1-.64-1.1064V107.9276a1.282,1.282,0,0,1,.6386-1.1081l14.5478-8.4025a1.2789,1.2789,0,0,1,1.28,0l14.5478,8.4025a1.2826,1.2826,0,0,1,.6386,1.1081Z" fill-rule="evenodd"/><path d="M439.8252,107.488a5.1162,5.1162,0,0,0,2.546-4.4237V91.21a5.117,5.117,0,0,0-2.5477-4.4252L397.7243,62.3418a5.1162,5.1162,0,0,0-5.1269-.0068L350.241,86.7881a5.116,5.116,0,0,0-2.5578,4.43v48.9032a5.1141,5.1141,0,0,0,2.5843,4.4451L392.36,168.552a5.114,5.114,0,0,0,5.0172.0282l25.46-14.1514a2.5589,2.5589,0,0,0,.0316-4.455l-42.625-24.4647a2.5576,2.5576,0,0,1-1.2854-2.22V107.9639a2.5564,2.5564,0,0,1,1.28-2.2158L393.5047,98.1a2.5543,2.5543,0,0,1,2.5541,0l13.2726,7.648a2.5562,2.5562,0,0,1,1.28,2.2158v12.0582a2.5584,2.5584,0,0,0,3.8433,2.2128Z" fill-rule="evenodd"/><path d="M394.5363,105.1975a.9794.9794,0,0,1,.9821,0l8.13,4.69a.9827.9827,0,0,1,.4909.8509v9.388a.9828.9828,0,0,1-.4909.8509l-8.13,4.69a.9794.9794,0,0,1-.9821,0l-8.1239-4.69a.9828.9828,0,0,1-.4909-.8509v-9.388a.9827.9827,0,0,1,.4909-.8509Z" fill-rule="evenodd"/><path d="M160.45,62.8516a5.0749,5.0749,0,0,1,5.0748,0l42.03,24.2545a5.0739,5.0739,0,0,1,2.5393,4.3968v48.5465a5.08,5.08,0,0,1-2.5376,4.3967l-42.03,24.2741a5.0793,5.0793,0,0,1-5.0782,0l-42.0206-24.2741a5.08,5.08,0,0,1-2.5372-4.3967V91.5012a5.0734,5.0734,0,0,1,2.5389-4.3951Z" fill-rule="evenodd" fill="url(#a)"/><g clip-path="url(#b)"><path d="M160.4009,62.8516l-42.07,24.2545a5.1674,5.1674,0,0,0-2.6371,4.3951v48.5481a4.9969,4.9969,0,0,0,1.1823,3.1825l47.2966-80.9075A5.1181,5.1181,0,0,0,160.4009,62.8516Z" fill="none"/><path d="M164.44,169.1481a5.093,5.093,0,0,0,.986-.4279l41.93-24.2741a4.9025,4.9025,0,0,0,2.3375-4.3968V91.5029a5.2654,5.2654,0,0,0-1.0659-3.2691Z" fill="none"/><path d="M207.3427,87.1061,165.5,62.8516a5.0485,5.0485,0,0,0-1.3271-.5273l-47.2966,80.9075a5.3344,5.3344,0,0,0,1.428,1.2143L160.3982,168.72a4.9726,4.9726,0,0,0,4.0422.4279l44.1879-80.9143A4.4539,4.4539,0,0,0,207.3427,87.1061Z" fill="#b4b4b4" opacity="0.66"/><path d="M118.8081,86.8312l-.4768.2749a5.1674,5.1674,0,0,0-2.6371,4.3951v48.5481a5.15,5.15,0,0,0,2.61,4.3968L160.3982,168.72a4.98,4.98,0,0,0,3.6561.539Z" fill="none"/><path d="M209.6942,91.5029a4.907,4.907,0,0,0-2.3515-4.3968L165.5,62.8516a5.0507,5.0507,0,0,0-1.1664-.4858l45.36,77.4933Z" fill="none"/><path d="M165.4264,168.72l41.93-24.2741a4.9025,4.9025,0,0,0,2.3375-4.3968v-.19l-45.36-77.4933a5.1192,5.1192,0,0,0-3.9329.4858l-41.5928,23.98,45.2462,82.428A5.0773,5.0773,0,0,0,165.4264,168.72Z" fill="url(#c)"/></g></svg>