<svg xmlns="http://www.w3.org/2000/svg" xmlns:xlink="http://www.w3.org/1999/xlink" viewBox="0 0 442.3712 270.9275"><defs><linearGradient id="a" x1="180.3959" y1="80.6976" x2="142.331" y2="158.35" gradientUnits="userSpaceOnUse"><stop offset="0" stop-color="#3f873f"/><stop offset="0.3296" stop-color="#3f8b3d"/><stop offset="0.6368" stop-color="#3e9637"/><stop offset="0.9342" stop-color="#3da92e"/><stop offset="1" stop-color="#3dae2b"/></linearGradient><clipPath id="c"><path d="M165.8137,62.59a5.0871,5.0871,0,0,0-5.0873,0L118.5926,86.9045a5.0864,5.0864,0,0,0-2.5455,4.4076v48.666a5.0925,5.0925,0,0,0,2.5438,4.4076L160.7247,168.72a5.092,5.092,0,0,0,5.0907,0l42.124-24.3338a5.0928,5.0928,0,0,0,2.5435-4.4076V91.31a5.086,5.086,0,0,0-2.5452-4.4059Z" fill="url(#a)" clip-rule="evenodd"/></clipPath><linearGradient id="d" x1="156.8518" y1="121.3365" x2="263.6591" y2="42.4216" gradientUnits="userSpaceOnUse"><stop offset="0.1376" stop-color="#3f873f"/><stop offset="0.3974" stop-color="#529f44"/><stop offset="0.7113" stop-color="#63b649"/><stop offset="0.9081" stop-color="#6abf4b"/></linearGradient><linearGradient id="e" x1="114.5565" y1="53.8174" x2="211.9735" y2="53.8174" gradientUnits="userSpaceOnUse"><stop offset="0.0919" stop-color="#6abf4b"/><stop offset="0.2887" stop-color="#63b649"/><stop offset="0.6026" stop-color="#529f44"/><stop offset="0.8624" stop-color="#3f873f"/></linearGradient><linearGradient id="f" x1="114.5565" y1="115.6346" x2="211.9735" y2="115.6346" xlink:href="#e"/><linearGradient id="g" x1="114.5565" y1="143.4452" x2="211.9735" y2="143.4452" xlink:href="#e"/><linearGradient id="h" x1="114.5565" y1="156.0148" x2="211.9735" y2="156.0148" xlink:href="#e"/><linearGradient id="i" x1="226.166" y1="78.3954" x2="166.0853" y2="200.9598" xlink:href="#a"/></defs><title>nodejs</title><path d="M218.6474,270.9275a8.3734,8.3734,0,0,1-4.19-1.1213l-13.3386-7.8917c-1.99-1.1145-1.0184-1.5092-.3617-1.7382a26.594,26.594,0,0,0,6.0308-2.7433,1.0246,1.0246,0,0,1,.9919.0761l10.247,6.0838a1.3165,1.3165,0,0,0,1.2375,0l39.95-23.0583a1.26,1.26,0,0,0,.6105-1.0813V193.35a1.2892,1.2892,0,0,0-.62-1.1013L219.271,169.21a1.2512,1.2512,0,0,0-1.2307,0l-39.9231,23.0451a1.2836,1.2836,0,0,0-.6335,1.0945v46.1034a1.2243,1.2243,0,0,0,.63,1.068l10.9437,6.323c5.9377,2.9688,9.5734-.5276,9.5734-4.0406V197.2842a1.15,1.15,0,0,1,1.1611-1.1509h5.0657a1.153,1.153,0,0,1,1.1577,1.1509v45.5195c0,7.9249-4.3157,12.47-11.8293,12.47-2.3089,0-4.1269,0-9.2021-2.5011l-10.476-6.0308a8.438,8.438,0,0,1-4.19-7.2881V193.35a8.4185,8.4185,0,0,1,4.19-7.2812l39.95-23.0849a8.7538,8.7538,0,0,1,8.396,0L262.8,186.0687a8.4329,8.4329,0,0,1,4.1962,7.2812v46.1034a8.4566,8.4566,0,0,1-4.1962,7.2881l-39.9466,23.0648A8.38,8.38,0,0,1,218.6474,270.9275Z" fill="#679e63"/><path d="M230.9875,239.1646c-17.4817,0-21.1442-8.0244-21.1442-14.755a1.1484,1.1484,0,0,1,1.1546-1.1512h5.165a1.1572,1.1572,0,0,1,1.1478.9786c.78,5.2577,3.1047,7.9117,13.6768,7.9117,8.4162,0,11.9988-1.904,11.9988-6.3691,0-2.5742-1.0153-4.4849-14.095-5.7656-10.93-1.0812-17.6913-3.4964-17.6913-12.2406,0-8.0608,6.7938-12.8677,18.1856-12.8677,12.7977,0,19.13,4.4417,19.9332,13.9723a1.1551,1.1551,0,0,1-1.1509,1.2572h-5.185a1.1507,1.1507,0,0,1-1.1213-.9022c-1.2439-5.5332-4.2692-7.3012-12.476-7.3012-9.1889,0-10.2572,3.2012-10.2572,5.5994,0,2.906,1.2605,3.7518,13.6673,5.3939,12.277,1.6223,18.1088,3.921,18.1088,12.5494C250.9045,234.179,243.6464,239.1646,230.9875,239.1646Z" fill="#679e63"/><path d="M288.5929,190.8137a7.6994,7.6994,0,1,1-7.6994-7.701A7.72,7.72,0,0,1,288.5929,190.8137Zm-14.1548-.0214a6.457,6.457,0,1,0,6.4354-6.4357A6.4593,6.4593,0,0,0,274.4381,190.7923Zm3.5627-4.2977h2.9756c1.0184,0,3.0154,0,3.0154,2.2824a1.9843,1.9843,0,0,1-1.6322,2.1179c1.1842.0816,1.264.856,1.4264,1.9556a8.5072,8.5072,0,0,0,.448,2.2807h-1.8312c-.0432-.4063-.3285-2.6075-.3285-2.7284-.1192-.49-.2854-.733-.8954-.733h-1.5062v3.4614h-1.6719Zm1.6321,3.7886h1.3435a1.1614,1.1614,0,0,0,1.3037-1.2209c0-1.1828-.8162-1.1828-1.2639-1.1828h-1.3833Z" fill="#679e63"/><path d="M94.937,90.55a5.1082,5.1082,0,0,0-2.5579-4.4452L50.0245,61.73a4.9929,4.9929,0,0,0-2.332-.6736h-.4378a5.064,5.064,0,0,0-2.3388.6736L2.5609,86.105A5.1323,5.1323,0,0,0,0,90.55l.0931,65.6351A2.5137,2.5137,0,0,0,1.37,158.3946a2.46,2.46,0,0,0,2.5409,0L29.0827,143.981a5.1541,5.1541,0,0,0,2.5609-4.4383V108.878a5.0969,5.0969,0,0,1,2.5541-4.4285L44.9159,98.276a5.09,5.09,0,0,1,2.5643-.6868,5.0093,5.0093,0,0,1,2.5443.6868L60.7392,104.45a5.1,5.1,0,0,1,2.5576,4.4285v30.6647a5.1658,5.1658,0,0,0,2.5643,4.4383l25.1647,14.4136a2.49,2.49,0,0,0,2.5575,0,2.5562,2.5562,0,0,0,1.2708-2.2093Z" fill="#333" fill-rule="evenodd"/><path d="M298.7347.3236A2.5583,2.5583,0,0,0,294.93,2.5577v65a1.79,1.79,0,0,1-2.6853,1.5507l-10.6084-6.112a5.1172,5.1172,0,0,0-5.112.0017L234.1522,87.4515a5.1148,5.1148,0,0,0-2.5592,4.43v48.9164a5.12,5.12,0,0,0,2.5578,4.4319l42.37,24.4715a5.1194,5.1194,0,0,0,5.1184,0L324.0152,145.23a5.12,5.12,0,0,0,2.5579-4.4319V18.8624a5.1167,5.1167,0,0,0-2.6241-4.4686Zm-3.9313,124.4025a1.2757,1.2757,0,0,1-.64,1.1064l-14.5478,8.3859a1.2813,1.2813,0,0,1-1.2769,0L263.79,125.8325a1.2754,1.2754,0,0,1-.64-1.1064V107.9276a1.282,1.282,0,0,1,.6386-1.1081l14.5478-8.4025a1.2789,1.2789,0,0,1,1.28,0l14.5478,8.4025a1.2826,1.2826,0,0,1,.6386,1.1081Z" fill="#333" fill-rule="evenodd"/><path d="M439.8252,107.488a5.1162,5.1162,0,0,0,2.546-4.4237V91.21a5.117,5.117,0,0,0-2.5477-4.4252L397.7243,62.3418a5.1162,5.1162,0,0,0-5.1269-.0068L350.241,86.7881a5.116,5.116,0,0,0-2.5578,4.43v48.9032a5.1141,5.1141,0,0,0,2.5843,4.4451L392.36,168.552a5.114,5.114,0,0,0,5.0172.0282l25.46-14.1514a2.5589,2.5589,0,0,0,.0316-4.455l-42.625-24.4647a2.5576,2.5576,0,0,1-1.2854-2.22V107.9639a2.5564,2.5564,0,0,1,1.28-2.2158L393.5047,98.1a2.5543,2.5543,0,0,1,2.5541,0l13.2726,7.648a2.5562,2.5562,0,0,1,1.28,2.2158v12.0582a2.5584,2.5584,0,0,0,3.8433,2.2128Z" fill="#333" fill-rule="evenodd"/><path d="M394.5363,105.1975a.9794.9794,0,0,1,.9821,0l8.13,4.69a.9827.9827,0,0,1,.4909.8509v9.388a.9828.9828,0,0,1-.4909.8509l-8.13,4.69a.9794.9794,0,0,1-.9821,0l-8.1239-4.69a.9828.9828,0,0,1-.4909-.8509v-9.388a.9827.9827,0,0,1,.4909-.8509Z" fill="#679e63" fill-rule="evenodd"/><path d="M165.8137,62.59a5.0871,5.0871,0,0,0-5.0873,0L118.5926,86.9045a5.0864,5.0864,0,0,0-2.5455,4.4076v48.666a5.0925,5.0925,0,0,0,2.5438,4.4076L160.7247,168.72a5.092,5.092,0,0,0,5.0907,0l42.124-24.3338a5.0928,5.0928,0,0,0,2.5435-4.4076V91.31a5.086,5.086,0,0,0-2.5452-4.4059Z" fill-rule="evenodd" fill="url(#a)"/><g clip-path="url(#c)"><path d="M160.6382,62.59l-42.222,24.3142a5.258,5.258,0,0,0-2.722,4.4076v48.666a4.9212,4.9212,0,0,0,1.3133,3.2382l47.44-81.1524A5.169,5.169,0,0,0,160.6382,62.59Z" fill="none"/><path d="M164.6818,169.212a5.071,5.071,0,0,0,1.1864-.4925l42.1768-24.3338a5.1942,5.1942,0,0,0,2.6492-4.4076V91.31a5.0281,5.0281,0,0,0-1.54-3.5341Z" fill="none"/><path d="M208.0213,86.9045,165.77,62.59a5.0619,5.0619,0,0,0-1.3224-.5264l-47.44,81.1524a5.8,5.8,0,0,0,1.42,1.1694L160.7511,168.72a5.14,5.14,0,0,0,3.9307.4925l44.4727-81.4357A5.5417,5.5417,0,0,0,208.0213,86.9045Z" fill="url(#d)"/><path d="M210.6942,139.9781V91.31a5.209,5.209,0,0,0-2.6729-4.4059L165.77,62.59a5.0656,5.0656,0,0,0-1.5508-.5709l46.3174,79.1281A4.6783,4.6783,0,0,0,210.6942,139.9781Z" fill="none"/><path d="M118.4162,86.9045a5.258,5.258,0,0,0-2.722,4.4076v48.666a5.2781,5.2781,0,0,0,2.7334,4.4076L160.7511,168.72a5.1328,5.1328,0,0,0,3.2564.6323L118.67,86.7581Z" fill="none"/><polygon points="159.321 53.652 158.742 53.983 159.515 53.983 159.321 53.652" fill="url(#e)"/><path d="M208.045,144.3857a5.3257,5.3257,0,0,0,2.4912-3.2382L164.2188,62.0194a5.1583,5.1583,0,0,0-3.5806.5709L118.67,86.7581l45.3372,82.5937a5.0945,5.0945,0,0,0,1.8607-.6323Z" fill="url(#f)"/><polygon points="211.973 143.603 211.694 143.126 211.694 143.765 211.973 143.603" fill="url(#g)"/><path d="M208.045,144.3857,165.8682,168.72a5.0945,5.0945,0,0,1-1.8607.6323l.84,1.53,46.8466-27.1176v-.6389l-1.158-1.9782A5.3257,5.3257,0,0,1,208.045,144.3857Z" fill="url(#h)"/><path d="M208.045,144.3857,165.8682,168.72a5.0945,5.0945,0,0,1-1.8607.6323l.84,1.53,46.8466-27.1176v-.6389l-1.158-1.9782A5.3257,5.3257,0,0,1,208.045,144.3857Z" fill="url(#i)"/></g></svg>