<svg xmlns="http://www.w3.org/2000/svg" xmlns:xlink="http://www.w3.org/1999/xlink" viewBox="0 0 94 109"><defs><linearGradient id="a" x1="0.1963" y1="54.803" x2="94.4002" y2="54.803" gradientUnits="userSpaceOnUse"><stop offset="0.0053"/><stop offset="0.1922" stop-color="#171717"/><stop offset="0.5414" stop-color="#3c3c3c"/><stop offset="0.8231" stop-color="#545454"/><stop offset="1" stop-color="#5c5c5c"/></linearGradient><clipPath id="b"><path d="M49.8407,1.8685a5.0749,5.0749,0,0,0-5.0748,0L2.7356,26.1231A5.0737,5.0737,0,0,0,.1963,30.52V79.0663a5.08,5.08,0,0,0,2.5376,4.3968l42.03,24.2741a5.08,5.08,0,0,0,5.0782,0L91.863,83.4631A5.08,5.08,0,0,0,94.4,79.0663V30.5182a5.0734,5.0734,0,0,0-2.5389-4.3951Z" fill="none" clip-rule="evenodd"/></clipPath><linearGradient id="c" x1="-0.455" y1="54.734" x2="96.7228" y2="54.734" gradientUnits="userSpaceOnUse"><stop offset="0" stop-color="#5c5c5c"/><stop offset="0.1769" stop-color="#545454"/><stop offset="0.4586" stop-color="#3c3c3c"/><stop offset="0.8078" stop-color="#171717"/><stop offset="0.9947"/></linearGradient></defs><title>nodejs-icon--monochrome</title><path d="M44.7558,1.8685a5.0749,5.0749,0,0,1,5.0748,0l42.03,24.2546A5.0737,5.0737,0,0,1,94.4,30.52V79.0663a5.08,5.08,0,0,1-2.5376,4.3968l-42.03,24.2741a5.08,5.08,0,0,1-5.0782,0L2.7335,83.4631A5.08,5.08,0,0,1,.1963,79.0663V30.5182a5.0734,5.0734,0,0,1,2.5389-4.3951Z" fill-rule="evenodd" fill="url(#a)"/><g clip-path="url(#b)"><path d="M44.7067,1.8685,2.6371,26.123A5.1676,5.1676,0,0,0,0,30.5181V79.0663a4.9966,4.9966,0,0,0,1.1823,3.1824L48.4789,1.3412A5.1185,5.1185,0,0,0,44.7067,1.8685Z" fill="none"/><path d="M48.7462,108.1651a5.0991,5.0991,0,0,0,.986-.4279l41.93-24.2741A4.9025,4.9025,0,0,0,94,79.0663V30.52a5.2652,5.2652,0,0,0-1.0659-3.2691Z" fill="none"/><path d="M91.6486,26.123,49.806,1.8685a5.0519,5.0519,0,0,0-1.3271-.5273L1.1823,82.2487A5.3336,5.3336,0,0,0,2.61,83.4631L44.704,107.7372a4.9726,4.9726,0,0,0,4.0422.4279L92.9341,27.2507A4.455,4.455,0,0,0,91.6486,26.123Z" fill="#b4b4b4" opacity="0.66"/><path d="M3.1139,25.8481l-.4768.2749A5.1676,5.1676,0,0,0,0,30.5181V79.0663a5.15,5.15,0,0,0,2.61,4.3968L44.704,107.7372a4.98,4.98,0,0,0,3.6562.5389Z" fill="none"/><path d="M94,30.52a4.9073,4.9073,0,0,0-2.3514-4.3968L49.806,1.8685A5.0485,5.0485,0,0,0,48.64,1.3828L94,78.876Z" fill="none"/><path d="M49.7322,107.7372l41.93-24.2741A4.9025,4.9025,0,0,0,94,79.0663v-.19L48.64,1.3828a5.12,5.12,0,0,0-3.9329.4857L3.1139,25.8481,48.36,108.2761A5.0731,5.0731,0,0,0,49.7322,107.7372Z" fill="url(#c)"/></g></svg>