<svg xmlns="http://www.w3.org/2000/svg" xmlns:xlink="http://www.w3.org/1999/xlink" viewBox="0 0 711.2012 383.5975"><defs><clipPath id="a"><path d="M10,191.7987c0,100.4038,154.7338,181.7988,345.6,181.7988h0c190.8662,0,345.6012-81.395,345.6012-181.7988h0C701.2012,91.3962,546.4662,10,355.6,10h0C164.7338,10,10,91.3962,10,191.7987" fill="none"/></clipPath><radialGradient id="b" cx="-154.6585" cy="704.2971" r="1" gradientTransform="matrix(453.8224, 0, 0, -453.8224, 70404.9666, 319699.682)" gradientUnits="userSpaceOnUse"><stop offset="0" stop-color="#b5b5b5"/><stop offset="0.3" stop-color="#b5b5b5"/><stop offset="0.75" stop-color="#525252"/><stop offset="1" stop-color="#525252"/></radialGradient><clipPath id="c"><rect x="-4.4" y="-10.7013" width="720" height="405" fill="none"/></clipPath></defs><title>php--monochrome</title><g clip-path="url(#a)"><path d="M10,191.7987c0,100.4038,154.7338,181.7988,345.6,181.7988h0c190.8662,0,345.6012-81.395,345.6012-181.7988h0C701.2012,91.3962,546.4662,10,355.6,10h0C164.7338,10,10,91.3962,10,191.7987" fill="url(#b)"/></g><g clip-path="url(#c)"><path d="M355.6,360.1c183.4113,0,332.1-75.3513,332.1-168.3013S539.0113,23.497,355.6,23.497,23.5,98.85,23.5,191.7982,172.1887,360.1,355.6,360.1" fill="gray"/></g><g clip-path="url(#c)"><path d="M197.768,212.6655c15.0813,0,26.34-2.7813,33.4638-8.2638,7.0475-5.4262,11.915-14.8275,14.4662-27.9412,2.3788-12.2575,1.4725-20.8163-2.6925-25.435-4.2587-4.7175-13.4662-7.11-27.3662-7.11H191.538l-13.3612,68.75ZM118.9393,297.353a3.75,3.75,0,0,1-3.68-4.465l35.41-182.1888a3.7505,3.7505,0,0,1,3.6812-3.0337H230.668c23.985,0,41.8375,6.5125,53.0588,19.3587,11.2812,12.9138,14.765,30.965,10.3537,53.6513a82.906,82.906,0,0,1-26.065,46.6737,74.0909,74.0909,0,0,1-27.795,16.655c-10.0037,3.2588-22.8512,4.9113-38.185,4.9113H171.133l-8.825,45.4025a3.7491,3.7491,0,0,1-3.68,3.035Z"/><path d="M194.63,147.6649h21.01c16.7763,0,22.6038,3.6812,24.5838,5.875,3.2849,3.6425,3.905,11.3225,1.7937,22.2087-2.3725,12.1875-6.77,20.8288-13.0725,25.6813-6.4525,4.9675-16.9425,7.485-31.1762,7.485H182.7258Zm36.0388-43.75H154.35a7.5,7.5,0,0,0-7.3612,6.0687l-35.41,182.1888a7.4973,7.4973,0,0,0,7.3612,8.93H158.627a7.5,7.5,0,0,0,7.3625-6.0688l8.235-42.3687h27.8113c15.7275,0,28.9675-1.715,39.3487-5.0963a77.8346,77.8346,0,0,0,29.1925-17.48A86.6548,86.6548,0,0,0,297.762,181.39c4.6438-23.88.8713-43.0025-11.2112-56.8325-11.965-13.6975-30.7675-20.6425-55.8825-20.6425m-57.0413,112.5h24.1413q24.0018,0,35.7512-9.0425,11.7488-9.045,15.86-30.1963,3.9394-20.31-3.5887-28.6612-7.5375-8.3495-30.1513-8.35H188.447l-14.82,76.25m57.0413-105q34.4381,0,50.2349,18.0762Q296.6927,147.568,290.4,179.96a79.1549,79.1549,0,0,1-24.9212,44.6287,70.0987,70.0987,0,0,1-26.4163,15.8488q-14.5312,4.7343-37.0262,4.7275h-33.995l-9.4138,48.4375H118.94l35.41-182.1875h76.3187" fill="#fff"/><path d="M385.0788,248.9155a3.7519,3.7519,0,0,1-3.6813-4.465l15.6638-80.6113c1.49-7.6662,1.1225-13.1687-1.0338-15.4937-1.32-1.4213-5.285-3.805-17.0087-3.805H350.6413l-19.6938,101.34a3.75,3.75,0,0,1-3.6812,3.035h-39.375a3.75,3.75,0,0,1-3.6813-4.465L319.62,62.2617a3.7506,3.7506,0,0,1,3.6813-3.0337h39.375a3.7487,3.7487,0,0,1,3.6812,4.465l-8.545,43.9725H388.34c23.2563,0,39.0263,4.1,48.2113,12.535,9.3625,8.605,12.2837,22.3637,8.6837,40.8987L428.76,245.8805a3.7494,3.7494,0,0,1-3.6812,3.035Z"/><path d="M362.6764,55.4774h-39.375a7.5,7.5,0,0,0-7.3625,6.0687l-35.41,182.1888a7.499,7.499,0,0,0,7.3625,8.93h39.375a7.501,7.501,0,0,0,7.3625-6.0688L353.7326,148.29h25.2863c11.7037,0,14.16,2.5,14.2587,2.6075.71.7637,1.6438,4.3012.1025,12.2262l-15.6637,80.6113a7.499,7.499,0,0,0,7.3625,8.93h40a7.501,7.501,0,0,0,7.3625-6.0688l16.4737-84.7812c3.8663-19.9013.5588-34.83-9.8262-44.375-9.91-9.1013-26.51-13.525-50.7488-13.525H362.36l7.6788-39.5063a7.5007,7.5007,0,0,0-7.3625-8.9312m0,7.5-9.4138,48.4375H388.34q33.1069,0,45.6738,11.5475,12.5681,11.55,7.54,37.4225l-16.475,84.78h-40l15.6637-80.61q2.6738-13.755-1.9675-18.76-4.6443-5.0025-19.7562-5.005h-31.47l-20.2825,104.375h-39.375l35.41-182.1875h39.375" fill="#fff"/><path d="M507.5373,212.6655c15.0812,0,26.34-2.7813,33.4637-8.2638,7.0475-5.425,11.915-14.8262,14.4675-27.9412,2.3788-12.2575,1.4725-20.8163-2.6937-25.435-4.2588-4.7175-13.4663-7.11-27.3663-7.11H501.3073l-13.3613,68.75ZM428.71,297.353a3.7519,3.7519,0,0,1-3.6813-4.465l35.41-182.1888a3.752,3.752,0,0,1,3.6825-3.0337h76.3163c23.9862,0,41.8375,6.5125,53.06,19.3587,11.2812,12.9125,14.7637,30.9638,10.3537,53.6513a82.9185,82.9185,0,0,1-26.0662,46.6737,74.0909,74.0909,0,0,1-27.795,16.655c-10.0038,3.2588-22.8513,4.9113-38.185,4.9113H480.901L472.08,294.318a3.7519,3.7519,0,0,1-3.6825,3.035Z"/><path d="M504.3989,147.6649h21.01c16.7762,0,22.6037,3.6812,24.5837,5.875,3.2863,3.6425,3.9063,11.3225,1.7938,22.2075-2.3725,12.1887-6.7713,20.83-13.0725,25.6825-6.4525,4.9675-16.9425,7.485-31.1763,7.485H492.4964Zm36.0387-43.75H464.12a7.5,7.5,0,0,0-7.3612,6.0687l-35.41,182.1888a7.4973,7.4973,0,0,0,7.3612,8.93h39.6875a7.501,7.501,0,0,0,7.3625-6.0688l8.2338-42.3687h27.8112c15.7275,0,28.9675-1.715,39.3488-5.0963a77.835,77.835,0,0,0,29.195-17.4825A86.6531,86.6531,0,0,0,607.5314,181.39c4.6437-23.8813.8712-43.0038-11.2113-56.8338-11.965-13.6962-30.7662-20.6412-55.8825-20.6412m-57.04,112.5h24.14q24.0019,0,35.7513-9.0425,11.7505-9.045,15.86-30.1963,3.9412-20.31-3.5888-28.6612-7.5375-8.3495-30.1512-8.35H498.2164l-14.8188,76.25m57.04-105q34.4382,0,50.235,18.0762,15.7913,18.0769,9.4963,50.4688a79.1558,79.1558,0,0,1-24.9213,44.6287,70.0983,70.0983,0,0,1-26.4162,15.8488q-14.5312,4.7343-37.0263,4.7275H477.81l-9.4125,48.4375H428.71l35.41-182.1875h76.3175" fill="#fff"/></g></svg>