<svg xmlns="http://www.w3.org/2000/svg" viewBox="0 0 100 50"><title>php-alt</title><path d="M7.579,11.123H21.783q6.2535.0525,9.063,3.604t1.855,9.699a18.603,18.603,0,0,1-1.643,5.512,16.385,16.385,0,0,1-3.392,4.876,11.8394,11.8394,0,0,1-5.671,3.498,26.11,26.11,0,0,1-6.254.742H9.381L7.367,49.124H0L7.579,11.123h0m6.201,6.042-3.18,15.9a3.899,3.899,0,0,0,.636.053h.742a27.869,27.869,0,0,0,8.48-1.007q3.3915-1.113,4.558-7.738.954-5.565-1.908-6.413a23.7825,23.7825,0,0,0-7.049-.795q-.636.0525-1.219.053H13.727l.053-.053"/><path d="M41.093,1h7.314L46.34,11.123h6.572q5.406.1065,8.056,2.226,2.703,2.12,1.59,8.056L59.007,39.054h-7.42L54.979,22.2q.5295-2.65-.318-3.763t-3.657-1.113l-5.883-.053L40.775,39.054H33.461L41.093,1h0"/><path d="M70.412,11.123H84.616q6.2535.0525,9.063,3.604t1.855,9.699a18.603,18.603,0,0,1-1.643,5.512,16.385,16.385,0,0,1-3.392,4.876,11.8394,11.8394,0,0,1-5.671,3.498,26.11,26.11,0,0,1-6.254.742h-6.36L70.2,49.124H62.833l7.579-38.001h0m6.201,6.042-3.18,15.9a3.899,3.899,0,0,0,.636.053h.742a27.869,27.869,0,0,0,8.48-1.007q3.3915-1.113,4.558-7.738.954-5.565-1.908-6.413a23.7825,23.7825,0,0,0-7.049-.795q-.636.0525-1.219.053H76.56l.053-.053"/></svg>