<svg xmlns="http://www.w3.org/2000/svg" viewBox="0 0 487.034 97.3388"><title>reebok</title><path d="M408.73,68.9062,426.8164,37.72,429.1785.0056,425.1245,0,375.0307,86.3561l2.1163,3.6463Zm4.2829,7.3094-33.9952,16.992,2.1,3.6575,99.8135.1843,2.0158-3.49-34.079-17.31ZM437.2864.0223l-4.35-.0167,2.15,37.72L453.05,69.0179,484.8,90.3654l2.2336-3.8083Z" fill="#d01931"/><path d="M295.8018,60.55l-.0112,12.8711c-.0279,15.0544-10.3527,23.4917-24.7593,23.8994h-3.1159c-14.4178-.5975-24.642-9.0237-24.6141-23.9832V60.4661c.05-15.0879,10.375-23.4583,24.8487-23.8715.7315-.0112,2.15,0,2.8645,0,14.5239.4635,24.8264,8.9846,24.7873,23.9552M268.552,49.086c-5.6789.3127-11.1344,3.2442-11.1568,11.4359v12.899c-.0223,7.879,5.4221,11.0507,11.1066,11.3969.29.0335,1.72.0335,2.0325.0167,5.5728-.3127,11.0954-3.3392,11.1065-11.38l.0168-12.9046c.0279-8.1023-5.5-11.1344-11.1624-11.4638a12.5268,12.5268,0,0,0-1.9432,0" fill="#2b2c2b"/><path d="M317.5078,62.12s21.1633-24.0836,22.4252-25.4238l17.69.0447L331.9089,65.7943l26.9817,29.9245-17.9245-.0279L317.4855,69.58l-.0447,26.0716-14.2335-.028.134-73.3566,14.2224.0224Z" fill="#2b2c2b"/><path d="M116.259,70.6914l.0279-10.3806c.0391-15.0823-10.4979-23.5252-24.9324-24.0166l-2.7194-.0168c-14.5295.4523-24.86,8.8506-24.871,23.9218l-.0279,12.804c-.0279,14.362,10.6654,23.28,24.4857,24,1.4686.0279,2.2336-.0112,3.2219,0,17.3047.0279,23.7766-8.7389,24.57-18.7677l-13.0218-.0335c-.3462,1.8985-.9884,6.7678-11.8939,6.7566a24.227,24.227,0,0,1-6.4718-1.1168C76.54,81.1335,77.83,71.1549,77.83,70.6077Zm-38.44-11.4527c0-7.7561,5.154-10.777,11.2629-11.0171.6533-.0168,1.3178-.0335,1.893.0111,6.1926.2569,11.3745,3.5291,11.3578,11.0619v.9995l-24.536-.0223Z" fill="#2b2c2b"/><path d="M175.8869,70.7791l.0223-10.3583c.0391-15.0823-10.509-23.5252-24.9548-24.039h-2.697c-14.5518.4467-24.91,8.8506-24.9324,23.9162l-.0168,12.8152c-.0279,14.334,10.6542,23.2907,24.4969,24,1.5077.0279,2.2392,0,3.2387,0,17.3326.0279,23.76-8.7613,24.5583-18.7622l-12.9492-.05c-.4244,1.9041-1.0107,6.7678-11.9832,6.751a23.2184,23.2184,0,0,1-6.3993-1.1224c-8.1581-2.6914-6.818-12.6756-6.8292-13.2116ZM137.4022,59.36c.0223-7.7785,5.1986-10.805,11.2628-11.034.6366-.0223,1.329-.0111,1.9265.0168,6.17.2457,11.3578,3.5235,11.341,11.0451v1.0051l-24.5471-.0335Z" fill="#2b2c2b"/><path d="M211.3023,36.5985c-6.5946-.0167-11.1121,1.7813-13.5969,3.9088l.0167-18.4327-14.1274-.0223-.1173,73.3566h2.4681s6.2764-3.5123,6.617-3.63c.91.966,7.0973,5.5058,15.6519,5.5058,1.0889.0112,2.094.0949,3.1549.0279,14.295-.2959,24.6533-9.1689,24.6868-23.8994l.0111-12.7984c.028-14.4067-10.3526-24.0055-24.7649-24.0167m10.6152,36.8654c-.0056,8.03-5.584,11.0507-11.1345,11.4136-.29,0-1.7645-.0111-2.027-.0279-5.6733-.38-11.1176-3.5067-11.1176-11.408l.0335-12.8934c.0111-8.22,5.4778-11.101,11.1344-11.4751a10.2855,10.2855,0,0,1,1.9879.0056c5.6063.3853,11.1512,3.3448,11.14,11.5086Z" fill="#2b2c2b"/><path d="M61.9485,95.1939,34.7937,64.9009c1.3513.0781,2.6915.134,4.0651.134,9.3309.0112,20.9455-5.8743,20.9623-20.817.05-17.919-14.8255-22.4029-28.0092-22.4141L.1508,21.7256,0,95.0766l14.3452.0335V62.3713L43.7727,95.16ZM14.4346,34.2951l17.2042.05c7.946,0,14.9762,2.5184,14.9762,10.0735C46.5926,51.9963,42.2036,54.71,31.6,54.66l-17.21-.0112Z" fill="#2b2c2b"/></svg>