<svg xmlns="http://www.w3.org/2000/svg" viewBox="0 0 63.9054 64"><title>responsive-design</title><path d="M36,62H33.8l-1.3-4.1H19.3L18,62H15.8a1.0754,1.0754,0,0,0-1,1,1.0021,1.0021,0,0,0,1,1H36a.9448.9448,0,0,0,1-1A1.0021,1.0021,0,0,0,36,62Z"/><path d="M49.7,47.5H2V18.9a1.7524,1.7524,0,0,1,1.7-1.7H35.1v-2H18.5a8.0088,8.0088,0,0,1,8-7h3.4L28.4,9.7a.99.99,0,0,0,1.4,1.4L33,7.9a.9667.9667,0,0,0,0-1.4L29.8,3.3a.99.99,0,0,0-1.4,1.4l1.5,1.5H26.5a10.08,10.08,0,0,0-10,9H3.7A3.7571,3.7571,0,0,0,0,18.9V52.1a3.6914,3.6914,0,0,0,3.7,3.7H48a3.7571,3.7571,0,0,0,3.7-3.7V38.6h-2Z"/><path d="M61.1,0H40a2.9021,2.9021,0,0,0-2.9,2.9V33.6A2.9021,2.9021,0,0,0,40,36.5H61a2.9021,2.9021,0,0,0,2.9-2.9V2.9A2.7581,2.7581,0,0,0,61.1,0ZM62,33.6a.8963.8963,0,0,1-.9.9H40a.8963.8963,0,0,1-.9-.9V2.9A.8963.8963,0,0,1,40,2H61a.9234.9234,0,0,1,1,.9Z"/><path d="M58.2,4.8H42.9a.9448.9448,0,0,0-1,1V27.1a.9448.9448,0,0,0,1,1H58.1a1.0021,1.0021,0,0,0,1-1V5.8A.9192.9192,0,0,0,58.2,4.8Z"/><path d="M51.9,30.4H49.3a1,1,0,0,0,0,2h2.6a.9448.9448,0,0,0,1-1A1.0021,1.0021,0,0,0,51.9,30.4Z"/><path d="M6,32.4H28.5a1.0021,1.0021,0,0,0,1-1V21.1a.9448.9448,0,0,0-1-1H6a1.0021,1.0021,0,0,0-1,1V31.4A1.0754,1.0754,0,0,0,6,32.4Zm17.1-6.9a.99.99,0,1,1,0,1.4A1.0646,1.0646,0,0,1,23.1,25.5Zm-4.3,0a.99.99,0,1,1,0,1.4A.9667.9667,0,0,1,18.8,25.5Zm-4.4,0a.99.99,0,1,1,0,1.4A.9651.9651,0,0,1,14.4,25.5Zm-4.3,0a.9667.9667,0,0,1,1.4,0,.9078.9078,0,0,1,.3.7,1,1,0,0,1-2,0A1.08,1.08,0,0,1,10.1,25.5Z"/><path d="M6,38.1H28.5a1,1,0,0,0,0-2H6a.9448.9448,0,0,0-1,1A1.0021,1.0021,0,0,0,6,38.1Z"/><path d="M5.9,43.8H45.8a1,1,0,0,0,0-2H5.9a.9448.9448,0,0,0-1,1A1.0754,1.0754,0,0,0,5.9,43.8Z"/></svg>