<?xml version="1.0" encoding="utf-8"?>
<!-- Generator: Adobe Illustrator 22.1.0, SVG Export Plug-In . SVG Version: 6.00 Build 0)  -->
<svg version="1.1" id="Layer_1" xmlns="http://www.w3.org/2000/svg" xmlns:xlink="http://www.w3.org/1999/xlink" x="0px" y="0px"
	 viewBox="0 0 655.6 83" style="enable-background:new 0 0 655.6 83;" xml:space="preserve">
<style type="text/css">
	.st0{fill:#001E62;}
	.st1{fill:#3EC1D1;}
</style>
<title>Artboard 1 copy 2</title>
<path class="st0" d="M25.7,58.5c-4.7,0-7-3.6-5.8-7.8C22.3,42,38,29.2,48.7,29.2c7.8,0,7.2,7,2.6,12.9l-2.5,2.8
	C39.7,53.7,31.3,58.5,25.7,58.5L25.7,58.5z M63.8,0C50.2,0,35.2,8.4,25.8,16.2l0.7,1.1C41.1,7.1,61.5,0.4,67,10.4
	c3,5.3-2.1,15.9-9.1,24.4c1.7-3.7,0.6-10.9-9.3-10.9C32.2,23.9,0,45.6,0,67.8c0,8.9,6.2,14.7,16.3,14.7c27.2,0,64.1-44.6,64.1-67
	C80.5,7.6,75.9,0.1,63.8,0L63.8,0z"/>
<path class="st1" d="M135,54.4h-25.8v14.3H97.3v-45h43.3c7.1,0,12.7,1.3,16.7,4c3.9,2.5,6.2,6.8,6,11.3c0.1,3.5-1.2,6.9-3.7,9.4
	c-2.5,2.5-6,4.2-10.5,5.2l15.5,15.1h-15.3L135,54.4z M109.2,45.2h30.2c2.7,0.1,5.5-0.4,8-1.5c2.6-1.1,3.7-4.1,2.6-6.7
	c-0.5-1.1-1.4-2.1-2.6-2.6c-2.5-1.1-5.3-1.5-8-1.4h-30.2L109.2,45.2z"/>
<path class="st1" d="M181.7,67.7c-3.7-1.4-6.9-3.8-9.2-7c-2.2-3.1-3.3-6.9-3.2-10.7V33h12v17c0,2.1,0.6,4.1,1.8,5.8
	c1.3,1.7,3,3.1,5.1,3.9c2.3,0.9,4.8,1.4,7.3,1.4c2.6,0,5.1-0.4,7.5-1.4c2-0.8,3.8-2.1,5.2-3.9c1.2-1.7,1.9-3.7,1.9-5.8V33h12v17
	c0.1,3.8-1,7.6-3.2,10.7c-2.3,3.2-5.5,5.6-9.2,7C200.7,71,190.8,71,181.7,67.7L181.7,67.7z"/>
<path class="st1" d="M272.5,33.8c7.1,2.9,11.6,9.9,11.3,17.5v17.4h-12V53.2c0-2.3-0.6-4.5-1.7-6.5c-1.1-1.9-2.8-3.4-4.7-4.4
	c-2.1-1.1-4.5-1.6-6.9-1.6c-2.8,0-5.6,0.5-8.2,1.5c-2.3,0.9-4.3,2.5-5.8,4.5c-1.5,2.1-2.2,4.6-2.1,7.2v14.9h-11.9V33h11.4v7.8
	c1.9-2.9,4.5-5.3,7.6-6.8c3.6-1.7,7.6-2.6,11.5-2.5C265,31.5,268.9,32.2,272.5,33.8z"/>
<path class="st1" d="M314.4,54.7l-9.1,6v8h-11.9v-50h11.9v30.6L329,33h17.9l-23.4,15.6l23.9,20H331L314.4,54.7z"/>
<path class="st1" d="M363.7,67.8c-3.9-1.3-7.4-3.7-10.1-6.8c-2.3-2.9-3.6-6.4-3.5-10.1c0-3.6,1.2-7.1,3.5-9.9
	c2.5-3.1,5.8-5.5,9.6-6.9c4.3-1.7,9-2.5,13.6-2.5c4.6-0.1,9.3,0.8,13.6,2.4c3.8,1.4,7,3.9,9.5,7.1c2.3,3.2,3.5,7.1,3.5,11.1v2
	l-41.2,0c0.7,2.4,2.7,4.3,5.9,5.6c3.8,1.4,7.8,2,11.8,1.9c3.5,0,7-0.2,10.5-0.8c3.1-0.5,6.6-1.3,10.5-2.3v8.7
	c-3.7,1-7.2,1.7-10.4,2.2c-3.6,0.6-7.3,0.8-11,0.8C373.9,70.3,368.7,69.5,363.7,67.8z M390.7,47.3c-0.7-2.5-2.4-4.6-4.7-5.7
	c-2.9-1.5-6.1-2.3-9.3-2.2c-3.4-0.1-6.7,0.6-9.7,2.1c-2.4,1.1-4.2,3.2-4.9,5.8L390.7,47.3z"/>
<path class="st1" d="M423.4,67.8c-3.9-1.3-7.4-3.7-10.1-6.8c-2.3-2.9-3.5-6.4-3.5-10.1c0-3.6,1.2-7.1,3.5-9.9
	c2.5-3.1,5.8-5.5,9.6-6.9c8.8-3.3,18.4-3.3,27.2-0.1c3.8,1.4,7,3.9,9.5,7.1c2.3,3.2,3.5,7.1,3.5,11.1v2L421.7,54
	c0.7,2.4,2.7,4.3,5.9,5.6c3.8,1.4,7.8,2,11.8,1.9c3.5,0,7-0.2,10.5-0.8c3.1-0.5,6.6-1.3,10.5-2.3v8.7c-3.7,1-7.2,1.7-10.4,2.3
	c-3.6,0.6-7.3,0.8-11,0.8C433.7,70.3,428.4,69.5,423.4,67.8z M450.4,47.3c-0.7-2.5-2.4-4.6-4.6-5.7c-2.9-1.5-6.1-2.3-9.3-2.2
	c-3.4-0.1-6.7,0.6-9.7,2.1c-2.4,1.1-4.2,3.2-4.9,5.8H450.4z"/>
<path class="st1" d="M514.1,34c3.6,1.4,6.8,3.8,9.2,6.8c4.4,6,4.4,14.2,0,20.2c-2.4,3.1-5.5,5.4-9.2,6.8c-4.2,1.7-8.6,2.5-13.1,2.4
	c-3.5,0-7.1-0.5-10.4-1.6c-2.8-0.8-5.5-2.3-7.7-4.3V83h-12V33h11.9v4.5c2.2-2,4.8-3.5,7.7-4.4c3.4-1.1,7-1.7,10.6-1.6
	C505.5,31.5,509.9,32.3,514.1,34z M490.7,41.5c-2.3,0.7-4.3,1.9-6,3.6c-1.5,1.5-2.3,3.6-2.3,5.8c0,2.2,0.8,4.3,2.3,5.8
	c1.7,1.7,3.7,2.9,6,3.6c2.6,0.8,5.3,1.2,8,1.2c2.8,0.1,5.6-0.4,8.2-1.3c2.1-0.7,3.9-2,5.3-3.7c2.5-3.3,2.5-7.7,0-11
	c-1.4-1.7-3.3-3-5.3-3.7c-2.6-0.9-5.4-1.4-8.2-1.3C496,40.3,493.3,40.7,490.7,41.5L490.7,41.5z"/>
<path class="st1" d="M546.5,67.8c-3.9-1.3-7.4-3.7-10.1-6.8c-2.3-2.9-3.5-6.4-3.5-10.1c0-3.6,1.2-7.1,3.5-9.9
	c2.5-3.1,5.8-5.5,9.6-6.9c4.3-1.7,9-2.5,13.7-2.5c4.6-0.1,9.3,0.8,13.6,2.4c3.8,1.4,7,3.9,9.5,7.1c2.3,3.2,3.5,7.1,3.5,11.1v2
	L544.9,54c0.7,2.4,2.7,4.3,5.9,5.6c3.8,1.4,7.8,2,11.8,1.9c3.5,0,7-0.2,10.5-0.8c3.1-0.5,6.6-1.3,10.5-2.3v8.7
	c-3.7,1-7.2,1.7-10.4,2.2c-3.6,0.6-7.3,0.8-11,0.8C556.8,70.3,551.5,69.5,546.5,67.8z M573.5,47.3c-0.7-2.5-2.4-4.6-4.7-5.7
	c-2.9-1.5-6.1-2.3-9.3-2.2c-3.4-0.1-6.7,0.6-9.7,2.1c-2.4,1.1-4.2,3.2-4.9,5.8H573.5z"/>
<path class="st1" d="M594.6,33h11.8v8.9c1.7-3.1,4.7-5.5,9-7.5c4.8-2,10.1-3,15.3-2.9v9.9c-3.7-0.1-7.4,0.4-11,1.4
	c-3.4,0.8-6.7,2.5-9.4,4.7c-2.4,2-3.8,4.9-3.8,8.1v13.1h-11.9V33z"/>
<path class="st1" d="M635.7,33.8c0-5.5,4.4-10,9.8-10s10,4.4,10,9.8c0,5.5-4.4,10-9.8,10c0,0-0.1,0-0.1,0c-5.4,0.1-9.8-4.2-9.9-9.6
	C635.7,34,635.7,33.9,635.7,33.8z M653.7,33.8c0-4.5-3.6-8.1-8.1-8.1s-8.1,3.6-8.1,8.1l0,0c0,4.5,3.6,8.1,8.1,8.1
	S653.7,38.3,653.7,33.8z M642.2,28.9h3.4c2.3,0,3.8,0.9,3.8,3l0,0c0.1,1.2-0.8,2.4-2,2.6l2.6,4.2h-2.2l-2.4-3.8h-1v3.8h-2.1
	L642.2,28.9z M645.6,33.4c1.1,0,1.7-0.5,1.7-1.4l0,0c0-1-0.6-1.4-1.7-1.4h-1.2v2.9L645.6,33.4z"/>
</svg>
