<svg xmlns="http://www.w3.org/2000/svg" viewBox="0 0 547.7712 410.5949"><title>Artboard 1</title><path d="M471.4169,235.9906A112.6316,112.6316,0,0,0,421.79,247.5394c-5.084-10.1465-10.2286-19.0723-11.0928-25.709-1.0088-7.748-2.1787-12.37-.96-21.6s6.5586-22.3008,6.4805-23.28-1.1973-5.6806-12.24-5.76-20.4883,2.124-21.6,5.04a108.9424,108.9424,0,0,0-4.56,16.32c-1.9347,10.0132-22.047,45.7227-33.4679,64.4053-3.7343-7.291-6.91-13.7207-7.5721-18.8047-1.0089-7.748-2.1788-12.37-.96-21.6006s6.5585-22.3008,6.48-23.28-1.1973-5.68-12.24-5.76-20.4881,2.124-21.6,5.04-2.2988,9.7285-4.56,16.32-28.998,66.16-36,81.6006c-3.5684,7.8672-6.6734,14.1865-8.8653,18.5039l-.0146-.0244s-.1343.2871-.3671.7725c-1.8766,3.6738-2.9933,5.707-2.9933,5.707l.0328.0762c-1.4883,2.6982-3.083,5.2041-3.8725,5.2041-.5523,0-1.6578-7.1826.24-17.04,3.9781-20.664,13.5357-52.8906,13.44-54-.0493-.5693,1.7769-6.1845-6.24-9.12-7.7928-2.8525-10.5683,1.9053-11.28,1.92-.6885.0147-1.2,1.6807-1.2,1.6807s8.682-36.24-16.56-36.24c-15.7812,0-37.6478,17.2637-48.42,32.9111-6.7974,3.708-21.3447,11.6494-36.7793,20.1289-5.9277,3.2569-11.9766,6.585-17.7129,9.7451-.39-.4316-.7782-.8642-1.18-1.2929-30.6074-32.6543-87.1884-55.752-84.7875-99.6524.8726-15.96,6.42-57.9844,108.72-108.96,83.8009-41.7579,150.8869-30.2671,162.4805-4.8C329.1,92.3734,276.6835,159.9954,189.6571,169.75c-33.1577,3.7168-50.6171-9.1338-54.96-13.92-4.5713-5.0386-5.2528-5.2656-6.96-4.32-2.7807,1.5405-1.0185,5.9892,0,8.64,2.5987,6.7627,13.2608,18.7544,31.44,24.72,15.9917,5.2476,54.9214,8.13,102-10.08,52.73-20.396,93.9038-77.1348,81.81-124.56-12.2988-48.2349-92.2763-64.0918-167.97-37.2-45.0483,16.0044-93.8159,41.1226-128.88,73.92C4.4463,125.9466-2.2021,159.888.5371,174.07,10.271,224.4613,79.726,257.2757,107.5385,281.596c-1.3726.7569-2.66,1.4678-3.8306,2.1143-13.9443,6.8974-66.8876,34.6045-80.1307,63.88-15.0215,33.207,2.3916,57.0322,13.92,60.24,35.7186,9.9385,72.372-7.9385,92.07-37.3193,19.6937-29.3741,17.2885-67.6221,8.25-85.0811-.1124-.2168-.2364-.4287-.3517-.6445,3.6007-2.1309,7.2725-4.2979,10.9117-6.4346,7.0966-4.167,14.0625-8.0547,20.1088-11.3447-3.3818,9.2685-5.86,20.3789-7.1488,36.4238-1.5142,18.85,6.21,43.2149,16.32,52.8008,4.4513,4.22,9.8063,4.3193,13.2,4.3193,11.7626,0,17.13-9.7861,23.04-21.36,7.2485-14.1953,13.68-30.72,13.68-30.72s-8.0723,44.64,13.92,44.64c8.0132,0,16.0747-10.3906,19.6645-15.6885l.0152.0889s.2085-.3447.6167-1.0371c.8325-1.2725,1.3032-2.0821,1.3032-2.0821s.0161-.0839.042-.23c3.2213-5.5928,10.3647-18.3438,21.0786-39.37,13.8418-27.167,27.1191-61.2,27.1191-61.2a181.9579,181.9579,0,0,0,5.28,22.08c2.38,8.0957,7.4356,17.045,11.4248,25.627-3.2109,4.4551-5.1845,7.0137-5.1845,7.0137s.0185.0468.0537.1328c-2.5665,3.4062-5.4434,7.082-8.4532,10.666-10.9248,13.0127-23.9375,27.8711-25.68,32.16-2.0529,5.0527-1.5675,8.77,2.3993,11.76,2.8984,2.1846,8.0577,2.5235,13.44,2.16a61.2626,61.2626,0,0,0,20.1338-4.5781,67.7473,67.7473,0,0,0,17.3066-9.1016c10.7179-7.8789,17.1817-19.15,16.5606-34.08-.3437-8.2285-2.9677-16.3828-6.2871-24.082q1.4589-2.0978,2.9258-4.2383a457.3914,457.3914,0,0,0,30-51.84,181.8563,181.8563,0,0,0,5.2812,22.08c2.0469,6.9649,6.0859,14.5625,9.7178,22.0137C384.37,274.2718,374.5175,289.27,371.0966,299.11c-6.3242,18.1973-1.3711,26.4434,7.9209,28.32,4.209.8506,10.1533-1.0781,14.625-2.9707a67.7767,67.7767,0,0,0,18.4951-9.5088c10.7178-7.8789,21.0215-18.9111,20.4-33.8408a63.5154,63.5154,0,0,0-4.6279-20.0234c13.4658-5.6094,30.9013-8.7286,53.1074-6.1358,47.6406,5.5635,56.9863,35.31,55.2,47.76s-11.7793,19.2939-15.1211,21.36c-3.34,2.0664-4.3594,2.7832-4.0791,4.32.4062,2.2344,1.9512,2.1485,4.8,1.668,3.9218-.6621,25.0165-10.1269,25.92-33.1084C548.8837,267.7747,520.9306,235.7269,471.4169,235.9906Zm-367.21,123.7988c-15.78,17.2148-37.826,23.7207-47.28,18.24-10.208-5.9189-6.1651-31.2627,13.2-49.53,11.8032-11.1337,27.04-21.3876,37.1479-27.7031,2.3-1.3847,5.68-3.417,9.7871-5.8779.6807-.3887,1.065-.6035,1.065-.6035l-.0152-.0254c.793-.4746,1.605-.961,2.4444-1.4629C127.602,318.8294,120.77,341.721,104.2069,359.7894Zm114.96-78.1524c-5.4955,13.3985-16.999,47.6778-24,45.8409-6.01-1.5772-9.67-27.6348-1.2-53.28,4.2632-12.9082,13.37-28.334,18.72-34.32,8.6128-9.6348,18.0957-12.7852,20.4-8.8789C236.0238,235.9749,222.6132,273.2376,219.1669,281.637Zm94.9785,45.3184c-2.33,1.2188-4.4668,1.9844-5.459,1.3936-.7285-.4346.961-2.04.961-2.04s11.8808-12.78,16.56-18.6c2.7217-3.3848,5.878-7.4014,9.3175-11.8945.0273.4492.043.8945.043,1.334C335.5321,312.4613,320.7411,322.7992,314.1454,326.9554Zm73.168-16.68c-1.7383-1.2363-1.4492-5.2344,4.2666-17.6865a66.7886,66.7886,0,0,1,16.2646-20.9863,30.2457,30.2457,0,0,1,1.6426,9.2255C409.372,300.0941,395.6259,307.2894,387.3134,310.2757Z" fill="#cd6799"/></svg>