<?xml version="1.0" encoding="UTF-8" standalone="no"?>
<svg
   xmlns:osb="http://www.openswatchbook.org/uri/2009/osb"
   xmlns:dc="http://purl.org/dc/elements/1.1/"
   xmlns:cc="http://creativecommons.org/ns#"
   xmlns:rdf="http://www.w3.org/1999/02/22-rdf-syntax-ns#"
   xmlns:svg="http://www.w3.org/2000/svg"
   xmlns="http://www.w3.org/2000/svg"
   version="1.1"
   x="0px"
   y="0px"
   viewBox="0 0 30 31.485002"
   enable-background="new 0 0 30 31.486"
   xml:space="preserve"
   id="svg40"
   width="30"
   height="31.485001"><metadata
     id="metadata46"><rdf:RDF><cc:Work
         rdf:about=""><dc:format>image/svg+xml</dc:format><dc:type
           rdf:resource="http://purl.org/dc/dcmitype/StillImage" /><dc:title></dc:title></cc:Work></rdf:RDF></metadata><defs
     id="defs44"><linearGradient
       osb:paint="solid"
       id="linearGradient882"><stop
         id="stop880"
         offset="0"
         style="stop-color:#000000;stop-opacity:1;" /></linearGradient></defs><g
     id="layer3"><rect
       y="-3.8146973e-07"
       x="-2.6645353e-15"
       height="25.098"
       width="30"
       id="rect856"
       style="opacity:0.66399997;fill:#ffffff;fill-opacity:1;stroke:none;stroke-width:1.6976769;stroke-opacity:1" /></g><g
     id="layer4"><rect
       y="0"
       x="0"
       height="4.6026802"
       width="30.15089"
       id="rect2321"
       style="opacity:0.66399997;fill:#cccccc;fill-opacity:1;stroke:none;stroke-opacity:1" /></g><g
     style="display:inline"
     id="layer5" /><g
     id="layer6"><rect
       ry="10.058558"
       y="11.367884"
       x="4.9054637"
       height="20.117115"
       width="20.164286"
       id="rect6162"
       style="display:inline;opacity:0.66399997;fill:#ffffff;fill-opacity:1;stroke:none;stroke-width:1.00707483;stroke-opacity:1" /></g><g
     style="display:inline"
     id="layer1"><path
       d="m 0,0 v 3.615 1.083 20.4 H 2.952 V 24.014 H 1.085 V 4.7 H 28.916 V 24.016 H 27.049 V 25.1 H 30 V 4.699 3.616 0.001 Z m 1.085,1.085 h 27.831 v 2.53 H 1.085 Z"
       id="path2" /><rect
       style="fill:#ff605c;fill-opacity:1"
       x="1.928"
       y="1.808"
       width="1.084"
       height="1.084"
       id="rect4" /><rect
       style="fill:#ffbd44;fill-opacity:1"
       x="4.098"
       y="1.808"
       width="1.084"
       height="1.084"
       id="rect6" /><rect
       style="fill:#00ca4e;fill-opacity:1"
       x="6.2659998"
       y="1.808"
       width="1.084"
       height="1.084"
       id="rect8" /><path
       d="m 15.543,11.361 v -0.383 h 0.648 c 0.463,0 0.897,-0.18 1.228,-0.507 0.326,-0.327 0.506,-0.764 0.506,-1.228 0,-0.464 -0.18,-0.899 -0.508,-1.228 C 17.089,7.689 16.654,7.51 16.191,7.51 h -2.383 c -0.461,0 -0.897,0.18 -1.227,0.506 -0.327,0.327 -0.507,0.763 -0.507,1.227 0,0.464 0.18,0.899 0.508,1.228 0.327,0.325 0.763,0.506 1.226,0.506 h 0.649 v 0.383 c -5.304,0.285 -9.535,4.675 -9.535,10.047 0,5.559 4.521,10.078 10.078,10.078 5.557,0 10.078,-4.52 10.078,-10.078 0,-5.372 -4.23,-9.762 -9.535,-10.046 z M 13.809,9.893 c -0.175,0 -0.338,-0.067 -0.459,-0.189 -0.123,-0.123 -0.189,-0.286 -0.189,-0.46 0,-0.175 0.066,-0.338 0.188,-0.459 0.125,-0.123 0.287,-0.188 0.461,-0.188 h 2.383 c 0.175,0 0.338,0.066 0.459,0.188 0.123,0.122 0.189,0.286 0.189,0.46 0,0.174 -0.066,0.338 -0.188,0.459 -0.123,0.123 -0.286,0.19 -0.461,0.19 H 15.544 V 9.243 h -1.085 v 0.649 h -0.65 z M 15,30.401 c -4.959,0 -8.994,-4.033 -8.994,-8.994 0,-4.957 4.035,-8.99 8.994,-8.99 4.958,0 8.994,4.033 8.994,8.99 0,4.961 -4.035,8.994 -8.994,8.994 z"
       id="path10" /><path
       d="m 22.766,14.228 0.769,0.765 0.557,-0.56 c 0.226,-0.225 0.349,-0.521 0.349,-0.833 0,-0.313 -0.123,-0.61 -0.348,-0.834 L 23.65,12.322 c -0.222,-0.225 -0.518,-0.349 -0.836,-0.349 -0.315,0 -0.611,0.123 -0.836,0.345 l -0.56,0.561 0.769,0.767 0.559,-0.561 c 0.023,-0.022 0.104,-0.029 0.134,0 l 0.448,0.448 c 0.029,0.03 0.029,0.06 0.029,0.067 0,0.007 0,0.036 -0.031,0.066 z"
       id="path12" /><path
       d="M 7.127,13.081 C 7.161,13.048 7.225,13.05 7.258,13.083 L 7.821,13.645 8.587,12.876 8.024,12.315 C 7.801,12.093 7.504,11.971 7.19,11.971 c -0.317,0 -0.613,0.124 -0.832,0.345 l -0.449,0.449 c -0.223,0.223 -0.346,0.519 -0.348,0.836 0.002,0.312 0.125,0.605 0.349,0.83 L 6.471,14.992 7.238,14.225 6.677,13.664 C 6.648,13.635 6.648,13.605 6.648,13.601 c 0,-0.01 0,-0.04 0.028,-0.07 z"
       id="path14" /><rect
       x="-19.205727"
       y="1.7201593"
       transform="rotate(-120.05188)"
       width="1.1140356"
       height="1.0840347"
       id="rect16"
       style="fill:#000000;fill-opacity:1;stroke-width:1.00003195" /><rect
       x="-16.832872"
       y="-11.624872"
       transform="rotate(-150.14568)"
       width="1.1100079"
       height="1.0860076"
       id="rect18"
       style="fill:#000000;fill-opacity:1;stroke-width:1.00000703" /><rect
       style="fill:#000000;fill-opacity:1"
       x="7.0549998"
       y="20.865999"
       width="1.112"
       height="1.084"
       id="rect20" /><rect
       x="25.482674"
       y="4.5787053"
       transform="rotate(59.919673)"
       width="1.0829705"
       height="1.1129698"
       id="rect22"
       style="fill:#000000;fill-opacity:1;stroke-width:0.99997276" /><rect
       x="23.160164"
       y="17.861332"
       transform="rotate(30.026305)"
       width="1.0850054"
       height="1.1130055"
       id="rect24"
       style="fill:#000000;fill-opacity:1;stroke-width:1.00000489" /><rect
       style="fill:#000000;fill-opacity:1"
       x="14.458"
       y="28.240999"
       width="1.084"
       height="1.115"
       id="rect26" /><rect
       x="32.861412"
       y="-2.9117444"
       transform="rotate(60.145677)"
       width="1.1100079"
       height="1.0840076"
       id="rect28"
       style="fill:#000000;fill-opacity:1;stroke-width:1.00000703" /><rect
       x="30.51667"
       y="10.531488"
       transform="rotate(29.933919)"
       width="1.1159981"
       height="1.0839981"
       id="rect30"
       style="fill:#000000;fill-opacity:1;stroke-width:0.99999827" /><path
       d="m 19.214,21.95 v -1.084 h -2.575 c -0.229,-0.689 -0.873,-1.191 -1.638,-1.191 -0.956,0 -1.733,0.777 -1.733,1.732 0,0.957 0.777,1.736 1.733,1.736 0.765,0 1.408,-0.502 1.636,-1.193 z M 15,22.059 c -0.357,0 -0.648,-0.293 -0.648,-0.652 0,-0.355 0.291,-0.646 0.648,-0.646 0.357,0 0.648,0.291 0.648,0.646 0,0.359 -0.291,0.652 -0.648,0.652 z"
       id="path32" /><path
       style="fill:#000000;fill-opacity:1"
       d="m 15,13.478 v 1.084 c 3.775,0 6.848,3.072 6.848,6.845 h 1.086 c 0,-4.371 -3.56,-7.929 -7.934,-7.929 z"
       id="path34" /></g></svg>