<svg xmlns="http://www.w3.org/2000/svg" viewBox="0 0 30 31.485"><title>seo-performance--monochrome</title><path d="M0,0V25.098H2.952V24.014H1.085V4.7H28.916V24.016H27.049V25.1H30V.001L0,0ZM1.085,1.085H28.916v2.53H1.085Z"/><rect x="1.928" y="1.808" width="1.084" height="1.084"/><rect x="4.098" y="1.808" width="1.084" height="1.084"/><rect x="6.266" y="1.808" width="1.084" height="1.084"/><path d="M15.543,11.361v-.383h.648a1.734,1.734,0,1,0,0-3.468H13.808a1.7335,1.7335,0,1,0,0,3.467h.649v.383a10.0873,10.0873,0,1,0,1.086.001ZM13.809,9.893a.6506.6506,0,0,1-.46-1.108.6489.6489,0,0,1,.461-.188h2.383a.6485.6485,0,1,1-.001,1.297h-.648V9.243H14.459v.649h-.65ZM15,30.401a8.992,8.992,0,1,1,8.994-8.994A9.0033,9.0033,0,0,1,15,30.401Z"/><path d="M22.766,14.228l.769.765.557-.56a1.171,1.171,0,0,0,.001-1.667l-.443-.444a1.1642,1.1642,0,0,0-.836-.349,1.1831,1.1831,0,0,0-.836.345l-.56.561.769.767.559-.561a.1268.1268,0,0,1,.134,0l.448.448a.0943.0943,0,0,1,.029.067.0894.0894,0,0,1-.031.066Z"/><path d="M7.127,13.081a.0991.0991,0,0,1,.131.002l.563.562.766-.769-.563-.561a1.1793,1.1793,0,0,0-1.666.001l-.449.449a1.17,1.17,0,0,0,.001,1.666l.561.561.767-.767-.561-.561a.0905.0905,0,0,1-.029-.063.0976.0976,0,0,1,.028-.07Z"/><rect x="10.755" y="14.4519" width="1.084" height="1.114" transform="matrix(0.8656, -0.5008, 0.5008, 0.8656, -5.9976, 7.675)"/><rect x="8.0582" y="17.1593" width="1.086" height="1.11" transform="translate(-11.044 16.3559) rotate(-60.1457)"/><rect x="7.055" y="20.866" width="1.112" height="1.084"/><rect x="8.0436" y="24.5517" width="1.113" height="1.083" transform="translate(-11.4188 7.6899) rotate(-30.0803)"/><rect x="10.7489" y="27.2643" width="1.113" height="1.085" transform="translate(-18.4268 23.6806) rotate(-59.9737)"/><rect x="14.458" y="28.241" width="1.084" height="1.115"/><rect x="18.1478" y="27.2472" width="1.084" height="1.11" transform="translate(-11.3596 12.9933) rotate(-29.8543)"/><rect x="20.8617" y="24.5446" width="1.084" height="1.116" transform="translate(-11.0307 31.1248) rotate(-60.0661)"/><path d="M19.214,21.95V20.866H16.639a1.7381,1.7381,0,1,0-.002,1.084ZM15,22.059a.649.649,0,1,1,.648-.652A.6513.6513,0,0,1,15,22.059Z"/><path d="M15,13.478v1.084a6.8558,6.8558,0,0,1,6.848,6.845h1.086A7.9417,7.9417,0,0,0,15,13.478Z"/></svg>