<svg xmlns="http://www.w3.org/2000/svg" viewBox="0 0 109.4627 123.9004"><title>shopify--monochrome</title><path d="M74.6851,14.4543c-.0082.0023-1.3857.4287-3.7105,1.1485a25.9085,25.9085,0,0,0-1.7754-4.363c-2.6294-5.0156-6.4785-7.67-11.1308-7.6772h-.0156c-.3225,0-.6441.03-.9657.0594-.1367-.1646-.2749-.3279-.4206-.4837a9.7538,9.7538,0,0,0-7.74-3.1328c-6.01.1723-11.9917,4.5117-16.8437,12.2182A48.392,48.392,0,0,0,25.335,29.735c-6.8989,2.1362-11.7257,3.6312-11.83,3.6641-3.4824,1.0927-3.5917,1.2021-4.0484,4.4831C9.1109,40.3661,0,110.8267,0,110.8267L75.6,123.9V14.3A4.3951,4.3951,0,0,0,74.6851,14.4543ZM57.2279,19.8592,44.4785,23.807a30.23,30.23,0,0,1,6.4376-12.4944,12.8882,12.8882,0,0,1,4.3286-3.1519C56.9079,11.6266,57.2682,16.54,57.2279,19.8592ZM49.042,4.0035a6.1391,6.1391,0,0,1,3.614.948A17.3985,17.3985,0,0,0,47.99,8.585C44.1734,12.68,41.25,19.037,40.0838,25.1679c-3.6387,1.1267-7.1973,2.2285-10.4712,3.2424C31.6777,18.7551,39.7678,4.27,49.042,4.0035ZM37.35,58.9907c.406,6.4315,17.3253,7.8368,18.2764,22.9005C56.3744,93.7427,49.34,101.8494,39.204,102.49c-12.1633.7679-18.8608-6.4093-18.8608-6.4093l2.5774-10.9654S29.6606,90.2,35.0561,89.86a4.7656,4.7656,0,0,0,4.6556-5.1161c-.53-8.3895-14.3071-7.8953-15.1776-21.68C23.8016,51.4613,31.42,39.7079,48.23,38.6464c6.4771-.409,9.7938,1.2447,9.7938,1.2447L54.18,54.2714A21.8155,21.8155,0,0,0,44.8082,52.64C37.3543,53.1105,37.2753,57.8124,37.35,58.9907Zm23.873-40.3685a32.817,32.817,0,0,0-1.8252-10.934c4.5594.864,6.8044,6.0228,7.7519,9.099Z"/><path d="M78.1,123.6016l31.3626-7.7955S95.9594,24.51,95.8738,23.8838a1.2019,1.2019,0,0,0-1.0865-1.01c-.4523-.0377-9.2813-.1721-9.2813-.1721S80.1226,17.473,78.1,15.4951Z"/></svg>