<svg id="Standard_Standards_Logo" xmlns="http://www.w3.org/2000/svg" viewBox="0 0 100 100"><g id="Book"><g id="Pages"><path d="M92.18,59.39V96.87H51.85a4.69,4.69,0,0,1,4.4-3.12H89.06a1.5642,1.5642,0,0,0,1.56-1.57V59.39Z" fill="#bd93f9"/><path d="M9.38,92.18a1.5642,1.5642,0,0,0,1.56,1.57H43.75a4.69,4.69,0,0,1,4.4,3.12H7.82V59.39H9.38Z" fill="#bd93f9"/><path d="M87.5,53.13V90.62H56.25a7.742,7.742,0,0,0-4.69,1.6V57.83a4.7053,4.7053,0,0,1,4.69-4.7Z" fill="#f8f8f2"/><path d="M48.44,57.83v34.4a7.6872,7.6872,0,0,0-4.69-1.61H12.5V53.13H43.75A4.7053,4.7053,0,0,1,48.44,57.83Z" fill="#f8f8f2"/><path d="M95.31,57.83v40.6A1.5642,1.5642,0,0,1,93.75,100H6.25a1.5642,1.5642,0,0,1-1.56-1.57V57.83a1.5642,1.5642,0,0,1,1.56-1.57H9.38V51.57a1.562,1.562,0,0,1,1.56-1.56H43.75A7.7914,7.7914,0,0,1,50,53.18a7.7771,7.7771,0,0,1,6.25-3.17H89.06a1.562,1.562,0,0,1,1.56,1.56v4.69h3.13A1.5642,1.5642,0,0,1,95.31,57.83ZM92.18,96.87V59.39H90.62V92.18a1.5642,1.5642,0,0,1-1.56,1.57H56.25a4.69,4.69,0,0,0-4.4,3.12ZM87.5,90.62V53.13H56.25a4.7053,4.7053,0,0,0-4.69,4.7V92.22a7.742,7.742,0,0,1,4.69-1.6ZM48.44,92.23V57.83a4.7053,4.7053,0,0,0-4.69-4.7H12.5V90.62H43.75A7.6872,7.6872,0,0,1,48.44,92.23ZM7.82,96.87H48.15a4.69,4.69,0,0,0-4.4-3.12H10.94a1.5642,1.5642,0,0,1-1.56-1.57V59.39H7.82Z" fill="#5d4a7b"/></g><g id="Left_Page_Text"><path d="M42.1875,70.3281H35.9406a1.5625,1.5625,0,0,0,0,3.125h6.2469a1.5625,1.5625,0,0,0,0-3.125Z" fill="#5d4a7b"/><path d="M42.1875,76.5813H40.625a1.5625,1.5625,0,0,0,0,3.125h1.5625a1.5625,1.5625,0,0,0,0-3.125Z" fill="#5d4a7b"/><path d="M18.7531,60.9469H32.8125a1.5625,1.5625,0,0,0,0-3.125H18.7531a1.5625,1.5625,0,0,0,0,3.125Z" fill="#5d4a7b"/><path d="M18.7531,73.4531H29.6906a1.5625,1.5625,0,1,0,0-3.125H18.7531a1.5625,1.5625,0,0,0,0,3.125Z" fill="#5d4a7b"/><path d="M42.1875,64.075H25.0031a1.5625,1.5625,0,0,0,0,3.125H42.1875a1.5625,1.5625,0,0,0,0-3.125Z" fill="#5d4a7b"/><path d="M18.7531,67.2h1.5625a1.5625,1.5625,0,1,0,0-3.125H18.7531a1.5625,1.5625,0,0,0,0,3.125Z" fill="#5d4a7b"/><path d="M42.1875,57.8219h-3.125a1.5625,1.5625,0,0,0,0,3.125h3.125a1.5625,1.5625,0,0,0,0-3.125Z" fill="#5d4a7b"/><path d="M18.7531,79.7063H34.375a1.5625,1.5625,0,0,0,0-3.125H18.7531a1.5625,1.5625,0,0,0,0,3.125Z" fill="#5d4a7b"/><path d="M25.0031,82.8344h-6.25a1.5625,1.5625,0,0,0,0,3.125h6.25a1.5625,1.5625,0,1,0,0-3.125Z" fill="#5d4a7b"/><path d="M42.1875,82.8344H31.2531a1.5625,1.5625,0,0,0,0,3.125H42.1875a1.5625,1.5625,0,0,0,0-3.125Z" fill="#5d4a7b"/></g><g id="Right_Page_Text"><path d="M67.2141,60.9344H81.2734a1.5625,1.5625,0,0,0,0-3.125H67.2141a1.5625,1.5625,0,0,0,0,3.125Z" fill="#5d4a7b"/><path d="M57.8391,67.1875H75.0234a1.5625,1.5625,0,0,0,0-3.125H57.8391a1.5625,1.5625,0,0,0,0,3.125Z" fill="#5d4a7b"/><path d="M81.2734,70.3156H70.3359a1.5625,1.5625,0,0,0,0,3.125H81.2734a1.5625,1.5625,0,0,0,0-3.125Z" fill="#5d4a7b"/><path d="M57.8391,73.4406h6.2468a1.5625,1.5625,0,0,0,0-3.125H57.8391a1.5625,1.5625,0,1,0,0,3.125Z" fill="#5d4a7b"/><path d="M81.2734,64.0625H79.7109a1.5625,1.5625,0,1,0,0,3.125h1.5625a1.5625,1.5625,0,0,0,0-3.125Z" fill="#5d4a7b"/><path d="M57.8391,60.9344h3.125a1.5625,1.5625,0,0,0,0-3.125h-3.125a1.5625,1.5625,0,0,0,0,3.125Z" fill="#5d4a7b"/><path d="M81.2734,76.5688H65.6516a1.5625,1.5625,0,0,0,0,3.125H81.2734a1.5625,1.5625,0,0,0,0-3.125Z" fill="#5d4a7b"/><path d="M57.8391,79.6938h1.5625a1.5625,1.5625,0,0,0,0-3.125H57.8391a1.5625,1.5625,0,1,0,0,3.125Z" fill="#5d4a7b"/><path d="M81.2734,82.8219h-6.25a1.5625,1.5625,0,0,0,0,3.125h6.25a1.5625,1.5625,0,1,0,0-3.125Z" fill="#5d4a7b"/><path d="M57.8391,85.9469H68.7734a1.5625,1.5625,0,1,0,0-3.125H57.8391a1.5625,1.5625,0,0,0,0,3.125Z" fill="#5d4a7b"/></g></g><g id="Speech_Balloon"><path d="M73.44,23.44A23.31,23.31,0,0,1,54.17,46.48L51.1,49.54a1.5452,1.5452,0,0,1-2.2,0l-3.07-3.06A23.4281,23.4281,0,1,1,73.44,23.44ZM53.17,43.48a20.31,20.31,0,1,0-6.34,0,1.52,1.52,0,0,1,.86.44L50,46.23l2.31-2.31A1.52,1.52,0,0,1,53.17,43.48Z" fill="#282a36"/><path d="M70.31,23.44A20.1917,20.1917,0,0,1,53.17,43.48a1.52,1.52,0,0,0-.86.44L50,46.23l-2.31-2.31a1.52,1.52,0,0,0-.86-.44A20.3,20.3,0,1,1,70.31,23.44Z" fill="#44475a"/></g><g id="Code"><path d="M43.2734,17.6391a1.5606,1.5606,0,0,0-2.2093,0l-4.6875,4.6875a1.5606,1.5606,0,0,0,0,2.2093l4.6875,4.6875a1.5622,1.5622,0,0,0,2.2093-2.2093l-3.5828-3.5829,3.5828-3.5828A1.5606,1.5606,0,0,0,43.2734,17.6391Z" fill="#50fa7b"/><path d="M56.7,29.2234a1.5618,1.5618,0,0,0,2.2094,0l4.6875-4.6875a1.5607,1.5607,0,0,0,0-2.2093l-4.6875-4.6875A1.5622,1.5622,0,1,0,56.7,19.8484l3.5828,3.5828L56.7,27.0141A1.5607,1.5607,0,0,0,56.7,29.2234Z" fill="#50fa7b"/><path d="M48.3109,31.8266l6.2516-15.6313a1.563,1.563,0,0,0-2.9031-1.1594L45.4078,30.6672a1.563,1.563,0,0,0,.8719,2.0312,1.54,1.54,0,0,0,.58.111A1.56,1.56,0,0,0,48.3109,31.8266Z" fill="#50fa7b"/></g></svg>