<svg xmlns="http://www.w3.org/2000/svg" viewBox="0 0 100 100"><title>u7y-a11y</title><path d="M49.863,0A49.863,49.863,0,1,0,99.726,49.863,49.8625,49.8625,0,0,0,49.863,0Zm-.756,9.903a6.4515,6.4515,0,1,1-6.44,6.44A6.4557,6.4557,0,0,1,49.107,9.903ZM77.05,30.728,57.866,33.152l.008,19.204,9.294,31.025a3.6151,3.6151,0,0,1-2.625,4.403,3.5692,3.5692,0,0,1-4.406-2.542L50.616,57H47.684L38.925,85.828a3.596,3.596,0,0,1-4.707,2.013,3.7543,3.7543,0,0,1-2.263-4.725L40,52.67V33.152L22.326,30.747a3.208,3.208,0,0,1-2.898-3.557,3.3366,3.3366,0,0,1,3.596-3.039L44.497,26h9.417L76.78,24.115a3.3093,3.3093,0,0,1,.27,6.613Z"/></svg>