<svg xmlns="http://www.w3.org/2000/svg" viewBox="0 0 64.0192 47.7"><title>ui-ux</title><path d="M23.4192,32.7a.9448.9448,0,0,0,1,1h22.5a1.0021,1.0021,0,0,0,1-1,1.0754,1.0754,0,0,0-1-1h-22.5A1.0754,1.0754,0,0,0,23.4192,32.7Z"/><path d="M30.4192,26.7a.9448.9448,0,0,0,1,1h15.5a1.0021,1.0021,0,0,0,1-1,1.0754,1.0754,0,0,0-1-1h-15.5A1.0754,1.0754,0,0,0,30.4192,26.7Z"/><path d="M20.8192,25.7a4.2005,4.2005,0,0,0-3.1-1.5,3.7281,3.7281,0,0,0-3.2,1.7c-.8,1.2-3,4.8-3.8,5.7a2.35,2.35,0,0,1-2.3-2.3V20.9a1.0037,1.0037,0,0,0-1.8-.6l-5.9,7.6a4.6924,4.6924,0,0,0-.7,2.8c.9,8.1,1.2,14.1.7,15.7a1.02,1.02,0,0,0,.2.9,1.2345,1.2345,0,0,0,.8.4h12.6a.961.961,0,0,0,.9-.6,26.4679,26.4679,0,0,0,1.9-8.6c.1-2.4,1.4-4.7,3.8-7.8A4.0536,4.0536,0,0,0,20.8192,25.7Z"/><path d="M34.2192,8.9a1.0754,1.0754,0,0,0,1-1,1.0021,1.0021,0,0,0-1-1h-2a1.0021,1.0021,0,0,0-1,1,1.0754,1.0754,0,0,0,1,1Z"/><path d="M29.4192,14.7v5.5a.9448.9448,0,0,0,1,1h5.5a1.0021,1.0021,0,0,0,1-1V14.7a1.0021,1.0021,0,0,0-1-1h-5.5A1.0021,1.0021,0,0,0,29.4192,14.7Z"/><path d="M40.4192,14.7v5.5a1.0021,1.0021,0,0,0,1,1h5.5a1.0021,1.0021,0,0,0,1-1V14.7a1.0021,1.0021,0,0,0-1-1h-5.5A1.0021,1.0021,0,0,0,40.4192,14.7Z"/><path d="M45.2192,8.9a1.0754,1.0754,0,0,0,1-1,1.0021,1.0021,0,0,0-1-1h-2a1.0021,1.0021,0,0,0-1,1,1.0754,1.0754,0,0,0,1,1Z"/><path d="M23.2192,8.9a1.0754,1.0754,0,0,0,1-1,1.0021,1.0021,0,0,0-1-1h-2a.9448.9448,0,0,0-1,1,1.0021,1.0021,0,0,0,1,1Z"/><path d="M18.4192,14.7v5.5a.9448.9448,0,0,0,1,1h5.5a1.0021,1.0021,0,0,0,1-1V14.7a1.0021,1.0021,0,0,0-1-1h-5.5A1.0021,1.0021,0,0,0,18.4192,14.7Z"/><path d="M60.0192,0h-49.6a4.0118,4.0118,0,0,0-4,4V18.2a3.0123,3.0123,0,0,1,4,2.8v7.7c1.1-1.7,1.8-3,2.5-3.9a5.2019,5.2019,0,0,1,2.4-2V2h35.7V38.7h-31.9a12.31,12.31,0,0,1-.2,2h41.1a4.0118,4.0118,0,0,0,4-4V4A4.0118,4.0118,0,0,0,60.0192,0Zm-1.5,22.8a1.0754,1.0754,0,0,1-1,1,1.0021,1.0021,0,0,1-1-1v-5a1.0021,1.0021,0,0,1,1-1,1.0754,1.0754,0,0,1,1,1Z"/></svg>