<svg xmlns="http://www.w3.org/2000/svg" viewBox="0 0 666 666"><title>wordpress</title><path d="M333,19.6667a311.7764,311.7764,0,0,1,175.1737,53.5A314.3052,314.3052,0,0,1,621.7183,211.0426a312.8946,312.8946,0,0,1-28.8855,297.131A314.3065,314.3065,0,0,1,454.9574,621.7182a312.8954,312.8954,0,0,1-297.131-28.8854A314.3046,314.3046,0,0,1,44.2817,454.9572a312.8954,312.8954,0,0,1,28.8854-297.131A314.3069,314.3069,0,0,1,211.0428,44.2818,311.3527,311.3527,0,0,1,333,19.6667m0-20C148.9052-.3333-.3333,148.905-.3333,333S148.9052,666.3333,333,666.3333,666.3333,517.0947,666.3333,333,517.0949-.3333,333-.3333Z" fill="#32373c"/><path d="M55.2223,332.99c0,109.945,63.89,204.9675,156.56,249.9885L79.2747,219.9446A276.6974,276.6974,0,0,0,55.2223,332.99ZM520.523,318.98c0-34.34-12.3348-58.108-22.8993-76.605-14.0819-22.8917-27.2861-42.2588-27.2861-65.15,0-25.53,19.36-49.2985,46.6465-49.2985,1.2326,0,2.4.1485,3.5968.225A276.74,276.74,0,0,0,333,55.2222c-97.05,0-182.4215,49.7952-232.0916,125.1974,6.5223.2064,12.6674.3371,17.8776.3371,29.0481,0,74.0344-3.5313,74.0344-3.5313,14.9663-.8769,16.7357,21.1223,1.7761,22.891,0,0-15.0531,1.7626-31.7887,2.6395l101.15,300.8833,60.7975-182.31L281.4807,202.7559c-14.9663-.8769-29.135-2.6395-29.135-2.6395-14.9737-.8843-13.2191-23.7679,1.762-22.891,0,0,45.8632,3.5313,73.1567,3.5313,29.0481,0,74.0418-3.5313,74.0418-3.5313,14.9737-.8769,16.7357,21.1223,1.7695,22.891,0,0-15.068,1.7626-31.7895,2.6395l100.3857,298.592,28.6561-90.8017C513.0595,370.8637,520.523,342.7489,520.523,318.98ZM337.88,357.2868l-83.356,242.1723a277.8937,277.8937,0,0,0,170.7253-4.43,25.3328,25.3328,0,0,1-1.9936-3.8283Zm238.879-157.5544a213.3622,213.3622,0,0,1,1.8674,28.5615c0,28.1768-5.2793,59.8633-21.13,99.4893L472.6579,573.0807c82.5831-48.1461,138.12-137.6148,138.12-240.0911A276.4558,276.4558,0,0,0,576.7592,199.7324Z" fill="#32373c"/></svg>